%TF.GenerationSoftware,KiCad,Pcbnew,9.0.1*%
%TF.CreationDate,2026-03-17T12:34:08+07:00*%
%TF.ProjectId,DucMinh,4475634d-696e-4682-9e6b-696361645f70,rev?*%
%TF.SameCoordinates,Original*%
%TF.FileFunction,Soldermask,Top*%
%TF.FilePolarity,Negative*%
%FSLAX46Y46*%
G04 Gerber Fmt 4.6, Leading zero omitted, Abs format (unit mm)*
G04 Created by KiCad (PCBNEW 9.0.1) date 2026-03-17 12:34:08*
%MOMM*%
%LPD*%
G01*
G04 APERTURE LIST*
G04 Aperture macros list*
%AMRoundRect*
0 Rectangle with rounded corners*
0 $1 Rounding radius*
0 $2 $3 $4 $5 $6 $7 $8 $9 X,Y pos of 4 corners*
0 Add a 4 corners polygon primitive as box body*
4,1,4,$2,$3,$4,$5,$6,$7,$8,$9,$2,$3,0*
0 Add four circle primitives for the rounded corners*
1,1,$1+$1,$2,$3*
1,1,$1+$1,$4,$5*
1,1,$1+$1,$6,$7*
1,1,$1+$1,$8,$9*
0 Add four rect primitives between the rounded corners*
20,1,$1+$1,$2,$3,$4,$5,0*
20,1,$1+$1,$4,$5,$6,$7,0*
20,1,$1+$1,$6,$7,$8,$9,0*
20,1,$1+$1,$8,$9,$2,$3,0*%
G04 Aperture macros list end*
%ADD10C,0.000000*%
%ADD11RoundRect,0.237500X0.250000X0.237500X-0.250000X0.237500X-0.250000X-0.237500X0.250000X-0.237500X0*%
%ADD12RoundRect,0.237500X0.237500X-0.300000X0.237500X0.300000X-0.237500X0.300000X-0.237500X-0.300000X0*%
%ADD13C,1.200000*%
%ADD14R,1.600000X1.600000*%
%ADD15C,1.600000*%
%ADD16RoundRect,0.101500X-1.038500X-0.913500X1.038500X-0.913500X1.038500X0.913500X-1.038500X0.913500X0*%
%ADD17RoundRect,0.237500X-0.237500X0.250000X-0.237500X-0.250000X0.237500X-0.250000X0.237500X0.250000X0*%
%ADD18RoundRect,0.237500X0.237500X-0.250000X0.237500X0.250000X-0.237500X0.250000X-0.237500X-0.250000X0*%
%ADD19C,2.000000*%
%ADD20R,1.700000X1.700000*%
%ADD21C,1.700000*%
%ADD22RoundRect,0.237500X-0.237500X0.300000X-0.237500X-0.300000X0.237500X-0.300000X0.237500X0.300000X0*%
%ADD23RoundRect,0.237500X0.300000X0.237500X-0.300000X0.237500X-0.300000X-0.237500X0.300000X-0.237500X0*%
%ADD24R,2.895600X5.410200*%
%ADD25R,2.489200X0.889000*%
%ADD26R,2.489200X3.200400*%
%ADD27RoundRect,0.200000X-0.200000X-0.275000X0.200000X-0.275000X0.200000X0.275000X-0.200000X0.275000X0*%
%ADD28RoundRect,0.237500X-0.287500X-0.237500X0.287500X-0.237500X0.287500X0.237500X-0.287500X0.237500X0*%
%ADD29RoundRect,0.102000X0.400000X-1.905000X0.400000X1.905000X-0.400000X1.905000X-0.400000X-1.905000X0*%
%ADD30RoundRect,0.102000X5.300000X-4.350000X5.300000X4.350000X-5.300000X4.350000X-5.300000X-4.350000X0*%
%ADD31RoundRect,0.250000X0.650000X-1.000000X0.650000X1.000000X-0.650000X1.000000X-0.650000X-1.000000X0*%
%ADD32R,3.000000X3.000000*%
%ADD33C,3.000000*%
%ADD34RoundRect,0.237500X0.287500X0.237500X-0.287500X0.237500X-0.287500X-0.237500X0.287500X-0.237500X0*%
%ADD35RoundRect,0.250000X-0.725000X0.600000X-0.725000X-0.600000X0.725000X-0.600000X0.725000X0.600000X0*%
%ADD36O,1.950000X1.700000*%
%ADD37RoundRect,0.237500X-0.250000X-0.237500X0.250000X-0.237500X0.250000X0.237500X-0.250000X0.237500X0*%
%ADD38C,1.500000*%
%ADD39RoundRect,0.121000X0.121000X-0.726000X0.121000X0.726000X-0.121000X0.726000X-0.121000X-0.726000X0*%
%ADD40RoundRect,0.121000X0.726000X-0.121000X0.726000X0.121000X-0.726000X0.121000X-0.726000X-0.121000X0*%
%ADD41RoundRect,0.237500X-0.300000X-0.237500X0.300000X-0.237500X0.300000X0.237500X-0.300000X0.237500X0*%
%ADD42RoundRect,0.101500X0.913500X-1.038500X0.913500X1.038500X-0.913500X1.038500X-0.913500X-1.038500X0*%
%ADD43R,1.070000X2.160001*%
%ADD44R,8.330001X6.990001*%
%ADD45RoundRect,0.100000X0.575000X-0.100000X0.575000X0.100000X-0.575000X0.100000X-0.575000X-0.100000X0*%
%ADD46O,1.600000X0.900000*%
%ADD47RoundRect,0.250000X0.450000X-0.550000X0.450000X0.550000X-0.450000X0.550000X-0.450000X-0.550000X0*%
%ADD48RoundRect,0.250000X0.700000X-0.700000X0.700000X0.700000X-0.700000X0.700000X-0.700000X-0.700000X0*%
%ADD49RoundRect,0.102000X0.754000X0.754000X-0.754000X0.754000X-0.754000X-0.754000X0.754000X-0.754000X0*%
%ADD50C,1.712000*%
%ADD51RoundRect,0.250000X1.000000X0.650000X-1.000000X0.650000X-1.000000X-0.650000X1.000000X-0.650000X0*%
G04 APERTURE END LIST*
D10*
%TO.C,U3*%
G36*
X72000801Y-66251199D02*
G01*
X70399201Y-66251199D01*
X70399201Y-64239602D01*
X72000801Y-64239601D01*
X72000801Y-66251199D01*
G37*
G36*
X81300800Y-66251200D02*
G01*
X79799200Y-66251199D01*
X79799200Y-64239602D01*
X81300800Y-64239601D01*
X81300800Y-66251200D01*
G37*
%TD*%
D11*
%TO.C,R16*%
X106602836Y-103135660D03*
X104777836Y-103135660D03*
%TD*%
D12*
%TO.C,C1*%
X105301760Y-87239729D03*
X105301760Y-85514729D03*
%TD*%
D13*
%TO.C,J11*%
X101860000Y-71640000D03*
X99360000Y-71640000D03*
X96860000Y-71640000D03*
%TD*%
D14*
%TO.C,C12*%
X88750060Y-61220000D03*
D15*
X88750060Y-66220000D03*
%TD*%
D11*
%TO.C,R13*%
X44885000Y-85290000D03*
X43060000Y-85290000D03*
%TD*%
D16*
%TO.C,C10*%
X93899999Y-84130000D03*
X93899999Y-89210000D03*
%TD*%
D17*
%TO.C,R15*%
X122540000Y-73160000D03*
X122540000Y-74985000D03*
%TD*%
D18*
%TO.C,R19*%
X74420000Y-55242500D03*
X74420000Y-53417500D03*
%TD*%
D19*
%TO.C,SW1*%
X110150000Y-112040000D03*
X116650000Y-112040000D03*
X110150000Y-116540000D03*
X116650000Y-116540000D03*
%TD*%
D14*
%TO.C,C11*%
X63525570Y-61260000D03*
D15*
X63525570Y-66260000D03*
%TD*%
D20*
%TO.C,J10*%
X88960000Y-113770000D03*
D21*
X86420000Y-113770000D03*
X83880000Y-113770000D03*
X81340000Y-113770000D03*
X78800000Y-113770000D03*
X76260000Y-113770000D03*
%TD*%
D22*
%TO.C,C3*%
X118128677Y-95753466D03*
X118128677Y-97478466D03*
%TD*%
D23*
%TO.C,C6*%
X114310130Y-102866959D03*
X112585130Y-102866959D03*
%TD*%
D20*
%TO.C,J6*%
X127650000Y-99950000D03*
D21*
X127650000Y-97410000D03*
X127650000Y-94870000D03*
X127650000Y-92330000D03*
%TD*%
D14*
%TO.C,C13*%
X113978000Y-61300000D03*
D15*
X113978000Y-66300000D03*
%TD*%
D24*
%TO.C,L1*%
X78510901Y-88860000D03*
X68604901Y-88860000D03*
%TD*%
D18*
%TO.C,R12*%
X75950000Y-55242500D03*
X75950000Y-53417500D03*
%TD*%
%TO.C,R20*%
X126402430Y-55242500D03*
X126402430Y-53417500D03*
%TD*%
D12*
%TO.C,C2*%
X102810000Y-99332500D03*
X102810000Y-97607500D03*
%TD*%
D25*
%TO.C,U2*%
X88845900Y-86420000D03*
X88845900Y-84130000D03*
X88845900Y-81840000D03*
D26*
X83334100Y-84130000D03*
%TD*%
D27*
%TO.C,FB1*%
X112905000Y-101330000D03*
X114555000Y-101330000D03*
%TD*%
D28*
%TO.C,DS4*%
X43135001Y-83650002D03*
X44885001Y-83650002D03*
%TD*%
D18*
%TO.C,R10*%
X118128677Y-94130000D03*
X118128677Y-92305000D03*
%TD*%
D11*
%TO.C,R30*%
X101662500Y-58870000D03*
X99837500Y-58870000D03*
%TD*%
D29*
%TO.C,U10*%
X87480060Y-54159999D03*
X88750060Y-54159999D03*
X90020060Y-54159999D03*
X91290060Y-54159999D03*
X92560060Y-54159999D03*
X93830060Y-54159999D03*
X95100060Y-54159999D03*
D30*
X91290060Y-44460000D03*
%TD*%
D31*
%TO.C,D1*%
X63240000Y-87207501D03*
X63240000Y-83207499D03*
%TD*%
D32*
%TO.C,J2*%
X51040000Y-44030000D03*
D33*
X56119999Y-44030000D03*
%TD*%
D34*
%TO.C,DS2*%
X106527836Y-101485660D03*
X104777836Y-101485660D03*
%TD*%
%TO.C,DS1*%
X83889999Y-91100000D03*
X82139999Y-91100000D03*
%TD*%
D23*
%TO.C,C5*%
X114307627Y-104406957D03*
X112582627Y-104406957D03*
%TD*%
D35*
%TO.C,J8*%
X62029999Y-93550000D03*
D36*
X62029999Y-96050000D03*
X62029999Y-98550000D03*
X62029999Y-101050000D03*
%TD*%
D14*
%TO.C,C16*%
X88750060Y-71640000D03*
D15*
X88750060Y-76640000D03*
%TD*%
D29*
%TO.C,U8*%
X112708000Y-54159999D03*
X113978000Y-54159999D03*
X115248000Y-54159999D03*
X116518000Y-54159999D03*
X117788000Y-54159999D03*
X119058000Y-54159999D03*
X120328000Y-54159999D03*
D30*
X116518000Y-44460000D03*
%TD*%
D13*
%TO.C,J12*%
X83120000Y-96240000D03*
X85620000Y-96240000D03*
X88120000Y-96240000D03*
%TD*%
D37*
%TO.C,R7*%
X82140000Y-89370000D03*
X83965000Y-89370000D03*
%TD*%
D23*
%TO.C,C15*%
X95872500Y-111530000D03*
X94147500Y-111530000D03*
%TD*%
D38*
%TO.C,Y1*%
X101860000Y-115170000D03*
X96980000Y-115170000D03*
%TD*%
D22*
%TO.C,C9*%
X107790000Y-112040000D03*
X107790000Y-113765000D03*
%TD*%
%TO.C,C4*%
X117900000Y-87827500D03*
X117900000Y-89552500D03*
%TD*%
D39*
%TO.C,U6*%
X106650000Y-99337500D03*
X107150000Y-99337500D03*
X107650000Y-99337500D03*
X108150000Y-99337500D03*
X108650000Y-99337500D03*
X109150000Y-99337500D03*
X109650000Y-99337500D03*
X110150000Y-99337500D03*
X110650000Y-99337500D03*
X111150000Y-99337500D03*
X111650000Y-99337500D03*
X112150000Y-99337500D03*
X112650000Y-99337500D03*
X113150000Y-99337500D03*
X113650000Y-99337500D03*
X114150000Y-99337500D03*
D40*
X116070000Y-97417500D03*
X116070000Y-96917500D03*
X116070000Y-96417500D03*
X116070000Y-95917500D03*
X116070000Y-95417500D03*
X116070000Y-94917500D03*
X116070000Y-94417500D03*
X116070000Y-93917500D03*
X116070000Y-93417500D03*
X116070000Y-92917500D03*
X116070000Y-92417500D03*
X116070000Y-91917500D03*
X116070000Y-91417500D03*
X116070000Y-90917500D03*
X116070000Y-90417500D03*
X116070000Y-89917500D03*
D39*
X114150000Y-87997500D03*
X113650000Y-87997500D03*
X113150000Y-87997500D03*
X112650000Y-87997500D03*
X112150000Y-87997500D03*
X111650000Y-87997500D03*
X111150000Y-87997500D03*
X110650000Y-87997500D03*
X110150000Y-87997500D03*
X109650000Y-87997500D03*
X109150000Y-87997500D03*
X108650000Y-87997500D03*
X108150000Y-87997500D03*
X107650000Y-87997500D03*
X107150000Y-87997500D03*
X106650000Y-87997500D03*
D40*
X104730000Y-89917500D03*
X104730000Y-90417500D03*
X104730000Y-90917500D03*
X104730000Y-91417500D03*
X104730000Y-91917500D03*
X104730000Y-92417500D03*
X104730000Y-92917500D03*
X104730000Y-93417500D03*
X104730000Y-93917500D03*
X104730000Y-94417500D03*
X104730000Y-94917500D03*
X104730000Y-95417500D03*
X104730000Y-95917500D03*
X104730000Y-96417500D03*
X104730000Y-96917500D03*
X104730000Y-97417500D03*
%TD*%
D41*
%TO.C,C14*%
X102947500Y-111530000D03*
X104672500Y-111530000D03*
%TD*%
D32*
%TO.C,J4*%
X76264490Y-44030000D03*
D33*
X81344489Y-44030000D03*
%TD*%
D20*
%TO.C,J7*%
X127740000Y-78250001D03*
D21*
X127740000Y-80790001D03*
X127740000Y-83330001D03*
X127740000Y-85870001D03*
%TD*%
D17*
%TO.C,R14*%
X121026792Y-73160000D03*
X121026792Y-74985000D03*
%TD*%
D32*
%TO.C,J1*%
X44980000Y-61230000D03*
D33*
X44980000Y-56150000D03*
%TD*%
D17*
%TO.C,R22*%
X124872430Y-53417500D03*
X124872430Y-55242500D03*
%TD*%
D32*
%TO.C,J5*%
X101492430Y-44030000D03*
D33*
X106572429Y-44030000D03*
%TD*%
D42*
%TO.C,C18*%
X99360000Y-75780001D03*
X104440000Y-75780001D03*
%TD*%
D18*
%TO.C,R24*%
X101174490Y-55242500D03*
X101174490Y-53417500D03*
%TD*%
D11*
%TO.C,R28*%
X76265000Y-58870000D03*
X74440000Y-58870000D03*
%TD*%
D43*
%TO.C,U3*%
X72450000Y-78460400D03*
X74150001Y-78460400D03*
X75855002Y-78460400D03*
X77549999Y-78460400D03*
X79250001Y-78460400D03*
D44*
X75850002Y-67785400D03*
%TD*%
D29*
%TO.C,U5*%
X62255570Y-54159999D03*
X63525570Y-54159999D03*
X64795570Y-54159999D03*
X66065570Y-54159999D03*
X67335570Y-54159999D03*
X68605570Y-54159999D03*
X69875570Y-54159999D03*
D30*
X66065570Y-44460000D03*
%TD*%
D45*
%TO.C,J3*%
X125080000Y-71640000D03*
X125080000Y-70990000D03*
X125080000Y-70340000D03*
X125080000Y-69690000D03*
X125080000Y-69040000D03*
D46*
X127755000Y-73640000D03*
D47*
X125305000Y-73540000D03*
D48*
X127755000Y-71540000D03*
X127755000Y-69140000D03*
D47*
X125305000Y-67140000D03*
D46*
X127755000Y-67040000D03*
%TD*%
D37*
%TO.C,R32*%
X108937500Y-58860000D03*
X110762500Y-58860000D03*
%TD*%
D14*
%TO.C,C17*%
X55920000Y-69820000D03*
D15*
X50920000Y-69820000D03*
%TD*%
D17*
%TO.C,R26*%
X99644490Y-53417500D03*
X99644490Y-55242500D03*
%TD*%
D11*
%TO.C,R9*%
X91292500Y-93320000D03*
X89467500Y-93320000D03*
%TD*%
D14*
%TO.C,C8*%
X55920000Y-80200000D03*
D15*
X50920000Y-80200000D03*
%TD*%
D49*
%TO.C,U4*%
X55760000Y-106250000D03*
D50*
X55760000Y-103710000D03*
X55760000Y-101170000D03*
X55760000Y-98630000D03*
X55760000Y-96090000D03*
X55760000Y-93550000D03*
X55760000Y-91010000D03*
X55760000Y-88470000D03*
X43060000Y-106250000D03*
X43060000Y-103710000D03*
X43060000Y-101170000D03*
X43060000Y-98630000D03*
X43060000Y-96090000D03*
X43060000Y-93550000D03*
X43060000Y-91010000D03*
X43060000Y-88470000D03*
X48140000Y-88470000D03*
X45600000Y-88470000D03*
%TD*%
D51*
%TO.C,D2*%
X55919999Y-61260000D03*
X51919999Y-61260000D03*
%TD*%
D37*
%TO.C,R3*%
X116650000Y-109710000D03*
X118475000Y-109710000D03*
%TD*%
D18*
%TO.C,R11*%
X119506511Y-74985000D03*
X119506511Y-73160000D03*
%TD*%
G36*
X52555675Y-59749685D02*
G01*
X52576317Y-59766319D01*
X53133679Y-60323681D01*
X53167164Y-60385004D01*
X53169998Y-60411362D01*
X53169998Y-62108638D01*
X53150313Y-62175677D01*
X53133679Y-62196319D01*
X52636317Y-62693681D01*
X52574994Y-62727166D01*
X52548636Y-62730000D01*
X43604000Y-62730000D01*
X43536961Y-62710315D01*
X43491206Y-62657511D01*
X43480000Y-62606000D01*
X43480000Y-59854000D01*
X43499685Y-59786961D01*
X43552489Y-59741206D01*
X43604000Y-59730000D01*
X52488636Y-59730000D01*
X52555675Y-59749685D01*
G37*
G36*
X97153099Y-52274684D02*
G01*
X97198854Y-52327488D01*
X97210060Y-52378999D01*
X97210060Y-60000000D01*
X97313059Y-60000000D01*
X97380098Y-60019685D01*
X97425853Y-60072489D01*
X97435797Y-60141647D01*
X97416161Y-60192892D01*
X97400540Y-60216270D01*
X97366328Y-60250481D01*
X97326239Y-60277267D01*
X97281542Y-60295781D01*
X97222042Y-60307617D01*
X97197849Y-60310000D01*
X92156701Y-60310000D01*
X92132509Y-60307617D01*
X92073008Y-60295781D01*
X92028310Y-60277267D01*
X91988221Y-60250481D01*
X91954007Y-60216267D01*
X91938387Y-60192889D01*
X91917511Y-60126211D01*
X91935997Y-60058831D01*
X91987977Y-60012142D01*
X92041491Y-60000000D01*
X92204490Y-60000000D01*
X92204490Y-59999999D01*
X94700060Y-57504429D01*
X94700060Y-52378999D01*
X94719745Y-52311960D01*
X94772549Y-52266205D01*
X94824060Y-52254999D01*
X97086060Y-52254999D01*
X97153099Y-52274684D01*
G37*
G36*
X71928609Y-52274684D02*
G01*
X71974364Y-52327488D01*
X71985570Y-52378999D01*
X71985570Y-60000000D01*
X72088569Y-60000000D01*
X72155608Y-60019685D01*
X72201363Y-60072489D01*
X72211307Y-60141647D01*
X72191671Y-60192892D01*
X72176050Y-60216270D01*
X72141838Y-60250481D01*
X72101749Y-60277267D01*
X72057052Y-60295781D01*
X71997552Y-60307617D01*
X71973359Y-60310000D01*
X66932211Y-60310000D01*
X66908019Y-60307617D01*
X66848518Y-60295781D01*
X66803820Y-60277267D01*
X66763731Y-60250481D01*
X66729517Y-60216267D01*
X66713897Y-60192889D01*
X66693021Y-60126211D01*
X66711507Y-60058831D01*
X66763487Y-60012142D01*
X66817001Y-60000000D01*
X66980000Y-60000000D01*
X66980000Y-59999999D01*
X69475570Y-57504429D01*
X69475570Y-52378999D01*
X69495255Y-52311960D01*
X69548059Y-52266205D01*
X69599570Y-52254999D01*
X71861570Y-52254999D01*
X71928609Y-52274684D01*
G37*
G36*
X96533099Y-40129685D02*
G01*
X96578854Y-40182489D01*
X96590060Y-40234000D01*
X96590060Y-48686000D01*
X96570375Y-48753039D01*
X96517571Y-48798794D01*
X96466060Y-48810000D01*
X82075852Y-48810000D01*
X82008813Y-48790315D01*
X81988171Y-48773681D01*
X79060809Y-45846319D01*
X79027324Y-45784996D01*
X79024490Y-45758638D01*
X79024490Y-40234000D01*
X79044175Y-40166961D01*
X79096979Y-40121206D01*
X79148490Y-40110000D01*
X96466060Y-40110000D01*
X96533099Y-40129685D01*
G37*
G36*
X122381039Y-52274684D02*
G01*
X122426794Y-52327488D01*
X122438000Y-52378999D01*
X122438000Y-60186000D01*
X122418315Y-60253039D01*
X122365511Y-60298794D01*
X122314000Y-60310000D01*
X117384641Y-60310000D01*
X117360449Y-60307617D01*
X117300948Y-60295781D01*
X117256250Y-60277267D01*
X117216161Y-60250481D01*
X117181947Y-60216267D01*
X117166327Y-60192889D01*
X117145451Y-60126211D01*
X117163937Y-60058831D01*
X117215917Y-60012142D01*
X117269431Y-60000000D01*
X117432430Y-60000000D01*
X117432430Y-59999999D01*
X119928000Y-57504429D01*
X119928000Y-52378999D01*
X119947685Y-52311960D01*
X120000489Y-52266205D01*
X120052000Y-52254999D01*
X122314000Y-52254999D01*
X122381039Y-52274684D01*
G37*
G36*
X61913031Y-100416149D02*
G01*
X61974378Y-100419162D01*
X61992487Y-100421396D01*
X62115734Y-100445912D01*
X62138994Y-100452968D01*
X62252263Y-100499885D01*
X62273702Y-100511344D01*
X62375640Y-100579457D01*
X62394430Y-100594878D01*
X62481120Y-100681568D01*
X62496541Y-100700358D01*
X62564654Y-100802296D01*
X62576113Y-100823735D01*
X62623030Y-100937004D01*
X62630086Y-100960264D01*
X62654005Y-101080507D01*
X62656388Y-101104699D01*
X62656388Y-101227300D01*
X62654005Y-101251492D01*
X62630086Y-101371735D01*
X62623030Y-101394995D01*
X62576113Y-101508264D01*
X62564654Y-101529703D01*
X62496541Y-101631641D01*
X62481120Y-101650431D01*
X62394430Y-101737121D01*
X62375640Y-101752542D01*
X62273702Y-101820655D01*
X62252263Y-101832114D01*
X62138994Y-101879031D01*
X62115734Y-101886087D01*
X61992487Y-101910603D01*
X61974380Y-101912837D01*
X61913033Y-101915851D01*
X61906948Y-101916000D01*
X55763051Y-101916000D01*
X55756966Y-101915851D01*
X55695618Y-101912837D01*
X55677511Y-101910603D01*
X55554264Y-101886087D01*
X55531004Y-101879031D01*
X55417735Y-101832114D01*
X55396296Y-101820655D01*
X55294358Y-101752542D01*
X55275568Y-101737121D01*
X55188878Y-101650431D01*
X55173457Y-101631641D01*
X55105344Y-101529703D01*
X55093885Y-101508264D01*
X55046968Y-101394995D01*
X55039912Y-101371734D01*
X55015994Y-101251491D01*
X55013611Y-101227300D01*
X55013611Y-101104699D01*
X55015994Y-101080508D01*
X55039912Y-100960265D01*
X55046968Y-100937004D01*
X55093885Y-100823735D01*
X55105344Y-100802296D01*
X55173457Y-100700358D01*
X55188878Y-100681568D01*
X55275568Y-100594878D01*
X55294358Y-100579457D01*
X55396296Y-100511344D01*
X55417735Y-100499885D01*
X55531004Y-100452968D01*
X55554264Y-100445912D01*
X55677511Y-100421396D01*
X55695620Y-100419162D01*
X55756968Y-100416149D01*
X55763051Y-100416000D01*
X61906948Y-100416000D01*
X61913031Y-100416149D01*
G37*
G36*
X71928609Y-59769685D02*
G01*
X71974364Y-59822489D01*
X71985570Y-59874000D01*
X71985570Y-60000000D01*
X92204490Y-60000000D01*
X92204490Y-59999999D01*
X92418171Y-59786319D01*
X92479494Y-59752834D01*
X92505852Y-59750000D01*
X97086060Y-59750000D01*
X97153099Y-59769685D01*
X97198854Y-59822489D01*
X97210060Y-59874000D01*
X97210060Y-60000000D01*
X117432430Y-60000000D01*
X117432430Y-59999999D01*
X117646111Y-59786319D01*
X117707434Y-59752834D01*
X117733792Y-59750000D01*
X122314000Y-59750000D01*
X122381039Y-59769685D01*
X122426794Y-59822489D01*
X122438000Y-59874000D01*
X122438000Y-62376000D01*
X122418315Y-62443039D01*
X122365511Y-62488794D01*
X122314000Y-62500000D01*
X57170000Y-62500000D01*
X57170000Y-62626000D01*
X57150315Y-62693039D01*
X57097511Y-62738794D01*
X57046000Y-62750000D01*
X54794000Y-62750000D01*
X54726961Y-62730315D01*
X54681206Y-62677511D01*
X54670000Y-62626000D01*
X54670000Y-60124000D01*
X54689685Y-60056961D01*
X54742489Y-60011206D01*
X54794000Y-60000000D01*
X66980000Y-60000000D01*
X66980000Y-59999999D01*
X67193681Y-59786319D01*
X67255004Y-59752834D01*
X67281362Y-59750000D01*
X71861570Y-59750000D01*
X71928609Y-59769685D01*
G37*
G36*
X57363039Y-60019685D02*
G01*
X57408794Y-60072489D01*
X57420000Y-60124000D01*
X57420000Y-62376000D01*
X57400315Y-62443039D01*
X57347511Y-62488794D01*
X57296000Y-62500000D01*
X57170000Y-62500000D01*
X57170000Y-88368638D01*
X57150315Y-88435677D01*
X57133681Y-88456319D01*
X56196319Y-89393681D01*
X56134996Y-89427166D01*
X56108638Y-89430000D01*
X55421362Y-89430000D01*
X55354323Y-89410315D01*
X55333681Y-89393681D01*
X54706319Y-88766319D01*
X54672834Y-88704996D01*
X54670000Y-88678638D01*
X54670000Y-60124000D01*
X54689685Y-60056961D01*
X54742489Y-60011206D01*
X54794000Y-60000000D01*
X57296000Y-60000000D01*
X57363039Y-60019685D01*
G37*
G36*
X61993031Y-95336149D02*
G01*
X62054378Y-95339162D01*
X62072487Y-95341396D01*
X62195734Y-95365912D01*
X62218994Y-95372968D01*
X62332263Y-95419885D01*
X62353702Y-95431344D01*
X62455640Y-95499457D01*
X62474430Y-95514878D01*
X62561120Y-95601568D01*
X62576541Y-95620358D01*
X62644654Y-95722296D01*
X62656113Y-95743735D01*
X62703030Y-95857004D01*
X62710086Y-95880264D01*
X62734005Y-96000507D01*
X62736388Y-96024699D01*
X62736388Y-96147300D01*
X62734005Y-96171492D01*
X62710086Y-96291735D01*
X62703030Y-96314995D01*
X62656113Y-96428264D01*
X62644654Y-96449703D01*
X62576541Y-96551641D01*
X62561120Y-96570431D01*
X62474430Y-96657121D01*
X62455640Y-96672542D01*
X62353702Y-96740655D01*
X62332263Y-96752114D01*
X62218994Y-96799031D01*
X62195734Y-96806087D01*
X62072487Y-96830603D01*
X62054380Y-96832837D01*
X61993033Y-96835851D01*
X61986948Y-96836000D01*
X55763051Y-96836000D01*
X55756966Y-96835851D01*
X55695618Y-96832837D01*
X55677511Y-96830603D01*
X55554264Y-96806087D01*
X55531004Y-96799031D01*
X55417735Y-96752114D01*
X55396296Y-96740655D01*
X55294358Y-96672542D01*
X55275568Y-96657121D01*
X55188878Y-96570431D01*
X55173457Y-96551641D01*
X55105344Y-96449703D01*
X55093885Y-96428264D01*
X55046968Y-96314995D01*
X55039912Y-96291734D01*
X55015994Y-96171491D01*
X55013611Y-96147300D01*
X55013611Y-96024699D01*
X55015994Y-96000508D01*
X55039912Y-95880265D01*
X55046968Y-95857004D01*
X55093885Y-95743735D01*
X55105344Y-95722296D01*
X55173457Y-95620358D01*
X55188878Y-95601568D01*
X55275568Y-95514878D01*
X55294358Y-95499457D01*
X55396296Y-95431344D01*
X55417735Y-95419885D01*
X55531004Y-95372968D01*
X55554264Y-95365912D01*
X55677511Y-95341396D01*
X55695620Y-95339162D01*
X55756968Y-95336149D01*
X55763051Y-95336000D01*
X61986948Y-95336000D01*
X61993031Y-95336149D01*
G37*
G36*
X121761039Y-40129685D02*
G01*
X121806794Y-40182489D01*
X121818000Y-40234000D01*
X121818000Y-48686000D01*
X121798315Y-48753039D01*
X121745511Y-48798794D01*
X121694000Y-48810000D01*
X107303792Y-48810000D01*
X107236753Y-48790315D01*
X107216111Y-48773681D01*
X104288749Y-45846319D01*
X104255264Y-45784996D01*
X104252430Y-45758638D01*
X104252430Y-40234000D01*
X104272115Y-40166961D01*
X104324919Y-40121206D01*
X104376430Y-40110000D01*
X121694000Y-40110000D01*
X121761039Y-40129685D01*
G37*
G36*
X61953031Y-97876149D02*
G01*
X62014378Y-97879162D01*
X62032487Y-97881396D01*
X62155734Y-97905912D01*
X62178994Y-97912968D01*
X62292263Y-97959885D01*
X62313702Y-97971344D01*
X62415640Y-98039457D01*
X62434430Y-98054878D01*
X62521120Y-98141568D01*
X62536541Y-98160358D01*
X62604654Y-98262296D01*
X62616113Y-98283735D01*
X62663030Y-98397004D01*
X62670086Y-98420264D01*
X62694005Y-98540507D01*
X62696388Y-98564699D01*
X62696388Y-98687300D01*
X62694005Y-98711492D01*
X62670086Y-98831735D01*
X62663030Y-98854995D01*
X62616113Y-98968264D01*
X62604654Y-98989703D01*
X62536541Y-99091641D01*
X62521120Y-99110431D01*
X62434430Y-99197121D01*
X62415640Y-99212542D01*
X62313702Y-99280655D01*
X62292263Y-99292114D01*
X62178994Y-99339031D01*
X62155734Y-99346087D01*
X62032487Y-99370603D01*
X62014380Y-99372837D01*
X61953033Y-99375851D01*
X61946948Y-99376000D01*
X55763051Y-99376000D01*
X55756966Y-99375851D01*
X55695618Y-99372837D01*
X55677511Y-99370603D01*
X55554264Y-99346087D01*
X55531004Y-99339031D01*
X55417735Y-99292114D01*
X55396296Y-99280655D01*
X55294358Y-99212542D01*
X55275568Y-99197121D01*
X55188878Y-99110431D01*
X55173457Y-99091641D01*
X55105344Y-98989703D01*
X55093885Y-98968264D01*
X55046968Y-98854995D01*
X55039912Y-98831734D01*
X55015994Y-98711491D01*
X55013611Y-98687300D01*
X55013611Y-98564699D01*
X55015994Y-98540508D01*
X55039912Y-98420265D01*
X55046968Y-98397004D01*
X55093885Y-98283735D01*
X55105344Y-98262296D01*
X55173457Y-98160358D01*
X55188878Y-98141568D01*
X55275568Y-98054878D01*
X55294358Y-98039457D01*
X55396296Y-97971344D01*
X55417735Y-97959885D01*
X55531004Y-97912968D01*
X55554264Y-97905912D01*
X55677511Y-97881396D01*
X55695620Y-97879162D01*
X55756968Y-97876149D01*
X55763051Y-97876000D01*
X61946948Y-97876000D01*
X61953031Y-97876149D01*
G37*
G36*
X71308609Y-40129685D02*
G01*
X71354364Y-40182489D01*
X71365570Y-40234000D01*
X71365570Y-48686000D01*
X71345885Y-48753039D01*
X71293081Y-48798794D01*
X71241570Y-48810000D01*
X56851362Y-48810000D01*
X56784323Y-48790315D01*
X56763681Y-48773681D01*
X53836319Y-45846319D01*
X53802834Y-45784996D01*
X53800000Y-45758638D01*
X53800000Y-40234000D01*
X53819685Y-40166961D01*
X53872489Y-40121206D01*
X53924000Y-40110000D01*
X71241570Y-40110000D01*
X71308609Y-40129685D01*
G37*
G36*
X62033031Y-92796149D02*
G01*
X62094378Y-92799162D01*
X62112487Y-92801396D01*
X62235734Y-92825912D01*
X62258994Y-92832968D01*
X62372263Y-92879885D01*
X62393702Y-92891344D01*
X62495640Y-92959457D01*
X62514430Y-92974878D01*
X62601120Y-93061568D01*
X62616541Y-93080358D01*
X62684654Y-93182296D01*
X62696113Y-93203735D01*
X62743030Y-93317004D01*
X62750086Y-93340264D01*
X62774005Y-93460507D01*
X62776388Y-93484699D01*
X62776388Y-93607300D01*
X62774005Y-93631492D01*
X62750086Y-93751735D01*
X62743030Y-93774995D01*
X62696113Y-93888264D01*
X62684654Y-93909703D01*
X62616541Y-94011641D01*
X62601120Y-94030431D01*
X62514430Y-94117121D01*
X62495640Y-94132542D01*
X62393702Y-94200655D01*
X62372263Y-94212114D01*
X62258994Y-94259031D01*
X62235734Y-94266087D01*
X62112487Y-94290603D01*
X62094380Y-94292837D01*
X62033033Y-94295851D01*
X62026948Y-94296000D01*
X55763051Y-94296000D01*
X55756966Y-94295851D01*
X55695618Y-94292837D01*
X55677511Y-94290603D01*
X55554264Y-94266087D01*
X55531004Y-94259031D01*
X55417735Y-94212114D01*
X55396296Y-94200655D01*
X55294358Y-94132542D01*
X55275568Y-94117121D01*
X55188878Y-94030431D01*
X55173457Y-94011641D01*
X55105344Y-93909703D01*
X55093885Y-93888264D01*
X55046968Y-93774995D01*
X55039912Y-93751734D01*
X55015994Y-93631491D01*
X55013611Y-93607300D01*
X55013611Y-93484699D01*
X55015994Y-93460508D01*
X55039912Y-93340265D01*
X55046968Y-93317004D01*
X55093885Y-93203735D01*
X55105344Y-93182296D01*
X55173457Y-93080358D01*
X55188878Y-93061568D01*
X55275568Y-92974878D01*
X55294358Y-92959457D01*
X55396296Y-92891344D01*
X55417735Y-92879885D01*
X55531004Y-92832968D01*
X55554264Y-92825912D01*
X55677511Y-92801396D01*
X55695620Y-92799162D01*
X55756968Y-92796149D01*
X55763051Y-92796000D01*
X62026948Y-92796000D01*
X62033031Y-92796149D01*
G37*
M02*
