%TF.GenerationSoftware,KiCad,Pcbnew,9.0.1*%
%TF.CreationDate,2026-03-17T12:34:08+07:00*%
%TF.ProjectId,DucMinh,4475634d-696e-4682-9e6b-696361645f70,rev?*%
%TF.SameCoordinates,Original*%
%TF.FileFunction,Soldermask,Bot*%
%TF.FilePolarity,Negative*%
%FSLAX46Y46*%
G04 Gerber Fmt 4.6, Leading zero omitted, Abs format (unit mm)*
G04 Created by KiCad (PCBNEW 9.0.1) date 2026-03-17 12:34:08*
%MOMM*%
%LPD*%
G01*
G04 APERTURE LIST*
G04 Aperture macros list*
%AMRoundRect*
0 Rectangle with rounded corners*
0 $1 Rounding radius*
0 $2 $3 $4 $5 $6 $7 $8 $9 X,Y pos of 4 corners*
0 Add a 4 corners polygon primitive as box body*
4,1,4,$2,$3,$4,$5,$6,$7,$8,$9,$2,$3,0*
0 Add four circle primitives for the rounded corners*
1,1,$1+$1,$2,$3*
1,1,$1+$1,$4,$5*
1,1,$1+$1,$6,$7*
1,1,$1+$1,$8,$9*
0 Add four rect primitives between the rounded corners*
20,1,$1+$1,$2,$3,$4,$5,0*
20,1,$1+$1,$4,$5,$6,$7,0*
20,1,$1+$1,$6,$7,$8,$9,0*
20,1,$1+$1,$8,$9,$2,$3,0*%
G04 Aperture macros list end*
%ADD10C,1.200000*%
%ADD11R,1.600000X1.600000*%
%ADD12C,1.600000*%
%ADD13C,2.000000*%
%ADD14R,1.700000X1.700000*%
%ADD15C,1.700000*%
%ADD16R,3.000000X3.000000*%
%ADD17C,3.000000*%
%ADD18RoundRect,0.250000X-0.725000X0.600000X-0.725000X-0.600000X0.725000X-0.600000X0.725000X0.600000X0*%
%ADD19O,1.950000X1.700000*%
%ADD20C,1.500000*%
%ADD21O,1.600000X0.900000*%
%ADD22RoundRect,0.102000X0.754000X0.754000X-0.754000X0.754000X-0.754000X-0.754000X0.754000X-0.754000X0*%
%ADD23C,1.712000*%
G04 APERTURE END LIST*
D10*
%TO.C,J11*%
X101860000Y-71640000D03*
X99360000Y-71640000D03*
X96860000Y-71640000D03*
%TD*%
D11*
%TO.C,C12*%
X88750060Y-61220000D03*
D12*
X88750060Y-66220000D03*
%TD*%
D13*
%TO.C,SW1*%
X110150000Y-112040000D03*
X116650000Y-112040000D03*
X110150000Y-116540000D03*
X116650000Y-116540000D03*
%TD*%
D11*
%TO.C,C11*%
X63525570Y-61260000D03*
D12*
X63525570Y-66260000D03*
%TD*%
D14*
%TO.C,J10*%
X88960000Y-113770000D03*
D15*
X86420000Y-113770000D03*
X83880000Y-113770000D03*
X81340000Y-113770000D03*
X78800000Y-113770000D03*
X76260000Y-113770000D03*
%TD*%
D14*
%TO.C,J6*%
X127650000Y-99950000D03*
D15*
X127650000Y-97410000D03*
X127650000Y-94870000D03*
X127650000Y-92330000D03*
%TD*%
D11*
%TO.C,C13*%
X113978000Y-61300000D03*
D12*
X113978000Y-66300000D03*
%TD*%
D16*
%TO.C,J2*%
X51040000Y-44030000D03*
D17*
X56119999Y-44030000D03*
%TD*%
D18*
%TO.C,J8*%
X62029999Y-93550000D03*
D19*
X62029999Y-96050000D03*
X62029999Y-98550000D03*
X62029999Y-101050000D03*
%TD*%
D11*
%TO.C,C16*%
X88750060Y-71640000D03*
D12*
X88750060Y-76640000D03*
%TD*%
D10*
%TO.C,J12*%
X83120000Y-96240000D03*
X85620000Y-96240000D03*
X88120000Y-96240000D03*
%TD*%
D20*
%TO.C,Y1*%
X101860000Y-115170000D03*
X96980000Y-115170000D03*
%TD*%
D16*
%TO.C,J4*%
X76264490Y-44030000D03*
D17*
X81344489Y-44030000D03*
%TD*%
D14*
%TO.C,J7*%
X127740000Y-78250001D03*
D15*
X127740000Y-80790001D03*
X127740000Y-83330001D03*
X127740000Y-85870001D03*
%TD*%
D16*
%TO.C,J1*%
X44980000Y-61230000D03*
D17*
X44980000Y-56150000D03*
%TD*%
D16*
%TO.C,J5*%
X101492430Y-44030000D03*
D17*
X106572429Y-44030000D03*
%TD*%
D21*
%TO.C,J3*%
X127755000Y-73640000D03*
X127755000Y-67040000D03*
%TD*%
D11*
%TO.C,C17*%
X55920000Y-69820000D03*
D12*
X50920000Y-69820000D03*
%TD*%
D11*
%TO.C,C8*%
X55920000Y-80200000D03*
D12*
X50920000Y-80200000D03*
%TD*%
D22*
%TO.C,U4*%
X55760000Y-106250000D03*
D23*
X55760000Y-103710000D03*
X55760000Y-101170000D03*
X55760000Y-98630000D03*
X55760000Y-96090000D03*
X55760000Y-93550000D03*
X55760000Y-91010000D03*
X55760000Y-88470000D03*
X43060000Y-106250000D03*
X43060000Y-103710000D03*
X43060000Y-101170000D03*
X43060000Y-98630000D03*
X43060000Y-96090000D03*
X43060000Y-93550000D03*
X43060000Y-91010000D03*
X43060000Y-88470000D03*
X48140000Y-88470000D03*
X45600000Y-88470000D03*
%TD*%
G36*
X96533099Y-40129685D02*
G01*
X96578854Y-40182489D01*
X96590060Y-40234000D01*
X96590060Y-48686000D01*
X96570375Y-48753039D01*
X96517571Y-48798794D01*
X96466060Y-48810000D01*
X82075852Y-48810000D01*
X82008813Y-48790315D01*
X81988171Y-48773681D01*
X79060809Y-45846319D01*
X79027324Y-45784996D01*
X79024490Y-45758638D01*
X79024490Y-40234000D01*
X79044175Y-40166961D01*
X79096979Y-40121206D01*
X79148490Y-40110000D01*
X96466060Y-40110000D01*
X96533099Y-40129685D01*
G37*
G36*
X121761039Y-40129685D02*
G01*
X121806794Y-40182489D01*
X121818000Y-40234000D01*
X121818000Y-48686000D01*
X121798315Y-48753039D01*
X121745511Y-48798794D01*
X121694000Y-48810000D01*
X107303792Y-48810000D01*
X107236753Y-48790315D01*
X107216111Y-48773681D01*
X104288749Y-45846319D01*
X104255264Y-45784996D01*
X104252430Y-45758638D01*
X104252430Y-40234000D01*
X104272115Y-40166961D01*
X104324919Y-40121206D01*
X104376430Y-40110000D01*
X121694000Y-40110000D01*
X121761039Y-40129685D01*
G37*
G36*
X71308609Y-40129685D02*
G01*
X71354364Y-40182489D01*
X71365570Y-40234000D01*
X71365570Y-48686000D01*
X71345885Y-48753039D01*
X71293081Y-48798794D01*
X71241570Y-48810000D01*
X56851362Y-48810000D01*
X56784323Y-48790315D01*
X56763681Y-48773681D01*
X53836319Y-45846319D01*
X53802834Y-45784996D01*
X53800000Y-45758638D01*
X53800000Y-40234000D01*
X53819685Y-40166961D01*
X53872489Y-40121206D01*
X53924000Y-40110000D01*
X71241570Y-40110000D01*
X71308609Y-40129685D01*
G37*
M02*
