%TF.GenerationSoftware,KiCad,Pcbnew,9.0.1*%
%TF.CreationDate,2026-03-17T12:34:19+07:00*%
%TF.ProjectId,DucMinh,4475634d-696e-4682-9e6b-696361645f70,rev?*%
%TF.SameCoordinates,Original*%
%TF.FileFunction,Drillmap*%
%TF.FilePolarity,Positive*%
%FSLAX45Y45*%
G04 Gerber Fmt 4.5, Leading zero omitted, Abs format (unit mm)*
G04 Created by KiCad (PCBNEW 9.0.1) date 2026-03-17 12:34:19*
%MOMM*%
%LPD*%
G01*
G04 APERTURE LIST*
%ADD10C,0.050000*%
%ADD11C,0.200000*%
%ADD12C,0.100000*%
%ADD13C,0.110000*%
%ADD14C,0.152000*%
G04 APERTURE END LIST*
D10*
X4006000Y-4295000D02*
G75*
G02*
X4406000Y-3895000I400000J0D01*
G01*
X12756000Y-11495000D02*
G75*
G02*
X12456000Y-11495000I-150000J0D01*
G01*
X12456000Y-11495000D02*
G75*
G02*
X12756000Y-11495000I150000J0D01*
G01*
X13006000Y-4295000D02*
X13006000Y-11495000D01*
X4406000Y-3895000D02*
X12606000Y-3895000D01*
X4006000Y-11495000D02*
X4006000Y-4295000D01*
X4556000Y-4295000D02*
G75*
G02*
X4256000Y-4295000I-150000J0D01*
G01*
X4256000Y-4295000D02*
G75*
G02*
X4556000Y-4295000I150000J0D01*
G01*
X12606000Y-11895000D02*
X4406000Y-11895000D01*
X4556000Y-11495000D02*
G75*
G02*
X4256000Y-11495000I-150000J0D01*
G01*
X4256000Y-11495000D02*
G75*
G02*
X4556000Y-11495000I150000J0D01*
G01*
X12606000Y-3895000D02*
G75*
G02*
X13006000Y-4295000I0J-400000D01*
G01*
X4406000Y-11895000D02*
G75*
G02*
X4006000Y-11495000I0J400000D01*
G01*
X12756000Y-4295000D02*
G75*
G02*
X12456000Y-4295000I-150000J0D01*
G01*
X12456000Y-4295000D02*
G75*
G02*
X12756000Y-4295000I150000J0D01*
G01*
X13006000Y-11495000D02*
G75*
G02*
X12606000Y-11895000I-400000J0D01*
G01*
D11*
D12*
X4298500Y-8231000D02*
X4328500Y-8261000D01*
X4328500Y-8231000D02*
X4298500Y-8261000D01*
X4789000Y-6968000D02*
X4819000Y-6998000D01*
X4819000Y-6968000D02*
X4789000Y-6998000D01*
X4789000Y-6889000D02*
X4819000Y-6919000D01*
X4819000Y-6889000D02*
X4789000Y-6919000D01*
X4789000Y-7047000D02*
X4819000Y-7077000D01*
X4819000Y-7047000D02*
X4789000Y-7077000D01*
X4840735Y-7926000D02*
X4870735Y-7956000D01*
X4870735Y-7926000D02*
X4840735Y-7956000D01*
X4840735Y-8005000D02*
X4870735Y-8035000D01*
X4870735Y-8005000D02*
X4840735Y-8035000D01*
X4840735Y-8084000D02*
X4870735Y-8114000D01*
X4870735Y-8084000D02*
X4840735Y-8114000D01*
X4860735Y-7047000D02*
X4890735Y-7077000D01*
X4890735Y-7047000D02*
X4860735Y-7077000D01*
X4860735Y-6889000D02*
X4890735Y-6919000D01*
X4890735Y-6889000D02*
X4860735Y-6919000D01*
X4860735Y-6968000D02*
X4890735Y-6998000D01*
X4890735Y-6968000D02*
X4860735Y-6998000D01*
X4924735Y-7926000D02*
X4954735Y-7956000D01*
X4954735Y-7926000D02*
X4924735Y-7956000D01*
X4924735Y-8005000D02*
X4954735Y-8035000D01*
X4954735Y-8005000D02*
X4924735Y-8035000D01*
X4924735Y-8084000D02*
X4954735Y-8114000D01*
X4954735Y-8084000D02*
X4924735Y-8114000D01*
X6258557Y-6827265D02*
X6288557Y-6857265D01*
X6288557Y-6827265D02*
X6258557Y-6857265D01*
X6258557Y-6911265D02*
X6288557Y-6941265D01*
X6288557Y-6911265D02*
X6258557Y-6941265D01*
X6337557Y-6827265D02*
X6367557Y-6857265D01*
X6367557Y-6827265D02*
X6337557Y-6857265D01*
X6337557Y-6911265D02*
X6367557Y-6941265D01*
X6367557Y-6911265D02*
X6337557Y-6941265D01*
X6416557Y-6911265D02*
X6446557Y-6941265D01*
X6446557Y-6911265D02*
X6416557Y-6941265D01*
X6416557Y-6827265D02*
X6446557Y-6857265D01*
X6446557Y-6827265D02*
X6416557Y-6857265D01*
X6521000Y-8252750D02*
X6551000Y-8282750D01*
X6551000Y-8252750D02*
X6521000Y-8282750D01*
X6521000Y-8353750D02*
X6551000Y-8383750D01*
X6551000Y-8353750D02*
X6521000Y-8383750D01*
X6684000Y-5872000D02*
X6714000Y-5902000D01*
X6714000Y-5872000D02*
X6684000Y-5902000D01*
X6857000Y-5685000D02*
X6887000Y-5715000D01*
X6887000Y-5685000D02*
X6857000Y-5715000D01*
X7257000Y-5685000D02*
X7287000Y-5715000D01*
X7287000Y-5685000D02*
X7257000Y-5715000D01*
X7300250Y-5509250D02*
X7330250Y-5539250D01*
X7330250Y-5509250D02*
X7300250Y-5539250D01*
X7429000Y-5872000D02*
X7459000Y-5902000D01*
X7459000Y-5872000D02*
X7429000Y-5902000D01*
X7570500Y-8058290D02*
X7600500Y-8088290D01*
X7600500Y-8058290D02*
X7570500Y-8088290D01*
X7570500Y-7993290D02*
X7600500Y-8023290D01*
X7600500Y-7993290D02*
X7570500Y-8023290D01*
X7706750Y-5509250D02*
X7736750Y-5539250D01*
X7736750Y-5509250D02*
X7706750Y-5539250D01*
X8016000Y-7831040D02*
X8046000Y-7861040D01*
X8046000Y-7831040D02*
X8016000Y-7861040D01*
X8016000Y-7895040D02*
X8046000Y-7925040D01*
X8046000Y-7895040D02*
X8016000Y-7925040D01*
X8016000Y-7766040D02*
X8046000Y-7796040D01*
X8046000Y-7766040D02*
X8016000Y-7796040D01*
X8075000Y-5685000D02*
X8105000Y-5715000D01*
X8105000Y-5685000D02*
X8075000Y-5715000D01*
X8297000Y-9458500D02*
X8327000Y-9488500D01*
X8327000Y-9458500D02*
X8297000Y-9488500D01*
X8333000Y-5685000D02*
X8363000Y-5715000D01*
X8363000Y-5685000D02*
X8333000Y-5715000D01*
X8374000Y-9218000D02*
X8404000Y-9248000D01*
X8404000Y-9218000D02*
X8374000Y-9248000D01*
X8550000Y-7651500D02*
X8580000Y-7681500D01*
X8580000Y-7651500D02*
X8550000Y-7681500D01*
X8550000Y-7572500D02*
X8580000Y-7602500D01*
X8580000Y-7572500D02*
X8550000Y-7602500D01*
X8550000Y-7730500D02*
X8580000Y-7760500D01*
X8580000Y-7730500D02*
X8550000Y-7760500D01*
X8634000Y-7572500D02*
X8664000Y-7602500D01*
X8664000Y-7572500D02*
X8634000Y-7602500D01*
X8634000Y-7730500D02*
X8664000Y-7760500D01*
X8664000Y-7730500D02*
X8634000Y-7760500D01*
X8634000Y-7651500D02*
X8664000Y-7681500D01*
X8664000Y-7651500D02*
X8634000Y-7681500D01*
X8699000Y-10450802D02*
X8729000Y-10480802D01*
X8729000Y-10450802D02*
X8699000Y-10480802D01*
X8767779Y-10519581D02*
X8797779Y-10549581D01*
X8797779Y-10519581D02*
X8767779Y-10549581D01*
X8781006Y-6822265D02*
X8811006Y-6852265D01*
X8811006Y-6822265D02*
X8781006Y-6852265D01*
X8781006Y-6906265D02*
X8811006Y-6936265D01*
X8811006Y-6906265D02*
X8781006Y-6936265D01*
X8787000Y-5685000D02*
X8817000Y-5715000D01*
X8817000Y-5685000D02*
X8787000Y-5715000D01*
X8836559Y-10588360D02*
X8866559Y-10618360D01*
X8866559Y-10588360D02*
X8836559Y-10618360D01*
X8838000Y-10270000D02*
X8868000Y-10300000D01*
X8868000Y-10270000D02*
X8838000Y-10300000D01*
X8860006Y-6822265D02*
X8890006Y-6852265D01*
X8890006Y-6822265D02*
X8860006Y-6852265D01*
X8860006Y-6906265D02*
X8890006Y-6936265D01*
X8890006Y-6906265D02*
X8860006Y-6936265D01*
X8905338Y-10657139D02*
X8935338Y-10687139D01*
X8935338Y-10657139D02*
X8905338Y-10687139D01*
X8935269Y-10270000D02*
X8965269Y-10300000D01*
X8965269Y-10270000D02*
X8935269Y-10300000D01*
X8939006Y-6822265D02*
X8969006Y-6852265D01*
X8969006Y-6822265D02*
X8939006Y-6852265D01*
X8939006Y-6906265D02*
X8969006Y-6936265D01*
X8969006Y-6906265D02*
X8939006Y-6936265D01*
X8948000Y-5685000D02*
X8978000Y-5715000D01*
X8978000Y-5685000D02*
X8948000Y-5715000D01*
X8954000Y-5790000D02*
X8984000Y-5820000D01*
X8984000Y-5790000D02*
X8954000Y-5820000D01*
X8974117Y-10725919D02*
X9004117Y-10755919D01*
X9004117Y-10725919D02*
X8974117Y-10755919D01*
X9032537Y-10270000D02*
X9062537Y-10300000D01*
X9062537Y-10270000D02*
X9032537Y-10300000D01*
X9077590Y-8627000D02*
X9107590Y-8657000D01*
X9107590Y-8627000D02*
X9077590Y-8657000D01*
X9129806Y-10270000D02*
X9159806Y-10300000D01*
X9159806Y-10270000D02*
X9129806Y-10300000D01*
X9174000Y-8906000D02*
X9204000Y-8936000D01*
X9204000Y-8906000D02*
X9174000Y-8936000D01*
X9184000Y-5872000D02*
X9214000Y-5902000D01*
X9214000Y-5872000D02*
X9184000Y-5902000D01*
X9227074Y-10270000D02*
X9257074Y-10300000D01*
X9257074Y-10270000D02*
X9227074Y-10300000D01*
X9248000Y-9317000D02*
X9278000Y-9347000D01*
X9278000Y-9317000D02*
X9248000Y-9347000D01*
X9258000Y-11116000D02*
X9288000Y-11146000D01*
X9288000Y-11116000D02*
X9258000Y-11146000D01*
X9375000Y-8141000D02*
X9405000Y-8171000D01*
X9405000Y-8141000D02*
X9375000Y-8171000D01*
X9399500Y-11240000D02*
X9429500Y-11270000D01*
X9429500Y-11240000D02*
X9399500Y-11270000D01*
X9681000Y-9911000D02*
X9711000Y-9941000D01*
X9711000Y-9911000D02*
X9681000Y-9941000D01*
X9681000Y-9991000D02*
X9711000Y-10021000D01*
X9711000Y-9991000D02*
X9681000Y-10021000D01*
X9701000Y-9280999D02*
X9731000Y-9310999D01*
X9731000Y-9280999D02*
X9701000Y-9310999D01*
X9701000Y-9361000D02*
X9731000Y-9391000D01*
X9731000Y-9361000D02*
X9701000Y-9391000D01*
X9701000Y-9441000D02*
X9731000Y-9471000D01*
X9731000Y-9441000D02*
X9701000Y-9471000D01*
X9785000Y-5685000D02*
X9815000Y-5715000D01*
X9815000Y-5685000D02*
X9785000Y-5715000D01*
X9812000Y-10823000D02*
X9842000Y-10853000D01*
X9842000Y-10823000D02*
X9812000Y-10853000D01*
X9822699Y-5509250D02*
X9852699Y-5539250D01*
X9852699Y-5509250D02*
X9822699Y-5539250D01*
X9850000Y-5872000D02*
X9880000Y-5902000D01*
X9880000Y-5872000D02*
X9850000Y-5902000D01*
X9915000Y-9280999D02*
X9945000Y-9310999D01*
X9945000Y-9280999D02*
X9915000Y-9310999D01*
X9915000Y-9361000D02*
X9945000Y-9391000D01*
X9945000Y-9361000D02*
X9915000Y-9391000D01*
X9915000Y-9441000D02*
X9945000Y-9471000D01*
X9945000Y-9441000D02*
X9915000Y-9471000D01*
X9915000Y-9526750D02*
X9945000Y-9556750D01*
X9945000Y-9526750D02*
X9915000Y-9556750D01*
X9962000Y-9663000D02*
X9992000Y-9693000D01*
X9992000Y-9663000D02*
X9962000Y-9693000D01*
X10042000Y-9663000D02*
X10072000Y-9693000D01*
X10072000Y-9663000D02*
X10042000Y-9693000D01*
X10142000Y-9745750D02*
X10172000Y-9775750D01*
X10172000Y-9745750D02*
X10142000Y-9775750D01*
X10229199Y-5509250D02*
X10259199Y-5539250D01*
X10259199Y-5509250D02*
X10229199Y-5539250D01*
X10278000Y-5872000D02*
X10308000Y-5902000D01*
X10308000Y-5872000D02*
X10278000Y-5902000D01*
X10397000Y-10817015D02*
X10427000Y-10847015D01*
X10427000Y-10817015D02*
X10397000Y-10847015D01*
X10397000Y-10897000D02*
X10427000Y-10927000D01*
X10427000Y-10897000D02*
X10397000Y-10927000D01*
X10429000Y-7771000D02*
X10459000Y-7801000D01*
X10459000Y-7771000D02*
X10429000Y-7801000D01*
X10446000Y-6498000D02*
X10476000Y-6528000D01*
X10476000Y-6498000D02*
X10446000Y-6528000D01*
X10452000Y-11240000D02*
X10482000Y-11270000D01*
X10482000Y-11240000D02*
X10452000Y-11270000D01*
X10515000Y-8415000D02*
X10545000Y-8445000D01*
X10545000Y-8415000D02*
X10515000Y-8445000D01*
X10522000Y-10744100D02*
X10552000Y-10774100D01*
X10552000Y-10744100D02*
X10522000Y-10774100D01*
X10526000Y-6498000D02*
X10556000Y-6528000D01*
X10556000Y-6498000D02*
X10526000Y-6528000D01*
X10601990Y-10742832D02*
X10631990Y-10772832D01*
X10631990Y-10742832D02*
X10601990Y-10772832D01*
X10606001Y-6498000D02*
X10636001Y-6528000D01*
X10636001Y-6498000D02*
X10606001Y-6528000D01*
X10715000Y-10817015D02*
X10745000Y-10847015D01*
X10745000Y-10817015D02*
X10715000Y-10847015D01*
X10715000Y-10897000D02*
X10745000Y-10927000D01*
X10745000Y-10897000D02*
X10715000Y-10927000D01*
X10752000Y-5871000D02*
X10782000Y-5901000D01*
X10782000Y-5871000D02*
X10752000Y-5901000D01*
X10763750Y-11463500D02*
X10793750Y-11493500D01*
X10793750Y-11463500D02*
X10763750Y-11493500D01*
X10765000Y-10485000D02*
X10795000Y-10515000D01*
X10795000Y-10485000D02*
X10765000Y-10515000D01*
X10840000Y-7149000D02*
X10870000Y-7179000D01*
X10870000Y-7149000D02*
X10840000Y-7179000D01*
X10857500Y-10485000D02*
X10887500Y-10515000D01*
X10887500Y-10485000D02*
X10857500Y-10515000D01*
X10858427Y-8212426D02*
X10888427Y-8242426D01*
X10888427Y-8212426D02*
X10858427Y-8242426D01*
X10911167Y-8272580D02*
X10941167Y-8302580D01*
X10941167Y-8272580D02*
X10911167Y-8302580D01*
X10950000Y-10485000D02*
X10980000Y-10515000D01*
X10980000Y-10485000D02*
X10950000Y-10515000D01*
X11039999Y-8001000D02*
X11069999Y-8031000D01*
X11069999Y-8001000D02*
X11039999Y-8031000D01*
X11039999Y-8130000D02*
X11069999Y-8160000D01*
X11069999Y-8130000D02*
X11039999Y-8160000D01*
X11120000Y-8001000D02*
X11150000Y-8031000D01*
X11150000Y-8001000D02*
X11120000Y-8031000D01*
X11120000Y-8130000D02*
X11150000Y-8160000D01*
X11150000Y-8130000D02*
X11120000Y-8160000D01*
X11121790Y-10425872D02*
X11151790Y-10455872D01*
X11151790Y-10425872D02*
X11121790Y-10455872D01*
X11122040Y-10271872D02*
X11152040Y-10301872D01*
X11152040Y-10271872D02*
X11122040Y-10301872D01*
X11200000Y-8001000D02*
X11230000Y-8031000D01*
X11230000Y-8001000D02*
X11200000Y-8031000D01*
X11200000Y-8130000D02*
X11230000Y-8160000D01*
X11230000Y-8130000D02*
X11200000Y-8160000D01*
X11269000Y-8213000D02*
X11299000Y-8243000D01*
X11299000Y-8213000D02*
X11269000Y-8243000D01*
X11299000Y-5685000D02*
X11329000Y-5715000D01*
X11329000Y-5685000D02*
X11299000Y-5715000D01*
X11303800Y-6831265D02*
X11333800Y-6861265D01*
X11333800Y-6831265D02*
X11303800Y-6861265D01*
X11303800Y-6915265D02*
X11333800Y-6945265D01*
X11333800Y-6915265D02*
X11303800Y-6945265D01*
X11321741Y-8273154D02*
X11351741Y-8303154D01*
X11351741Y-8273154D02*
X11321741Y-8303154D01*
X11382800Y-6915265D02*
X11412800Y-6945265D01*
X11412800Y-6915265D02*
X11382800Y-6945265D01*
X11382800Y-6831265D02*
X11412800Y-6861265D01*
X11412800Y-6831265D02*
X11382800Y-6861265D01*
X11461800Y-6915265D02*
X11491800Y-6945265D01*
X11491800Y-6915265D02*
X11461800Y-6945265D01*
X11461800Y-6831265D02*
X11491800Y-6861265D01*
X11491800Y-6831265D02*
X11461800Y-6861265D01*
X11483000Y-5686000D02*
X11513000Y-5716000D01*
X11513000Y-5686000D02*
X11483000Y-5716000D01*
X11594000Y-10476000D02*
X11624000Y-10506000D01*
X11624000Y-10476000D02*
X11594000Y-10506000D01*
X11594000Y-10735000D02*
X11624000Y-10765000D01*
X11624000Y-10735000D02*
X11594000Y-10765000D01*
X11650000Y-10956000D02*
X11680000Y-10986000D01*
X11680000Y-10956000D02*
X11650000Y-10986000D01*
X11673985Y-10476000D02*
X11703985Y-10506000D01*
X11703985Y-10476000D02*
X11673985Y-10506000D01*
X11673985Y-10735000D02*
X11703985Y-10765000D01*
X11703985Y-10735000D02*
X11673985Y-10765000D01*
X11775000Y-7983000D02*
X11805000Y-8013000D01*
X11805000Y-7983000D02*
X11775000Y-8013000D01*
X11775000Y-8384000D02*
X11805000Y-8414000D01*
X11805000Y-8384000D02*
X11775000Y-8414000D01*
X11896473Y-8940074D02*
X11926473Y-8970074D01*
X11926473Y-8940074D02*
X11896473Y-8970074D01*
X11919340Y-9397824D02*
X11949340Y-9427824D01*
X11949340Y-9397824D02*
X11919340Y-9427824D01*
X11919340Y-9732671D02*
X11949340Y-9762671D01*
X11949340Y-9732671D02*
X11919340Y-9762671D01*
X11935651Y-7983000D02*
X11965651Y-8013000D01*
X11965651Y-7983000D02*
X11935651Y-8013000D01*
X11935651Y-8139000D02*
X11965651Y-8169000D01*
X11965651Y-8139000D02*
X11935651Y-8169000D01*
X12004000Y-9106000D02*
X12034000Y-9136000D01*
X12034000Y-9106000D02*
X12004000Y-9136000D01*
X12004000Y-9203000D02*
X12034000Y-9233000D01*
X12034000Y-9203000D02*
X12004000Y-9233000D01*
X12087679Y-7301000D02*
X12117679Y-7331000D01*
X12117679Y-7301000D02*
X12087679Y-7331000D01*
X12201000Y-9274000D02*
X12231000Y-9304000D01*
X12231000Y-9274000D02*
X12201000Y-9304000D01*
X12205000Y-9164000D02*
X12235000Y-9194000D01*
X12235000Y-9164000D02*
X12205000Y-9194000D01*
X12216000Y-7076000D02*
X12246000Y-7106000D01*
X12246000Y-7076000D02*
X12216000Y-7106000D01*
X12239000Y-7301000D02*
X12269000Y-7331000D01*
X12269000Y-7301000D02*
X12239000Y-7331000D01*
X12239000Y-7983000D02*
X12269000Y-8013000D01*
X12269000Y-7983000D02*
X12239000Y-8013000D01*
X12239000Y-8139000D02*
X12269000Y-8169000D01*
X12269000Y-8139000D02*
X12239000Y-8169000D01*
X12301500Y-9772500D02*
X12331500Y-9802500D01*
X12331500Y-9772500D02*
X12301500Y-9802500D01*
X12307000Y-7079000D02*
X12337000Y-7109000D01*
X12337000Y-7079000D02*
X12307000Y-7109000D01*
X12321000Y-6925000D02*
X12351000Y-6955000D01*
X12351000Y-6925000D02*
X12321000Y-6955000D01*
X12323000Y-6837000D02*
X12353000Y-6867000D01*
X12353000Y-6837000D02*
X12323000Y-6867000D01*
X12345493Y-5509250D02*
X12375493Y-5539250D01*
X12375493Y-5509250D02*
X12345493Y-5539250D01*
X12439000Y-9635000D02*
X12469000Y-9665000D01*
X12469000Y-9635000D02*
X12439000Y-9665000D01*
X12751993Y-5509250D02*
X12781993Y-5539250D01*
X12781993Y-5509250D02*
X12751993Y-5539250D01*
X12800500Y-6704000D02*
G75*
G02*
X12750500Y-6704000I-25000J0D01*
G01*
X12750500Y-6704000D02*
G75*
G02*
X12800500Y-6704000I25000J0D01*
G01*
X12810500Y-6679000D02*
X12740500Y-6679000D01*
X12740500Y-6729000D02*
G75*
G02*
X12740500Y-6679000I0J25000D01*
G01*
X12740500Y-6729000D02*
X12810500Y-6729000D01*
X12810500Y-6729000D02*
G75*
G03*
X12810500Y-6679000I0J25000D01*
G01*
X12800500Y-7364000D02*
G75*
G02*
X12750500Y-7364000I-25000J0D01*
G01*
X12750500Y-7364000D02*
G75*
G02*
X12800500Y-7364000I25000J0D01*
G01*
X12810500Y-7339000D02*
X12740500Y-7339000D01*
X12740500Y-7389000D02*
G75*
G02*
X12740500Y-7339000I0J25000D01*
G01*
X12740500Y-7389000D02*
X12810500Y-7389000D01*
X12810500Y-7389000D02*
G75*
G03*
X12810500Y-7339000I0J25000D01*
G01*
X6097557Y-5264500D02*
X6097557Y-5324500D01*
X6067557Y-5294500D02*
X6127557Y-5294500D01*
X6097557Y-5386000D02*
X6097557Y-5446000D01*
X6067557Y-5416000D02*
X6127557Y-5416000D01*
X6097557Y-5507500D02*
X6097557Y-5567500D01*
X6067557Y-5537500D02*
X6127557Y-5537500D01*
X8621006Y-5264500D02*
X8621006Y-5324500D01*
X8591006Y-5294500D02*
X8651006Y-5294500D01*
X8621006Y-5386000D02*
X8621006Y-5446000D01*
X8591006Y-5416000D02*
X8651006Y-5416000D01*
X8621006Y-5507500D02*
X8621006Y-5567500D01*
X8591006Y-5537500D02*
X8651006Y-5537500D01*
X11142400Y-5264500D02*
X11142400Y-5324500D01*
X11112400Y-5294500D02*
X11172400Y-5294500D01*
X11142400Y-5386000D02*
X11142400Y-5446000D01*
X11112400Y-5416000D02*
X11172400Y-5416000D01*
X11142400Y-5507500D02*
X11142400Y-5567500D01*
X11112400Y-5537500D02*
X11172400Y-5537500D01*
X8334981Y-9646981D02*
X8334981Y-9601019D01*
X8289019Y-9601019D01*
X8289019Y-9646981D01*
X8334981Y-9646981D01*
X8584981Y-9646981D02*
X8584981Y-9601019D01*
X8539019Y-9601019D01*
X8539019Y-9646981D01*
X8584981Y-9646981D01*
X8834981Y-9646981D02*
X8834981Y-9601019D01*
X8789019Y-9601019D01*
X8789019Y-9646981D01*
X8834981Y-9646981D01*
X9708981Y-7186981D02*
X9708981Y-7141019D01*
X9663019Y-7141019D01*
X9663019Y-7186981D01*
X9708981Y-7186981D01*
X9958981Y-7186981D02*
X9958981Y-7141019D01*
X9913019Y-7141019D01*
X9913019Y-7186981D01*
X9958981Y-7186981D01*
X10208981Y-7186981D02*
X10208981Y-7141019D01*
X10163019Y-7141019D01*
X10163019Y-7186981D01*
X10208981Y-7186981D01*
X5092000Y-7022000D02*
X5132000Y-6982000D01*
X5092000Y-6942000D01*
X5052000Y-6982000D01*
X5092000Y-7022000D01*
X5092000Y-8060000D02*
X5132000Y-8020000D01*
X5092000Y-7980000D01*
X5052000Y-8020000D01*
X5092000Y-8060000D01*
X5592000Y-7022000D02*
X5632000Y-6982000D01*
X5592000Y-6942000D01*
X5552000Y-6982000D01*
X5592000Y-7022000D01*
X5592000Y-8060000D02*
X5632000Y-8020000D01*
X5592000Y-7980000D01*
X5552000Y-8020000D01*
X5592000Y-8060000D01*
X6352557Y-6166000D02*
X6392557Y-6126000D01*
X6352557Y-6086000D01*
X6312557Y-6126000D01*
X6352557Y-6166000D01*
X6352557Y-6666000D02*
X6392557Y-6626000D01*
X6352557Y-6586000D01*
X6312557Y-6626000D01*
X6352557Y-6666000D01*
X8875006Y-6162000D02*
X8915006Y-6122000D01*
X8875006Y-6082000D01*
X8835006Y-6122000D01*
X8875006Y-6162000D01*
X8875006Y-6662000D02*
X8915006Y-6622000D01*
X8875006Y-6582000D01*
X8835006Y-6622000D01*
X8875006Y-6662000D01*
X8875006Y-7204000D02*
X8915006Y-7164000D01*
X8875006Y-7124000D01*
X8835006Y-7164000D01*
X8875006Y-7204000D01*
X8875006Y-7704000D02*
X8915006Y-7664000D01*
X8875006Y-7624000D01*
X8835006Y-7664000D01*
X8875006Y-7704000D01*
X9698000Y-11557000D02*
X9738000Y-11517000D01*
X9698000Y-11477000D01*
X9658000Y-11517000D01*
X9698000Y-11557000D01*
X10186000Y-11557000D02*
X10226000Y-11517000D01*
X10186000Y-11477000D01*
X10146000Y-11517000D01*
X10186000Y-11557000D01*
X11397800Y-6170000D02*
X11437800Y-6130000D01*
X11397800Y-6090000D01*
X11357800Y-6130000D01*
X11397800Y-6170000D01*
X11397800Y-6670000D02*
X11437800Y-6630000D01*
X11397800Y-6590000D01*
X11357800Y-6630000D01*
X11397800Y-6670000D01*
X6155500Y-9307500D02*
X6250500Y-9402500D01*
X6250500Y-9307500D02*
X6155500Y-9402500D01*
X6250500Y-9355000D02*
G75*
G02*
X6155500Y-9355000I-47500J0D01*
G01*
X6155500Y-9355000D02*
G75*
G02*
X6250500Y-9355000I47500J0D01*
G01*
X6155500Y-9557500D02*
X6250500Y-9652500D01*
X6250500Y-9557500D02*
X6155500Y-9652500D01*
X6250500Y-9605000D02*
G75*
G02*
X6155500Y-9605000I-47500J0D01*
G01*
X6155500Y-9605000D02*
G75*
G02*
X6250500Y-9605000I47500J0D01*
G01*
X6155500Y-9807500D02*
X6250500Y-9902500D01*
X6250500Y-9807500D02*
X6155500Y-9902500D01*
X6250500Y-9855000D02*
G75*
G02*
X6155500Y-9855000I-47500J0D01*
G01*
X6155500Y-9855000D02*
G75*
G02*
X6250500Y-9855000I47500J0D01*
G01*
X6155500Y-10057500D02*
X6250500Y-10152500D01*
X6250500Y-10057500D02*
X6155500Y-10152500D01*
X6250500Y-10105000D02*
G75*
G02*
X6155500Y-10105000I-47500J0D01*
G01*
X6155500Y-10105000D02*
G75*
G02*
X6250500Y-10105000I47500J0D01*
G01*
X6139757Y-4078000D02*
X6239757Y-4178000D01*
X6239757Y-4078000D02*
X6139757Y-4178000D01*
X6189757Y-4078000D02*
X6189757Y-4178000D01*
X6139757Y-4128000D02*
X6239757Y-4128000D01*
X6139757Y-4294333D02*
X6239757Y-4394333D01*
X6239757Y-4294333D02*
X6139757Y-4394333D01*
X6189757Y-4294333D02*
X6189757Y-4394333D01*
X6139757Y-4344333D02*
X6239757Y-4344333D01*
X6139757Y-4510667D02*
X6239757Y-4610667D01*
X6239757Y-4510667D02*
X6139757Y-4610667D01*
X6189757Y-4510667D02*
X6189757Y-4610667D01*
X6139757Y-4560667D02*
X6239757Y-4560667D01*
X6139757Y-4727000D02*
X6239757Y-4827000D01*
X6239757Y-4727000D02*
X6139757Y-4827000D01*
X6189757Y-4727000D02*
X6189757Y-4827000D01*
X6139757Y-4777000D02*
X6239757Y-4777000D01*
X6306557Y-4078000D02*
X6406557Y-4178000D01*
X6406557Y-4078000D02*
X6306557Y-4178000D01*
X6356557Y-4078000D02*
X6356557Y-4178000D01*
X6306557Y-4128000D02*
X6406557Y-4128000D01*
X6306557Y-4294333D02*
X6406557Y-4394333D01*
X6406557Y-4294333D02*
X6306557Y-4394333D01*
X6356557Y-4294333D02*
X6356557Y-4394333D01*
X6306557Y-4344333D02*
X6406557Y-4344333D01*
X6306557Y-4510667D02*
X6406557Y-4610667D01*
X6406557Y-4510667D02*
X6306557Y-4610667D01*
X6356557Y-4510667D02*
X6356557Y-4610667D01*
X6306557Y-4560667D02*
X6406557Y-4560667D01*
X6306557Y-4727000D02*
X6406557Y-4827000D01*
X6406557Y-4727000D02*
X6306557Y-4827000D01*
X6356557Y-4727000D02*
X6356557Y-4827000D01*
X6306557Y-4777000D02*
X6406557Y-4777000D01*
X6473357Y-4078000D02*
X6573357Y-4178000D01*
X6573357Y-4078000D02*
X6473357Y-4178000D01*
X6523357Y-4078000D02*
X6523357Y-4178000D01*
X6473357Y-4128000D02*
X6573357Y-4128000D01*
X6473357Y-4294333D02*
X6573357Y-4394333D01*
X6573357Y-4294333D02*
X6473357Y-4394333D01*
X6523357Y-4294333D02*
X6523357Y-4394333D01*
X6473357Y-4344333D02*
X6573357Y-4344333D01*
X6473357Y-4510667D02*
X6573357Y-4610667D01*
X6573357Y-4510667D02*
X6473357Y-4610667D01*
X6523357Y-4510667D02*
X6523357Y-4610667D01*
X6473357Y-4560667D02*
X6573357Y-4560667D01*
X6473357Y-4727000D02*
X6573357Y-4827000D01*
X6573357Y-4727000D02*
X6473357Y-4827000D01*
X6523357Y-4727000D02*
X6523357Y-4827000D01*
X6473357Y-4777000D02*
X6573357Y-4777000D01*
X6640157Y-4078000D02*
X6740157Y-4178000D01*
X6740157Y-4078000D02*
X6640157Y-4178000D01*
X6690157Y-4078000D02*
X6690157Y-4178000D01*
X6640157Y-4128000D02*
X6740157Y-4128000D01*
X6640157Y-4294333D02*
X6740157Y-4394333D01*
X6740157Y-4294333D02*
X6640157Y-4394333D01*
X6690157Y-4294333D02*
X6690157Y-4394333D01*
X6640157Y-4344333D02*
X6740157Y-4344333D01*
X6640157Y-4510667D02*
X6740157Y-4610667D01*
X6740157Y-4510667D02*
X6640157Y-4610667D01*
X6690157Y-4510667D02*
X6690157Y-4610667D01*
X6640157Y-4560667D02*
X6740157Y-4560667D01*
X6640157Y-4727000D02*
X6740157Y-4827000D01*
X6740157Y-4727000D02*
X6640157Y-4827000D01*
X6690157Y-4727000D02*
X6690157Y-4827000D01*
X6640157Y-4777000D02*
X6740157Y-4777000D01*
X6806957Y-4078000D02*
X6906957Y-4178000D01*
X6906957Y-4078000D02*
X6806957Y-4178000D01*
X6856957Y-4078000D02*
X6856957Y-4178000D01*
X6806957Y-4128000D02*
X6906957Y-4128000D01*
X6806957Y-4294333D02*
X6906957Y-4394333D01*
X6906957Y-4294333D02*
X6806957Y-4394333D01*
X6856957Y-4294333D02*
X6856957Y-4394333D01*
X6806957Y-4344333D02*
X6906957Y-4344333D01*
X6806957Y-4510667D02*
X6906957Y-4610667D01*
X6906957Y-4510667D02*
X6806957Y-4610667D01*
X6856957Y-4510667D02*
X6856957Y-4610667D01*
X6806957Y-4560667D02*
X6906957Y-4560667D01*
X6806957Y-4727000D02*
X6906957Y-4827000D01*
X6906957Y-4727000D02*
X6806957Y-4827000D01*
X6856957Y-4727000D02*
X6856957Y-4827000D01*
X6806957Y-4777000D02*
X6906957Y-4777000D01*
X6973757Y-4078000D02*
X7073757Y-4178000D01*
X7073757Y-4078000D02*
X6973757Y-4178000D01*
X7023757Y-4078000D02*
X7023757Y-4178000D01*
X6973757Y-4128000D02*
X7073757Y-4128000D01*
X6973757Y-4294333D02*
X7073757Y-4394333D01*
X7073757Y-4294333D02*
X6973757Y-4394333D01*
X7023757Y-4294333D02*
X7023757Y-4394333D01*
X6973757Y-4344333D02*
X7073757Y-4344333D01*
X6973757Y-4510667D02*
X7073757Y-4610667D01*
X7073757Y-4510667D02*
X6973757Y-4610667D01*
X7023757Y-4510667D02*
X7023757Y-4610667D01*
X6973757Y-4560667D02*
X7073757Y-4560667D01*
X6973757Y-4727000D02*
X7073757Y-4827000D01*
X7073757Y-4727000D02*
X6973757Y-4827000D01*
X7023757Y-4727000D02*
X7023757Y-4827000D01*
X6973757Y-4777000D02*
X7073757Y-4777000D01*
X8669006Y-4078000D02*
X8769006Y-4178000D01*
X8769006Y-4078000D02*
X8669006Y-4178000D01*
X8719006Y-4078000D02*
X8719006Y-4178000D01*
X8669006Y-4128000D02*
X8769006Y-4128000D01*
X8669006Y-4291333D02*
X8769006Y-4391333D01*
X8769006Y-4291333D02*
X8669006Y-4391333D01*
X8719006Y-4291333D02*
X8719006Y-4391333D01*
X8669006Y-4341333D02*
X8769006Y-4341333D01*
X8669006Y-4504667D02*
X8769006Y-4604667D01*
X8769006Y-4504667D02*
X8669006Y-4604667D01*
X8719006Y-4504667D02*
X8719006Y-4604667D01*
X8669006Y-4554667D02*
X8769006Y-4554667D01*
X8669006Y-4718000D02*
X8769006Y-4818000D01*
X8769006Y-4718000D02*
X8669006Y-4818000D01*
X8719006Y-4718000D02*
X8719006Y-4818000D01*
X8669006Y-4768000D02*
X8769006Y-4768000D01*
X8832606Y-4078000D02*
X8932606Y-4178000D01*
X8932606Y-4078000D02*
X8832606Y-4178000D01*
X8882606Y-4078000D02*
X8882606Y-4178000D01*
X8832606Y-4128000D02*
X8932606Y-4128000D01*
X8832606Y-4291333D02*
X8932606Y-4391333D01*
X8932606Y-4291333D02*
X8832606Y-4391333D01*
X8882606Y-4291333D02*
X8882606Y-4391333D01*
X8832606Y-4341333D02*
X8932606Y-4341333D01*
X8832606Y-4504667D02*
X8932606Y-4604667D01*
X8932606Y-4504667D02*
X8832606Y-4604667D01*
X8882606Y-4504667D02*
X8882606Y-4604667D01*
X8832606Y-4554667D02*
X8932606Y-4554667D01*
X8832606Y-4718000D02*
X8932606Y-4818000D01*
X8932606Y-4718000D02*
X8832606Y-4818000D01*
X8882606Y-4718000D02*
X8882606Y-4818000D01*
X8832606Y-4768000D02*
X8932606Y-4768000D01*
X8996206Y-4078000D02*
X9096206Y-4178000D01*
X9096206Y-4078000D02*
X8996206Y-4178000D01*
X9046206Y-4078000D02*
X9046206Y-4178000D01*
X8996206Y-4128000D02*
X9096206Y-4128000D01*
X8996206Y-4291333D02*
X9096206Y-4391333D01*
X9096206Y-4291333D02*
X8996206Y-4391333D01*
X9046206Y-4291333D02*
X9046206Y-4391333D01*
X8996206Y-4341333D02*
X9096206Y-4341333D01*
X8996206Y-4504667D02*
X9096206Y-4604667D01*
X9096206Y-4504667D02*
X8996206Y-4604667D01*
X9046206Y-4504667D02*
X9046206Y-4604667D01*
X8996206Y-4554667D02*
X9096206Y-4554667D01*
X8996206Y-4718000D02*
X9096206Y-4818000D01*
X9096206Y-4718000D02*
X8996206Y-4818000D01*
X9046206Y-4718000D02*
X9046206Y-4818000D01*
X8996206Y-4768000D02*
X9096206Y-4768000D01*
X9159806Y-4078000D02*
X9259806Y-4178000D01*
X9259806Y-4078000D02*
X9159806Y-4178000D01*
X9209806Y-4078000D02*
X9209806Y-4178000D01*
X9159806Y-4128000D02*
X9259806Y-4128000D01*
X9159806Y-4291333D02*
X9259806Y-4391333D01*
X9259806Y-4291333D02*
X9159806Y-4391333D01*
X9209806Y-4291333D02*
X9209806Y-4391333D01*
X9159806Y-4341333D02*
X9259806Y-4341333D01*
X9159806Y-4504667D02*
X9259806Y-4604667D01*
X9259806Y-4504667D02*
X9159806Y-4604667D01*
X9209806Y-4504667D02*
X9209806Y-4604667D01*
X9159806Y-4554667D02*
X9259806Y-4554667D01*
X9159806Y-4718000D02*
X9259806Y-4818000D01*
X9259806Y-4718000D02*
X9159806Y-4818000D01*
X9209806Y-4718000D02*
X9209806Y-4818000D01*
X9159806Y-4768000D02*
X9259806Y-4768000D01*
X9323406Y-4078000D02*
X9423406Y-4178000D01*
X9423406Y-4078000D02*
X9323406Y-4178000D01*
X9373406Y-4078000D02*
X9373406Y-4178000D01*
X9323406Y-4128000D02*
X9423406Y-4128000D01*
X9323406Y-4291333D02*
X9423406Y-4391333D01*
X9423406Y-4291333D02*
X9323406Y-4391333D01*
X9373406Y-4291333D02*
X9373406Y-4391333D01*
X9323406Y-4341333D02*
X9423406Y-4341333D01*
X9323406Y-4504667D02*
X9423406Y-4604667D01*
X9423406Y-4504667D02*
X9323406Y-4604667D01*
X9373406Y-4504667D02*
X9373406Y-4604667D01*
X9323406Y-4554667D02*
X9423406Y-4554667D01*
X9323406Y-4718000D02*
X9423406Y-4818000D01*
X9423406Y-4718000D02*
X9323406Y-4818000D01*
X9373406Y-4718000D02*
X9373406Y-4818000D01*
X9323406Y-4768000D02*
X9423406Y-4768000D01*
X9487006Y-4078000D02*
X9587006Y-4178000D01*
X9587006Y-4078000D02*
X9487006Y-4178000D01*
X9537006Y-4078000D02*
X9537006Y-4178000D01*
X9487006Y-4128000D02*
X9587006Y-4128000D01*
X9487006Y-4291333D02*
X9587006Y-4391333D01*
X9587006Y-4291333D02*
X9487006Y-4391333D01*
X9537006Y-4291333D02*
X9537006Y-4391333D01*
X9487006Y-4341333D02*
X9587006Y-4341333D01*
X9487006Y-4504667D02*
X9587006Y-4604667D01*
X9587006Y-4504667D02*
X9487006Y-4604667D01*
X9537006Y-4504667D02*
X9537006Y-4604667D01*
X9487006Y-4554667D02*
X9587006Y-4554667D01*
X9487006Y-4718000D02*
X9587006Y-4818000D01*
X9587006Y-4718000D02*
X9487006Y-4818000D01*
X9537006Y-4718000D02*
X9537006Y-4818000D01*
X9487006Y-4768000D02*
X9587006Y-4768000D01*
X11186000Y-4507750D02*
X11286000Y-4607750D01*
X11286000Y-4507750D02*
X11186000Y-4607750D01*
X11236000Y-4507750D02*
X11236000Y-4607750D01*
X11186000Y-4557750D02*
X11286000Y-4557750D01*
X11186000Y-4073750D02*
X11286000Y-4173750D01*
X11286000Y-4073750D02*
X11186000Y-4173750D01*
X11236000Y-4073750D02*
X11236000Y-4173750D01*
X11186000Y-4123750D02*
X11286000Y-4123750D01*
X11186000Y-4290750D02*
X11286000Y-4390750D01*
X11286000Y-4290750D02*
X11186000Y-4390750D01*
X11236000Y-4290750D02*
X11236000Y-4390750D01*
X11186000Y-4340750D02*
X11286000Y-4340750D01*
X11186000Y-4724750D02*
X11286000Y-4824750D01*
X11286000Y-4724750D02*
X11186000Y-4824750D01*
X11236000Y-4724750D02*
X11236000Y-4824750D01*
X11186000Y-4774750D02*
X11286000Y-4774750D01*
X11351400Y-4290750D02*
X11451400Y-4390750D01*
X11451400Y-4290750D02*
X11351400Y-4390750D01*
X11401400Y-4290750D02*
X11401400Y-4390750D01*
X11351400Y-4340750D02*
X11451400Y-4340750D01*
X11351400Y-4507750D02*
X11451400Y-4607750D01*
X11451400Y-4507750D02*
X11351400Y-4607750D01*
X11401400Y-4507750D02*
X11401400Y-4607750D01*
X11351400Y-4557750D02*
X11451400Y-4557750D01*
X11351400Y-4724750D02*
X11451400Y-4824750D01*
X11451400Y-4724750D02*
X11351400Y-4824750D01*
X11401400Y-4724750D02*
X11401400Y-4824750D01*
X11351400Y-4774750D02*
X11451400Y-4774750D01*
X11351400Y-4073750D02*
X11451400Y-4173750D01*
X11451400Y-4073750D02*
X11351400Y-4173750D01*
X11401400Y-4073750D02*
X11401400Y-4173750D01*
X11351400Y-4123750D02*
X11451400Y-4123750D01*
X11516800Y-4073750D02*
X11616800Y-4173750D01*
X11616800Y-4073750D02*
X11516800Y-4173750D01*
X11566800Y-4073750D02*
X11566800Y-4173750D01*
X11516800Y-4123750D02*
X11616800Y-4123750D01*
X11516800Y-4290750D02*
X11616800Y-4390750D01*
X11616800Y-4290750D02*
X11516800Y-4390750D01*
X11566800Y-4290750D02*
X11566800Y-4390750D01*
X11516800Y-4340750D02*
X11616800Y-4340750D01*
X11516800Y-4724750D02*
X11616800Y-4824750D01*
X11616800Y-4724750D02*
X11516800Y-4824750D01*
X11566800Y-4724750D02*
X11566800Y-4824750D01*
X11516800Y-4774750D02*
X11616800Y-4774750D01*
X11516800Y-4507750D02*
X11616800Y-4607750D01*
X11616800Y-4507750D02*
X11516800Y-4607750D01*
X11566800Y-4507750D02*
X11566800Y-4607750D01*
X11516800Y-4557750D02*
X11616800Y-4557750D01*
X11682200Y-4073750D02*
X11782200Y-4173750D01*
X11782200Y-4073750D02*
X11682200Y-4173750D01*
X11732200Y-4073750D02*
X11732200Y-4173750D01*
X11682200Y-4123750D02*
X11782200Y-4123750D01*
X11682200Y-4290750D02*
X11782200Y-4390750D01*
X11782200Y-4290750D02*
X11682200Y-4390750D01*
X11732200Y-4290750D02*
X11732200Y-4390750D01*
X11682200Y-4340750D02*
X11782200Y-4340750D01*
X11682200Y-4507750D02*
X11782200Y-4607750D01*
X11782200Y-4507750D02*
X11682200Y-4607750D01*
X11732200Y-4507750D02*
X11732200Y-4607750D01*
X11682200Y-4557750D02*
X11782200Y-4557750D01*
X11682200Y-4724750D02*
X11782200Y-4824750D01*
X11782200Y-4724750D02*
X11682200Y-4824750D01*
X11732200Y-4724750D02*
X11732200Y-4824750D01*
X11682200Y-4774750D02*
X11782200Y-4774750D01*
X11847600Y-4073750D02*
X11947600Y-4173750D01*
X11947600Y-4073750D02*
X11847600Y-4173750D01*
X11897600Y-4073750D02*
X11897600Y-4173750D01*
X11847600Y-4123750D02*
X11947600Y-4123750D01*
X11847600Y-4290750D02*
X11947600Y-4390750D01*
X11947600Y-4290750D02*
X11847600Y-4390750D01*
X11897600Y-4290750D02*
X11897600Y-4390750D01*
X11847600Y-4340750D02*
X11947600Y-4340750D01*
X11847600Y-4507750D02*
X11947600Y-4607750D01*
X11947600Y-4507750D02*
X11847600Y-4607750D01*
X11897600Y-4507750D02*
X11897600Y-4607750D01*
X11847600Y-4557750D02*
X11947600Y-4557750D01*
X11847600Y-4724750D02*
X11947600Y-4824750D01*
X11947600Y-4724750D02*
X11847600Y-4824750D01*
X11897600Y-4724750D02*
X11897600Y-4824750D01*
X11847600Y-4774750D02*
X11947600Y-4774750D01*
X12013000Y-4073750D02*
X12113000Y-4173750D01*
X12113000Y-4073750D02*
X12013000Y-4173750D01*
X12063000Y-4073750D02*
X12063000Y-4173750D01*
X12013000Y-4123750D02*
X12113000Y-4123750D01*
X12013000Y-4290750D02*
X12113000Y-4390750D01*
X12113000Y-4290750D02*
X12013000Y-4390750D01*
X12063000Y-4290750D02*
X12063000Y-4390750D01*
X12013000Y-4340750D02*
X12113000Y-4340750D01*
X12013000Y-4507750D02*
X12113000Y-4607750D01*
X12113000Y-4507750D02*
X12013000Y-4607750D01*
X12063000Y-4507750D02*
X12063000Y-4607750D01*
X12013000Y-4557750D02*
X12113000Y-4557750D01*
X12013000Y-4724750D02*
X12113000Y-4824750D01*
X12113000Y-4724750D02*
X12013000Y-4824750D01*
X12063000Y-4724750D02*
X12063000Y-4824750D01*
X12013000Y-4774750D02*
X12113000Y-4774750D01*
X4256000Y-8797000D02*
X4356000Y-8897000D01*
X4356000Y-8797000D02*
X4256000Y-8897000D01*
X4341356Y-8882356D02*
X4341356Y-8811644D01*
X4270644Y-8811644D01*
X4270644Y-8882356D01*
X4341356Y-8882356D01*
X4256000Y-9051000D02*
X4356000Y-9151000D01*
X4356000Y-9051000D02*
X4256000Y-9151000D01*
X4341356Y-9136356D02*
X4341356Y-9065644D01*
X4270644Y-9065644D01*
X4270644Y-9136356D01*
X4341356Y-9136356D01*
X4256000Y-9305000D02*
X4356000Y-9405000D01*
X4356000Y-9305000D02*
X4256000Y-9405000D01*
X4341356Y-9390356D02*
X4341356Y-9319644D01*
X4270644Y-9319644D01*
X4270644Y-9390356D01*
X4341356Y-9390356D01*
X4256000Y-9559000D02*
X4356000Y-9659000D01*
X4356000Y-9559000D02*
X4256000Y-9659000D01*
X4341356Y-9644356D02*
X4341356Y-9573644D01*
X4270644Y-9573644D01*
X4270644Y-9644356D01*
X4341356Y-9644356D01*
X4256000Y-9813000D02*
X4356000Y-9913000D01*
X4356000Y-9813000D02*
X4256000Y-9913000D01*
X4341356Y-9898356D02*
X4341356Y-9827644D01*
X4270644Y-9827644D01*
X4270644Y-9898356D01*
X4341356Y-9898356D01*
X4256000Y-10067000D02*
X4356000Y-10167000D01*
X4356000Y-10067000D02*
X4256000Y-10167000D01*
X4341356Y-10152356D02*
X4341356Y-10081644D01*
X4270644Y-10081644D01*
X4270644Y-10152356D01*
X4341356Y-10152356D01*
X4256000Y-10321000D02*
X4356000Y-10421000D01*
X4356000Y-10321000D02*
X4256000Y-10421000D01*
X4341356Y-10406356D02*
X4341356Y-10335644D01*
X4270644Y-10335644D01*
X4270644Y-10406356D01*
X4341356Y-10406356D01*
X4256000Y-10575000D02*
X4356000Y-10675000D01*
X4356000Y-10575000D02*
X4256000Y-10675000D01*
X4341356Y-10660356D02*
X4341356Y-10589644D01*
X4270644Y-10589644D01*
X4270644Y-10660356D01*
X4341356Y-10660356D01*
X4510000Y-8797000D02*
X4610000Y-8897000D01*
X4610000Y-8797000D02*
X4510000Y-8897000D01*
X4595356Y-8882356D02*
X4595356Y-8811644D01*
X4524644Y-8811644D01*
X4524644Y-8882356D01*
X4595356Y-8882356D01*
X4764000Y-8797000D02*
X4864000Y-8897000D01*
X4864000Y-8797000D02*
X4764000Y-8897000D01*
X4849356Y-8882356D02*
X4849356Y-8811644D01*
X4778644Y-8811644D01*
X4778644Y-8882356D01*
X4849356Y-8882356D01*
X5526000Y-8797000D02*
X5626000Y-8897000D01*
X5626000Y-8797000D02*
X5526000Y-8897000D01*
X5611356Y-8882356D02*
X5611356Y-8811644D01*
X5540644Y-8811644D01*
X5540644Y-8882356D01*
X5611356Y-8882356D01*
X5526000Y-9051000D02*
X5626000Y-9151000D01*
X5626000Y-9051000D02*
X5526000Y-9151000D01*
X5611356Y-9136356D02*
X5611356Y-9065644D01*
X5540644Y-9065644D01*
X5540644Y-9136356D01*
X5611356Y-9136356D01*
X5526000Y-9305000D02*
X5626000Y-9405000D01*
X5626000Y-9305000D02*
X5526000Y-9405000D01*
X5611356Y-9390356D02*
X5611356Y-9319644D01*
X5540644Y-9319644D01*
X5540644Y-9390356D01*
X5611356Y-9390356D01*
X5526000Y-9559000D02*
X5626000Y-9659000D01*
X5626000Y-9559000D02*
X5526000Y-9659000D01*
X5611356Y-9644356D02*
X5611356Y-9573644D01*
X5540644Y-9573644D01*
X5540644Y-9644356D01*
X5611356Y-9644356D01*
X5526000Y-9813000D02*
X5626000Y-9913000D01*
X5626000Y-9813000D02*
X5526000Y-9913000D01*
X5611356Y-9898356D02*
X5611356Y-9827644D01*
X5540644Y-9827644D01*
X5540644Y-9898356D01*
X5611356Y-9898356D01*
X5526000Y-10067000D02*
X5626000Y-10167000D01*
X5626000Y-10067000D02*
X5526000Y-10167000D01*
X5611356Y-10152356D02*
X5611356Y-10081644D01*
X5540644Y-10081644D01*
X5540644Y-10152356D01*
X5611356Y-10152356D01*
X5526000Y-10321000D02*
X5626000Y-10421000D01*
X5626000Y-10321000D02*
X5526000Y-10421000D01*
X5611356Y-10406356D02*
X5611356Y-10335644D01*
X5540644Y-10335644D01*
X5540644Y-10406356D01*
X5611356Y-10406356D01*
X5526000Y-10575000D02*
X5626000Y-10675000D01*
X5626000Y-10575000D02*
X5526000Y-10675000D01*
X5611356Y-10660356D02*
X5611356Y-10589644D01*
X5540644Y-10589644D01*
X5540644Y-10660356D01*
X5611356Y-10660356D01*
X7576000Y-11327000D02*
X7676000Y-11427000D01*
X7676000Y-11327000D02*
X7576000Y-11427000D01*
X7661356Y-11412356D02*
X7661356Y-11341644D01*
X7590644Y-11341644D01*
X7590644Y-11412356D01*
X7661356Y-11412356D01*
X7830000Y-11327000D02*
X7930000Y-11427000D01*
X7930000Y-11327000D02*
X7830000Y-11427000D01*
X7915356Y-11412356D02*
X7915356Y-11341644D01*
X7844644Y-11341644D01*
X7844644Y-11412356D01*
X7915356Y-11412356D01*
X8084000Y-11327000D02*
X8184000Y-11427000D01*
X8184000Y-11327000D02*
X8084000Y-11427000D01*
X8169356Y-11412356D02*
X8169356Y-11341644D01*
X8098644Y-11341644D01*
X8098644Y-11412356D01*
X8169356Y-11412356D01*
X8338000Y-11327000D02*
X8438000Y-11427000D01*
X8438000Y-11327000D02*
X8338000Y-11427000D01*
X8423356Y-11412356D02*
X8423356Y-11341644D01*
X8352644Y-11341644D01*
X8352644Y-11412356D01*
X8423356Y-11412356D01*
X8592000Y-11327000D02*
X8692000Y-11427000D01*
X8692000Y-11327000D02*
X8592000Y-11427000D01*
X8677356Y-11412356D02*
X8677356Y-11341644D01*
X8606644Y-11341644D01*
X8606644Y-11412356D01*
X8677356Y-11412356D01*
X8846000Y-11327000D02*
X8946000Y-11427000D01*
X8946000Y-11327000D02*
X8846000Y-11427000D01*
X8931356Y-11412356D02*
X8931356Y-11341644D01*
X8860644Y-11341644D01*
X8860644Y-11412356D01*
X8931356Y-11412356D01*
X12715000Y-9183000D02*
X12815000Y-9283000D01*
X12815000Y-9183000D02*
X12715000Y-9283000D01*
X12800356Y-9268356D02*
X12800356Y-9197644D01*
X12729644Y-9197644D01*
X12729644Y-9268356D01*
X12800356Y-9268356D01*
X12715000Y-9437000D02*
X12815000Y-9537000D01*
X12815000Y-9437000D02*
X12715000Y-9537000D01*
X12800356Y-9522356D02*
X12800356Y-9451644D01*
X12729644Y-9451644D01*
X12729644Y-9522356D01*
X12800356Y-9522356D01*
X12715000Y-9691000D02*
X12815000Y-9791000D01*
X12815000Y-9691000D02*
X12715000Y-9791000D01*
X12800356Y-9776356D02*
X12800356Y-9705644D01*
X12729644Y-9705644D01*
X12729644Y-9776356D01*
X12800356Y-9776356D01*
X12715000Y-9945000D02*
X12815000Y-10045000D01*
X12815000Y-9945000D02*
X12715000Y-10045000D01*
X12800356Y-10030356D02*
X12800356Y-9959644D01*
X12729644Y-9959644D01*
X12729644Y-10030356D01*
X12800356Y-10030356D01*
X12724000Y-7775000D02*
X12824000Y-7875000D01*
X12824000Y-7775000D02*
X12724000Y-7875000D01*
X12809356Y-7860356D02*
X12809356Y-7789644D01*
X12738644Y-7789644D01*
X12738644Y-7860356D01*
X12809356Y-7860356D01*
X12724000Y-8029000D02*
X12824000Y-8129000D01*
X12824000Y-8029000D02*
X12724000Y-8129000D01*
X12809356Y-8114356D02*
X12809356Y-8043644D01*
X12738644Y-8043644D01*
X12738644Y-8114356D01*
X12809356Y-8114356D01*
X12724000Y-8283000D02*
X12824000Y-8383000D01*
X12824000Y-8283000D02*
X12724000Y-8383000D01*
X12809356Y-8368356D02*
X12809356Y-8297644D01*
X12738644Y-8297644D01*
X12738644Y-8368356D01*
X12809356Y-8368356D01*
X12724000Y-8537000D02*
X12824000Y-8637000D01*
X12824000Y-8537000D02*
X12724000Y-8637000D01*
X12809356Y-8622356D02*
X12809356Y-8551644D01*
X12738644Y-8551644D01*
X12738644Y-8622356D01*
X12809356Y-8622356D01*
D13*
X10960000Y-11149000D02*
X11070000Y-11259000D01*
X11070000Y-11149000D02*
X10960000Y-11259000D01*
X11015000Y-11259000D02*
X11070000Y-11204000D01*
X11015000Y-11149000D01*
X10960000Y-11204000D01*
X11015000Y-11259000D01*
X10960000Y-11599000D02*
X11070000Y-11709000D01*
X11070000Y-11599000D02*
X10960000Y-11709000D01*
X11015000Y-11709000D02*
X11070000Y-11654000D01*
X11015000Y-11599000D01*
X10960000Y-11654000D01*
X11015000Y-11709000D01*
X11610000Y-11149000D02*
X11720000Y-11259000D01*
X11720000Y-11149000D02*
X11610000Y-11259000D01*
X11665000Y-11259000D02*
X11720000Y-11204000D01*
X11665000Y-11149000D01*
X11610000Y-11204000D01*
X11665000Y-11259000D01*
X11610000Y-11599000D02*
X11720000Y-11709000D01*
X11720000Y-11599000D02*
X11610000Y-11709000D01*
X11665000Y-11709000D02*
X11720000Y-11654000D01*
X11665000Y-11599000D01*
X11610000Y-11654000D01*
X11665000Y-11709000D01*
D14*
X4498000Y-5539000D02*
X4498000Y-5691000D01*
X4422000Y-5615000D02*
X4574000Y-5615000D01*
X4574000Y-5615000D02*
G75*
G02*
X4422000Y-5615000I-76000J0D01*
G01*
X4422000Y-5615000D02*
G75*
G02*
X4574000Y-5615000I76000J0D01*
G01*
X4498000Y-6047000D02*
X4498000Y-6199000D01*
X4422000Y-6123000D02*
X4574000Y-6123000D01*
X4574000Y-6123000D02*
G75*
G02*
X4422000Y-6123000I-76000J0D01*
G01*
X4422000Y-6123000D02*
G75*
G02*
X4574000Y-6123000I76000J0D01*
G01*
X5104000Y-4327000D02*
X5104000Y-4479000D01*
X5028000Y-4403000D02*
X5180000Y-4403000D01*
X5180000Y-4403000D02*
G75*
G02*
X5028000Y-4403000I-76000J0D01*
G01*
X5028000Y-4403000D02*
G75*
G02*
X5180000Y-4403000I76000J0D01*
G01*
X5612000Y-4327000D02*
X5612000Y-4479000D01*
X5536000Y-4403000D02*
X5688000Y-4403000D01*
X5688000Y-4403000D02*
G75*
G02*
X5536000Y-4403000I-76000J0D01*
G01*
X5536000Y-4403000D02*
G75*
G02*
X5688000Y-4403000I76000J0D01*
G01*
X7626449Y-4327000D02*
X7626449Y-4479000D01*
X7550449Y-4403000D02*
X7702449Y-4403000D01*
X7702449Y-4403000D02*
G75*
G02*
X7550449Y-4403000I-76000J0D01*
G01*
X7550449Y-4403000D02*
G75*
G02*
X7702449Y-4403000I76000J0D01*
G01*
X8134449Y-4327000D02*
X8134449Y-4479000D01*
X8058449Y-4403000D02*
X8210449Y-4403000D01*
X8210449Y-4403000D02*
G75*
G02*
X8058449Y-4403000I-76000J0D01*
G01*
X8058449Y-4403000D02*
G75*
G02*
X8210449Y-4403000I76000J0D01*
G01*
X10149243Y-4327000D02*
X10149243Y-4479000D01*
X10073243Y-4403000D02*
X10225243Y-4403000D01*
X10225243Y-4403000D02*
G75*
G02*
X10073243Y-4403000I-76000J0D01*
G01*
X10073243Y-4403000D02*
G75*
G02*
X10225243Y-4403000I76000J0D01*
G01*
X10657243Y-4327000D02*
X10657243Y-4479000D01*
X10581243Y-4403000D02*
X10733243Y-4403000D01*
X10733243Y-4403000D02*
G75*
G02*
X10581243Y-4403000I-76000J0D01*
G01*
X10581243Y-4403000D02*
G75*
G02*
X10733243Y-4403000I76000J0D01*
G01*
D11*
X4264277Y-12208984D02*
X4264277Y-12008984D01*
X4264277Y-12008984D02*
X4311896Y-12008984D01*
X4311896Y-12008984D02*
X4340467Y-12018508D01*
X4340467Y-12018508D02*
X4359515Y-12037555D01*
X4359515Y-12037555D02*
X4369039Y-12056603D01*
X4369039Y-12056603D02*
X4378563Y-12094698D01*
X4378563Y-12094698D02*
X4378563Y-12123269D01*
X4378563Y-12123269D02*
X4369039Y-12161365D01*
X4369039Y-12161365D02*
X4359515Y-12180412D01*
X4359515Y-12180412D02*
X4340467Y-12199460D01*
X4340467Y-12199460D02*
X4311896Y-12208984D01*
X4311896Y-12208984D02*
X4264277Y-12208984D01*
X4464277Y-12208984D02*
X4464277Y-12075650D01*
X4464277Y-12113746D02*
X4473801Y-12094698D01*
X4473801Y-12094698D02*
X4483324Y-12085174D01*
X4483324Y-12085174D02*
X4502372Y-12075650D01*
X4502372Y-12075650D02*
X4521420Y-12075650D01*
X4588086Y-12208984D02*
X4588086Y-12075650D01*
X4588086Y-12008984D02*
X4578563Y-12018508D01*
X4578563Y-12018508D02*
X4588086Y-12028031D01*
X4588086Y-12028031D02*
X4597610Y-12018508D01*
X4597610Y-12018508D02*
X4588086Y-12008984D01*
X4588086Y-12008984D02*
X4588086Y-12028031D01*
X4711896Y-12208984D02*
X4692848Y-12199460D01*
X4692848Y-12199460D02*
X4683324Y-12180412D01*
X4683324Y-12180412D02*
X4683324Y-12008984D01*
X4816658Y-12208984D02*
X4797610Y-12199460D01*
X4797610Y-12199460D02*
X4788086Y-12180412D01*
X4788086Y-12180412D02*
X4788086Y-12008984D01*
X5045229Y-12208984D02*
X5045229Y-12008984D01*
X5045229Y-12008984D02*
X5111896Y-12151841D01*
X5111896Y-12151841D02*
X5178563Y-12008984D01*
X5178563Y-12008984D02*
X5178563Y-12208984D01*
X5359515Y-12208984D02*
X5359515Y-12104222D01*
X5359515Y-12104222D02*
X5349991Y-12085174D01*
X5349991Y-12085174D02*
X5330944Y-12075650D01*
X5330944Y-12075650D02*
X5292848Y-12075650D01*
X5292848Y-12075650D02*
X5273801Y-12085174D01*
X5359515Y-12199460D02*
X5340467Y-12208984D01*
X5340467Y-12208984D02*
X5292848Y-12208984D01*
X5292848Y-12208984D02*
X5273801Y-12199460D01*
X5273801Y-12199460D02*
X5264277Y-12180412D01*
X5264277Y-12180412D02*
X5264277Y-12161365D01*
X5264277Y-12161365D02*
X5273801Y-12142317D01*
X5273801Y-12142317D02*
X5292848Y-12132793D01*
X5292848Y-12132793D02*
X5340467Y-12132793D01*
X5340467Y-12132793D02*
X5359515Y-12123269D01*
X5454753Y-12075650D02*
X5454753Y-12275650D01*
X5454753Y-12085174D02*
X5473801Y-12075650D01*
X5473801Y-12075650D02*
X5511896Y-12075650D01*
X5511896Y-12075650D02*
X5530944Y-12085174D01*
X5530944Y-12085174D02*
X5540467Y-12094698D01*
X5540467Y-12094698D02*
X5549991Y-12113746D01*
X5549991Y-12113746D02*
X5549991Y-12170888D01*
X5549991Y-12170888D02*
X5540467Y-12189936D01*
X5540467Y-12189936D02*
X5530944Y-12199460D01*
X5530944Y-12199460D02*
X5511896Y-12208984D01*
X5511896Y-12208984D02*
X5473801Y-12208984D01*
X5473801Y-12208984D02*
X5454753Y-12199460D01*
X5635705Y-12189936D02*
X5645229Y-12199460D01*
X5645229Y-12199460D02*
X5635705Y-12208984D01*
X5635705Y-12208984D02*
X5626182Y-12199460D01*
X5626182Y-12199460D02*
X5635705Y-12189936D01*
X5635705Y-12189936D02*
X5635705Y-12208984D01*
X5635705Y-12085174D02*
X5645229Y-12094698D01*
X5645229Y-12094698D02*
X5635705Y-12104222D01*
X5635705Y-12104222D02*
X5626182Y-12094698D01*
X5626182Y-12094698D02*
X5635705Y-12085174D01*
X5635705Y-12085174D02*
X5635705Y-12104222D01*
D12*
X3973500Y-12522500D02*
X4003500Y-12552500D01*
X4003500Y-12522500D02*
X3973500Y-12552500D01*
D11*
X4302372Y-12428984D02*
X4321420Y-12428984D01*
X4321420Y-12428984D02*
X4340467Y-12438508D01*
X4340467Y-12438508D02*
X4349991Y-12448031D01*
X4349991Y-12448031D02*
X4359515Y-12467079D01*
X4359515Y-12467079D02*
X4369039Y-12505174D01*
X4369039Y-12505174D02*
X4369039Y-12552793D01*
X4369039Y-12552793D02*
X4359515Y-12590888D01*
X4359515Y-12590888D02*
X4349991Y-12609936D01*
X4349991Y-12609936D02*
X4340467Y-12619460D01*
X4340467Y-12619460D02*
X4321420Y-12628984D01*
X4321420Y-12628984D02*
X4302372Y-12628984D01*
X4302372Y-12628984D02*
X4283324Y-12619460D01*
X4283324Y-12619460D02*
X4273801Y-12609936D01*
X4273801Y-12609936D02*
X4264277Y-12590888D01*
X4264277Y-12590888D02*
X4254753Y-12552793D01*
X4254753Y-12552793D02*
X4254753Y-12505174D01*
X4254753Y-12505174D02*
X4264277Y-12467079D01*
X4264277Y-12467079D02*
X4273801Y-12448031D01*
X4273801Y-12448031D02*
X4283324Y-12438508D01*
X4283324Y-12438508D02*
X4302372Y-12428984D01*
X4454753Y-12609936D02*
X4464277Y-12619460D01*
X4464277Y-12619460D02*
X4454753Y-12628984D01*
X4454753Y-12628984D02*
X4445229Y-12619460D01*
X4445229Y-12619460D02*
X4454753Y-12609936D01*
X4454753Y-12609936D02*
X4454753Y-12628984D01*
X4530944Y-12428984D02*
X4654753Y-12428984D01*
X4654753Y-12428984D02*
X4588086Y-12505174D01*
X4588086Y-12505174D02*
X4616658Y-12505174D01*
X4616658Y-12505174D02*
X4635705Y-12514698D01*
X4635705Y-12514698D02*
X4645229Y-12524222D01*
X4645229Y-12524222D02*
X4654753Y-12543269D01*
X4654753Y-12543269D02*
X4654753Y-12590888D01*
X4654753Y-12590888D02*
X4645229Y-12609936D01*
X4645229Y-12609936D02*
X4635705Y-12619460D01*
X4635705Y-12619460D02*
X4616658Y-12628984D01*
X4616658Y-12628984D02*
X4559515Y-12628984D01*
X4559515Y-12628984D02*
X4540467Y-12619460D01*
X4540467Y-12619460D02*
X4530944Y-12609936D01*
X4778563Y-12428984D02*
X4797610Y-12428984D01*
X4797610Y-12428984D02*
X4816658Y-12438508D01*
X4816658Y-12438508D02*
X4826182Y-12448031D01*
X4826182Y-12448031D02*
X4835705Y-12467079D01*
X4835705Y-12467079D02*
X4845229Y-12505174D01*
X4845229Y-12505174D02*
X4845229Y-12552793D01*
X4845229Y-12552793D02*
X4835705Y-12590888D01*
X4835705Y-12590888D02*
X4826182Y-12609936D01*
X4826182Y-12609936D02*
X4816658Y-12619460D01*
X4816658Y-12619460D02*
X4797610Y-12628984D01*
X4797610Y-12628984D02*
X4778563Y-12628984D01*
X4778563Y-12628984D02*
X4759515Y-12619460D01*
X4759515Y-12619460D02*
X4749991Y-12609936D01*
X4749991Y-12609936D02*
X4740467Y-12590888D01*
X4740467Y-12590888D02*
X4730944Y-12552793D01*
X4730944Y-12552793D02*
X4730944Y-12505174D01*
X4730944Y-12505174D02*
X4740467Y-12467079D01*
X4740467Y-12467079D02*
X4749991Y-12448031D01*
X4749991Y-12448031D02*
X4759515Y-12438508D01*
X4759515Y-12438508D02*
X4778563Y-12428984D01*
X4969039Y-12428984D02*
X4988086Y-12428984D01*
X4988086Y-12428984D02*
X5007134Y-12438508D01*
X5007134Y-12438508D02*
X5016658Y-12448031D01*
X5016658Y-12448031D02*
X5026182Y-12467079D01*
X5026182Y-12467079D02*
X5035705Y-12505174D01*
X5035705Y-12505174D02*
X5035705Y-12552793D01*
X5035705Y-12552793D02*
X5026182Y-12590888D01*
X5026182Y-12590888D02*
X5016658Y-12609936D01*
X5016658Y-12609936D02*
X5007134Y-12619460D01*
X5007134Y-12619460D02*
X4988086Y-12628984D01*
X4988086Y-12628984D02*
X4969039Y-12628984D01*
X4969039Y-12628984D02*
X4949991Y-12619460D01*
X4949991Y-12619460D02*
X4940467Y-12609936D01*
X4940467Y-12609936D02*
X4930944Y-12590888D01*
X4930944Y-12590888D02*
X4921420Y-12552793D01*
X4921420Y-12552793D02*
X4921420Y-12505174D01*
X4921420Y-12505174D02*
X4930944Y-12467079D01*
X4930944Y-12467079D02*
X4940467Y-12448031D01*
X4940467Y-12448031D02*
X4949991Y-12438508D01*
X4949991Y-12438508D02*
X4969039Y-12428984D01*
X5121420Y-12628984D02*
X5121420Y-12495650D01*
X5121420Y-12514698D02*
X5130944Y-12505174D01*
X5130944Y-12505174D02*
X5149991Y-12495650D01*
X5149991Y-12495650D02*
X5178563Y-12495650D01*
X5178563Y-12495650D02*
X5197610Y-12505174D01*
X5197610Y-12505174D02*
X5207134Y-12524222D01*
X5207134Y-12524222D02*
X5207134Y-12628984D01*
X5207134Y-12524222D02*
X5216658Y-12505174D01*
X5216658Y-12505174D02*
X5235705Y-12495650D01*
X5235705Y-12495650D02*
X5264277Y-12495650D01*
X5264277Y-12495650D02*
X5283325Y-12505174D01*
X5283325Y-12505174D02*
X5292848Y-12524222D01*
X5292848Y-12524222D02*
X5292848Y-12628984D01*
X5388086Y-12628984D02*
X5388086Y-12495650D01*
X5388086Y-12514698D02*
X5397610Y-12505174D01*
X5397610Y-12505174D02*
X5416658Y-12495650D01*
X5416658Y-12495650D02*
X5445229Y-12495650D01*
X5445229Y-12495650D02*
X5464277Y-12505174D01*
X5464277Y-12505174D02*
X5473801Y-12524222D01*
X5473801Y-12524222D02*
X5473801Y-12628984D01*
X5473801Y-12524222D02*
X5483325Y-12505174D01*
X5483325Y-12505174D02*
X5502372Y-12495650D01*
X5502372Y-12495650D02*
X5530944Y-12495650D01*
X5530944Y-12495650D02*
X5549991Y-12505174D01*
X5549991Y-12505174D02*
X5559515Y-12524222D01*
X5559515Y-12524222D02*
X5559515Y-12628984D01*
X5949991Y-12419460D02*
X5778563Y-12676603D01*
X6207134Y-12428984D02*
X6226182Y-12428984D01*
X6226182Y-12428984D02*
X6245229Y-12438508D01*
X6245229Y-12438508D02*
X6254753Y-12448031D01*
X6254753Y-12448031D02*
X6264277Y-12467079D01*
X6264277Y-12467079D02*
X6273801Y-12505174D01*
X6273801Y-12505174D02*
X6273801Y-12552793D01*
X6273801Y-12552793D02*
X6264277Y-12590888D01*
X6264277Y-12590888D02*
X6254753Y-12609936D01*
X6254753Y-12609936D02*
X6245229Y-12619460D01*
X6245229Y-12619460D02*
X6226182Y-12628984D01*
X6226182Y-12628984D02*
X6207134Y-12628984D01*
X6207134Y-12628984D02*
X6188086Y-12619460D01*
X6188086Y-12619460D02*
X6178563Y-12609936D01*
X6178563Y-12609936D02*
X6169039Y-12590888D01*
X6169039Y-12590888D02*
X6159515Y-12552793D01*
X6159515Y-12552793D02*
X6159515Y-12505174D01*
X6159515Y-12505174D02*
X6169039Y-12467079D01*
X6169039Y-12467079D02*
X6178563Y-12448031D01*
X6178563Y-12448031D02*
X6188086Y-12438508D01*
X6188086Y-12438508D02*
X6207134Y-12428984D01*
X6359515Y-12609936D02*
X6369039Y-12619460D01*
X6369039Y-12619460D02*
X6359515Y-12628984D01*
X6359515Y-12628984D02*
X6349991Y-12619460D01*
X6349991Y-12619460D02*
X6359515Y-12609936D01*
X6359515Y-12609936D02*
X6359515Y-12628984D01*
X6492848Y-12428984D02*
X6511896Y-12428984D01*
X6511896Y-12428984D02*
X6530944Y-12438508D01*
X6530944Y-12438508D02*
X6540467Y-12448031D01*
X6540467Y-12448031D02*
X6549991Y-12467079D01*
X6549991Y-12467079D02*
X6559515Y-12505174D01*
X6559515Y-12505174D02*
X6559515Y-12552793D01*
X6559515Y-12552793D02*
X6549991Y-12590888D01*
X6549991Y-12590888D02*
X6540467Y-12609936D01*
X6540467Y-12609936D02*
X6530944Y-12619460D01*
X6530944Y-12619460D02*
X6511896Y-12628984D01*
X6511896Y-12628984D02*
X6492848Y-12628984D01*
X6492848Y-12628984D02*
X6473801Y-12619460D01*
X6473801Y-12619460D02*
X6464277Y-12609936D01*
X6464277Y-12609936D02*
X6454753Y-12590888D01*
X6454753Y-12590888D02*
X6445229Y-12552793D01*
X6445229Y-12552793D02*
X6445229Y-12505174D01*
X6445229Y-12505174D02*
X6454753Y-12467079D01*
X6454753Y-12467079D02*
X6464277Y-12448031D01*
X6464277Y-12448031D02*
X6473801Y-12438508D01*
X6473801Y-12438508D02*
X6492848Y-12428984D01*
X6749991Y-12628984D02*
X6635706Y-12628984D01*
X6692848Y-12628984D02*
X6692848Y-12428984D01*
X6692848Y-12428984D02*
X6673801Y-12457555D01*
X6673801Y-12457555D02*
X6654753Y-12476603D01*
X6654753Y-12476603D02*
X6635706Y-12486127D01*
X6940467Y-12628984D02*
X6826182Y-12628984D01*
X6883325Y-12628984D02*
X6883325Y-12428984D01*
X6883325Y-12428984D02*
X6864277Y-12457555D01*
X6864277Y-12457555D02*
X6845229Y-12476603D01*
X6845229Y-12476603D02*
X6826182Y-12486127D01*
X7054753Y-12514698D02*
X7035706Y-12505174D01*
X7035706Y-12505174D02*
X7026182Y-12495650D01*
X7026182Y-12495650D02*
X7016658Y-12476603D01*
X7016658Y-12476603D02*
X7016658Y-12467079D01*
X7016658Y-12467079D02*
X7026182Y-12448031D01*
X7026182Y-12448031D02*
X7035706Y-12438508D01*
X7035706Y-12438508D02*
X7054753Y-12428984D01*
X7054753Y-12428984D02*
X7092848Y-12428984D01*
X7092848Y-12428984D02*
X7111896Y-12438508D01*
X7111896Y-12438508D02*
X7121420Y-12448031D01*
X7121420Y-12448031D02*
X7130944Y-12467079D01*
X7130944Y-12467079D02*
X7130944Y-12476603D01*
X7130944Y-12476603D02*
X7121420Y-12495650D01*
X7121420Y-12495650D02*
X7111896Y-12505174D01*
X7111896Y-12505174D02*
X7092848Y-12514698D01*
X7092848Y-12514698D02*
X7054753Y-12514698D01*
X7054753Y-12514698D02*
X7035706Y-12524222D01*
X7035706Y-12524222D02*
X7026182Y-12533746D01*
X7026182Y-12533746D02*
X7016658Y-12552793D01*
X7016658Y-12552793D02*
X7016658Y-12590888D01*
X7016658Y-12590888D02*
X7026182Y-12609936D01*
X7026182Y-12609936D02*
X7035706Y-12619460D01*
X7035706Y-12619460D02*
X7054753Y-12628984D01*
X7054753Y-12628984D02*
X7092848Y-12628984D01*
X7092848Y-12628984D02*
X7111896Y-12619460D01*
X7111896Y-12619460D02*
X7121420Y-12609936D01*
X7121420Y-12609936D02*
X7130944Y-12590888D01*
X7130944Y-12590888D02*
X7130944Y-12552793D01*
X7130944Y-12552793D02*
X7121420Y-12533746D01*
X7121420Y-12533746D02*
X7111896Y-12524222D01*
X7111896Y-12524222D02*
X7092848Y-12514698D01*
X7207134Y-12428984D02*
X7207134Y-12467079D01*
X7283325Y-12428984D02*
X7283325Y-12467079D01*
X7578563Y-12705174D02*
X7569039Y-12695650D01*
X7569039Y-12695650D02*
X7549991Y-12667079D01*
X7549991Y-12667079D02*
X7540468Y-12648031D01*
X7540468Y-12648031D02*
X7530944Y-12619460D01*
X7530944Y-12619460D02*
X7521420Y-12571841D01*
X7521420Y-12571841D02*
X7521420Y-12533746D01*
X7521420Y-12533746D02*
X7530944Y-12486127D01*
X7530944Y-12486127D02*
X7540468Y-12457555D01*
X7540468Y-12457555D02*
X7549991Y-12438508D01*
X7549991Y-12438508D02*
X7569039Y-12409936D01*
X7569039Y-12409936D02*
X7578563Y-12400412D01*
X7759515Y-12628984D02*
X7645229Y-12628984D01*
X7702372Y-12628984D02*
X7702372Y-12428984D01*
X7702372Y-12428984D02*
X7683325Y-12457555D01*
X7683325Y-12457555D02*
X7664277Y-12476603D01*
X7664277Y-12476603D02*
X7645229Y-12486127D01*
X7940468Y-12428984D02*
X7845229Y-12428984D01*
X7845229Y-12428984D02*
X7835706Y-12524222D01*
X7835706Y-12524222D02*
X7845229Y-12514698D01*
X7845229Y-12514698D02*
X7864277Y-12505174D01*
X7864277Y-12505174D02*
X7911896Y-12505174D01*
X7911896Y-12505174D02*
X7930944Y-12514698D01*
X7930944Y-12514698D02*
X7940468Y-12524222D01*
X7940468Y-12524222D02*
X7949991Y-12543269D01*
X7949991Y-12543269D02*
X7949991Y-12590888D01*
X7949991Y-12590888D02*
X7940468Y-12609936D01*
X7940468Y-12609936D02*
X7930944Y-12619460D01*
X7930944Y-12619460D02*
X7911896Y-12628984D01*
X7911896Y-12628984D02*
X7864277Y-12628984D01*
X7864277Y-12628984D02*
X7845229Y-12619460D01*
X7845229Y-12619460D02*
X7835706Y-12609936D01*
X8026182Y-12448031D02*
X8035706Y-12438508D01*
X8035706Y-12438508D02*
X8054753Y-12428984D01*
X8054753Y-12428984D02*
X8102372Y-12428984D01*
X8102372Y-12428984D02*
X8121420Y-12438508D01*
X8121420Y-12438508D02*
X8130944Y-12448031D01*
X8130944Y-12448031D02*
X8140468Y-12467079D01*
X8140468Y-12467079D02*
X8140468Y-12486127D01*
X8140468Y-12486127D02*
X8130944Y-12514698D01*
X8130944Y-12514698D02*
X8016658Y-12628984D01*
X8016658Y-12628984D02*
X8140468Y-12628984D01*
X8378563Y-12628984D02*
X8378563Y-12428984D01*
X8464277Y-12628984D02*
X8464277Y-12524222D01*
X8464277Y-12524222D02*
X8454753Y-12505174D01*
X8454753Y-12505174D02*
X8435706Y-12495650D01*
X8435706Y-12495650D02*
X8407134Y-12495650D01*
X8407134Y-12495650D02*
X8388087Y-12505174D01*
X8388087Y-12505174D02*
X8378563Y-12514698D01*
X8588087Y-12628984D02*
X8569039Y-12619460D01*
X8569039Y-12619460D02*
X8559515Y-12609936D01*
X8559515Y-12609936D02*
X8549992Y-12590888D01*
X8549992Y-12590888D02*
X8549992Y-12533746D01*
X8549992Y-12533746D02*
X8559515Y-12514698D01*
X8559515Y-12514698D02*
X8569039Y-12505174D01*
X8569039Y-12505174D02*
X8588087Y-12495650D01*
X8588087Y-12495650D02*
X8616658Y-12495650D01*
X8616658Y-12495650D02*
X8635706Y-12505174D01*
X8635706Y-12505174D02*
X8645230Y-12514698D01*
X8645230Y-12514698D02*
X8654753Y-12533746D01*
X8654753Y-12533746D02*
X8654753Y-12590888D01*
X8654753Y-12590888D02*
X8645230Y-12609936D01*
X8645230Y-12609936D02*
X8635706Y-12619460D01*
X8635706Y-12619460D02*
X8616658Y-12628984D01*
X8616658Y-12628984D02*
X8588087Y-12628984D01*
X8769039Y-12628984D02*
X8749992Y-12619460D01*
X8749992Y-12619460D02*
X8740468Y-12600412D01*
X8740468Y-12600412D02*
X8740468Y-12428984D01*
X8921420Y-12619460D02*
X8902373Y-12628984D01*
X8902373Y-12628984D02*
X8864277Y-12628984D01*
X8864277Y-12628984D02*
X8845230Y-12619460D01*
X8845230Y-12619460D02*
X8835706Y-12600412D01*
X8835706Y-12600412D02*
X8835706Y-12524222D01*
X8835706Y-12524222D02*
X8845230Y-12505174D01*
X8845230Y-12505174D02*
X8864277Y-12495650D01*
X8864277Y-12495650D02*
X8902373Y-12495650D01*
X8902373Y-12495650D02*
X8921420Y-12505174D01*
X8921420Y-12505174D02*
X8930944Y-12524222D01*
X8930944Y-12524222D02*
X8930944Y-12543269D01*
X8930944Y-12543269D02*
X8835706Y-12562317D01*
X9007134Y-12619460D02*
X9026182Y-12628984D01*
X9026182Y-12628984D02*
X9064277Y-12628984D01*
X9064277Y-12628984D02*
X9083325Y-12619460D01*
X9083325Y-12619460D02*
X9092849Y-12600412D01*
X9092849Y-12600412D02*
X9092849Y-12590888D01*
X9092849Y-12590888D02*
X9083325Y-12571841D01*
X9083325Y-12571841D02*
X9064277Y-12562317D01*
X9064277Y-12562317D02*
X9035706Y-12562317D01*
X9035706Y-12562317D02*
X9016658Y-12552793D01*
X9016658Y-12552793D02*
X9007134Y-12533746D01*
X9007134Y-12533746D02*
X9007134Y-12524222D01*
X9007134Y-12524222D02*
X9016658Y-12505174D01*
X9016658Y-12505174D02*
X9035706Y-12495650D01*
X9035706Y-12495650D02*
X9064277Y-12495650D01*
X9064277Y-12495650D02*
X9083325Y-12505174D01*
X9159515Y-12705174D02*
X9169039Y-12695650D01*
X9169039Y-12695650D02*
X9188087Y-12667079D01*
X9188087Y-12667079D02*
X9197611Y-12648031D01*
X9197611Y-12648031D02*
X9207134Y-12619460D01*
X9207134Y-12619460D02*
X9216658Y-12571841D01*
X9216658Y-12571841D02*
X9216658Y-12533746D01*
X9216658Y-12533746D02*
X9207134Y-12486127D01*
X9207134Y-12486127D02*
X9197611Y-12457555D01*
X9197611Y-12457555D02*
X9188087Y-12438508D01*
X9188087Y-12438508D02*
X9169039Y-12409936D01*
X9169039Y-12409936D02*
X9159515Y-12400412D01*
D12*
X4003500Y-12801500D02*
G75*
G02*
X3953500Y-12801500I-25000J0D01*
G01*
X3953500Y-12801500D02*
G75*
G02*
X4003500Y-12801500I25000J0D01*
G01*
D11*
X4302372Y-12692984D02*
X4321420Y-12692984D01*
X4321420Y-12692984D02*
X4340467Y-12702508D01*
X4340467Y-12702508D02*
X4349991Y-12712031D01*
X4349991Y-12712031D02*
X4359515Y-12731079D01*
X4359515Y-12731079D02*
X4369039Y-12769174D01*
X4369039Y-12769174D02*
X4369039Y-12816793D01*
X4369039Y-12816793D02*
X4359515Y-12854888D01*
X4359515Y-12854888D02*
X4349991Y-12873936D01*
X4349991Y-12873936D02*
X4340467Y-12883460D01*
X4340467Y-12883460D02*
X4321420Y-12892984D01*
X4321420Y-12892984D02*
X4302372Y-12892984D01*
X4302372Y-12892984D02*
X4283324Y-12883460D01*
X4283324Y-12883460D02*
X4273801Y-12873936D01*
X4273801Y-12873936D02*
X4264277Y-12854888D01*
X4264277Y-12854888D02*
X4254753Y-12816793D01*
X4254753Y-12816793D02*
X4254753Y-12769174D01*
X4254753Y-12769174D02*
X4264277Y-12731079D01*
X4264277Y-12731079D02*
X4273801Y-12712031D01*
X4273801Y-12712031D02*
X4283324Y-12702508D01*
X4283324Y-12702508D02*
X4302372Y-12692984D01*
X4454753Y-12873936D02*
X4464277Y-12883460D01*
X4464277Y-12883460D02*
X4454753Y-12892984D01*
X4454753Y-12892984D02*
X4445229Y-12883460D01*
X4445229Y-12883460D02*
X4454753Y-12873936D01*
X4454753Y-12873936D02*
X4454753Y-12892984D01*
X4645229Y-12692984D02*
X4549991Y-12692984D01*
X4549991Y-12692984D02*
X4540467Y-12788222D01*
X4540467Y-12788222D02*
X4549991Y-12778698D01*
X4549991Y-12778698D02*
X4569039Y-12769174D01*
X4569039Y-12769174D02*
X4616658Y-12769174D01*
X4616658Y-12769174D02*
X4635705Y-12778698D01*
X4635705Y-12778698D02*
X4645229Y-12788222D01*
X4645229Y-12788222D02*
X4654753Y-12807269D01*
X4654753Y-12807269D02*
X4654753Y-12854888D01*
X4654753Y-12854888D02*
X4645229Y-12873936D01*
X4645229Y-12873936D02*
X4635705Y-12883460D01*
X4635705Y-12883460D02*
X4616658Y-12892984D01*
X4616658Y-12892984D02*
X4569039Y-12892984D01*
X4569039Y-12892984D02*
X4549991Y-12883460D01*
X4549991Y-12883460D02*
X4540467Y-12873936D01*
X4778563Y-12692984D02*
X4797610Y-12692984D01*
X4797610Y-12692984D02*
X4816658Y-12702508D01*
X4816658Y-12702508D02*
X4826182Y-12712031D01*
X4826182Y-12712031D02*
X4835705Y-12731079D01*
X4835705Y-12731079D02*
X4845229Y-12769174D01*
X4845229Y-12769174D02*
X4845229Y-12816793D01*
X4845229Y-12816793D02*
X4835705Y-12854888D01*
X4835705Y-12854888D02*
X4826182Y-12873936D01*
X4826182Y-12873936D02*
X4816658Y-12883460D01*
X4816658Y-12883460D02*
X4797610Y-12892984D01*
X4797610Y-12892984D02*
X4778563Y-12892984D01*
X4778563Y-12892984D02*
X4759515Y-12883460D01*
X4759515Y-12883460D02*
X4749991Y-12873936D01*
X4749991Y-12873936D02*
X4740467Y-12854888D01*
X4740467Y-12854888D02*
X4730944Y-12816793D01*
X4730944Y-12816793D02*
X4730944Y-12769174D01*
X4730944Y-12769174D02*
X4740467Y-12731079D01*
X4740467Y-12731079D02*
X4749991Y-12712031D01*
X4749991Y-12712031D02*
X4759515Y-12702508D01*
X4759515Y-12702508D02*
X4778563Y-12692984D01*
X4969039Y-12692984D02*
X4988086Y-12692984D01*
X4988086Y-12692984D02*
X5007134Y-12702508D01*
X5007134Y-12702508D02*
X5016658Y-12712031D01*
X5016658Y-12712031D02*
X5026182Y-12731079D01*
X5026182Y-12731079D02*
X5035705Y-12769174D01*
X5035705Y-12769174D02*
X5035705Y-12816793D01*
X5035705Y-12816793D02*
X5026182Y-12854888D01*
X5026182Y-12854888D02*
X5016658Y-12873936D01*
X5016658Y-12873936D02*
X5007134Y-12883460D01*
X5007134Y-12883460D02*
X4988086Y-12892984D01*
X4988086Y-12892984D02*
X4969039Y-12892984D01*
X4969039Y-12892984D02*
X4949991Y-12883460D01*
X4949991Y-12883460D02*
X4940467Y-12873936D01*
X4940467Y-12873936D02*
X4930944Y-12854888D01*
X4930944Y-12854888D02*
X4921420Y-12816793D01*
X4921420Y-12816793D02*
X4921420Y-12769174D01*
X4921420Y-12769174D02*
X4930944Y-12731079D01*
X4930944Y-12731079D02*
X4940467Y-12712031D01*
X4940467Y-12712031D02*
X4949991Y-12702508D01*
X4949991Y-12702508D02*
X4969039Y-12692984D01*
X5121420Y-12892984D02*
X5121420Y-12759650D01*
X5121420Y-12778698D02*
X5130944Y-12769174D01*
X5130944Y-12769174D02*
X5149991Y-12759650D01*
X5149991Y-12759650D02*
X5178563Y-12759650D01*
X5178563Y-12759650D02*
X5197610Y-12769174D01*
X5197610Y-12769174D02*
X5207134Y-12788222D01*
X5207134Y-12788222D02*
X5207134Y-12892984D01*
X5207134Y-12788222D02*
X5216658Y-12769174D01*
X5216658Y-12769174D02*
X5235705Y-12759650D01*
X5235705Y-12759650D02*
X5264277Y-12759650D01*
X5264277Y-12759650D02*
X5283325Y-12769174D01*
X5283325Y-12769174D02*
X5292848Y-12788222D01*
X5292848Y-12788222D02*
X5292848Y-12892984D01*
X5388086Y-12892984D02*
X5388086Y-12759650D01*
X5388086Y-12778698D02*
X5397610Y-12769174D01*
X5397610Y-12769174D02*
X5416658Y-12759650D01*
X5416658Y-12759650D02*
X5445229Y-12759650D01*
X5445229Y-12759650D02*
X5464277Y-12769174D01*
X5464277Y-12769174D02*
X5473801Y-12788222D01*
X5473801Y-12788222D02*
X5473801Y-12892984D01*
X5473801Y-12788222D02*
X5483325Y-12769174D01*
X5483325Y-12769174D02*
X5502372Y-12759650D01*
X5502372Y-12759650D02*
X5530944Y-12759650D01*
X5530944Y-12759650D02*
X5549991Y-12769174D01*
X5549991Y-12769174D02*
X5559515Y-12788222D01*
X5559515Y-12788222D02*
X5559515Y-12892984D01*
X5949991Y-12683460D02*
X5778563Y-12940603D01*
X6207134Y-12692984D02*
X6226182Y-12692984D01*
X6226182Y-12692984D02*
X6245229Y-12702508D01*
X6245229Y-12702508D02*
X6254753Y-12712031D01*
X6254753Y-12712031D02*
X6264277Y-12731079D01*
X6264277Y-12731079D02*
X6273801Y-12769174D01*
X6273801Y-12769174D02*
X6273801Y-12816793D01*
X6273801Y-12816793D02*
X6264277Y-12854888D01*
X6264277Y-12854888D02*
X6254753Y-12873936D01*
X6254753Y-12873936D02*
X6245229Y-12883460D01*
X6245229Y-12883460D02*
X6226182Y-12892984D01*
X6226182Y-12892984D02*
X6207134Y-12892984D01*
X6207134Y-12892984D02*
X6188086Y-12883460D01*
X6188086Y-12883460D02*
X6178563Y-12873936D01*
X6178563Y-12873936D02*
X6169039Y-12854888D01*
X6169039Y-12854888D02*
X6159515Y-12816793D01*
X6159515Y-12816793D02*
X6159515Y-12769174D01*
X6159515Y-12769174D02*
X6169039Y-12731079D01*
X6169039Y-12731079D02*
X6178563Y-12712031D01*
X6178563Y-12712031D02*
X6188086Y-12702508D01*
X6188086Y-12702508D02*
X6207134Y-12692984D01*
X6359515Y-12873936D02*
X6369039Y-12883460D01*
X6369039Y-12883460D02*
X6359515Y-12892984D01*
X6359515Y-12892984D02*
X6349991Y-12883460D01*
X6349991Y-12883460D02*
X6359515Y-12873936D01*
X6359515Y-12873936D02*
X6359515Y-12892984D01*
X6492848Y-12692984D02*
X6511896Y-12692984D01*
X6511896Y-12692984D02*
X6530944Y-12702508D01*
X6530944Y-12702508D02*
X6540467Y-12712031D01*
X6540467Y-12712031D02*
X6549991Y-12731079D01*
X6549991Y-12731079D02*
X6559515Y-12769174D01*
X6559515Y-12769174D02*
X6559515Y-12816793D01*
X6559515Y-12816793D02*
X6549991Y-12854888D01*
X6549991Y-12854888D02*
X6540467Y-12873936D01*
X6540467Y-12873936D02*
X6530944Y-12883460D01*
X6530944Y-12883460D02*
X6511896Y-12892984D01*
X6511896Y-12892984D02*
X6492848Y-12892984D01*
X6492848Y-12892984D02*
X6473801Y-12883460D01*
X6473801Y-12883460D02*
X6464277Y-12873936D01*
X6464277Y-12873936D02*
X6454753Y-12854888D01*
X6454753Y-12854888D02*
X6445229Y-12816793D01*
X6445229Y-12816793D02*
X6445229Y-12769174D01*
X6445229Y-12769174D02*
X6454753Y-12731079D01*
X6454753Y-12731079D02*
X6464277Y-12712031D01*
X6464277Y-12712031D02*
X6473801Y-12702508D01*
X6473801Y-12702508D02*
X6492848Y-12692984D01*
X6749991Y-12892984D02*
X6635706Y-12892984D01*
X6692848Y-12892984D02*
X6692848Y-12692984D01*
X6692848Y-12692984D02*
X6673801Y-12721555D01*
X6673801Y-12721555D02*
X6654753Y-12740603D01*
X6654753Y-12740603D02*
X6635706Y-12750127D01*
X6845229Y-12892984D02*
X6883325Y-12892984D01*
X6883325Y-12892984D02*
X6902372Y-12883460D01*
X6902372Y-12883460D02*
X6911896Y-12873936D01*
X6911896Y-12873936D02*
X6930944Y-12845365D01*
X6930944Y-12845365D02*
X6940467Y-12807269D01*
X6940467Y-12807269D02*
X6940467Y-12731079D01*
X6940467Y-12731079D02*
X6930944Y-12712031D01*
X6930944Y-12712031D02*
X6921420Y-12702508D01*
X6921420Y-12702508D02*
X6902372Y-12692984D01*
X6902372Y-12692984D02*
X6864277Y-12692984D01*
X6864277Y-12692984D02*
X6845229Y-12702508D01*
X6845229Y-12702508D02*
X6835706Y-12712031D01*
X6835706Y-12712031D02*
X6826182Y-12731079D01*
X6826182Y-12731079D02*
X6826182Y-12778698D01*
X6826182Y-12778698D02*
X6835706Y-12797746D01*
X6835706Y-12797746D02*
X6845229Y-12807269D01*
X6845229Y-12807269D02*
X6864277Y-12816793D01*
X6864277Y-12816793D02*
X6902372Y-12816793D01*
X6902372Y-12816793D02*
X6921420Y-12807269D01*
X6921420Y-12807269D02*
X6930944Y-12797746D01*
X6930944Y-12797746D02*
X6940467Y-12778698D01*
X7007134Y-12692984D02*
X7140467Y-12692984D01*
X7140467Y-12692984D02*
X7054753Y-12892984D01*
X7207134Y-12692984D02*
X7207134Y-12731079D01*
X7283325Y-12692984D02*
X7283325Y-12731079D01*
X7578563Y-12969174D02*
X7569039Y-12959650D01*
X7569039Y-12959650D02*
X7549991Y-12931079D01*
X7549991Y-12931079D02*
X7540468Y-12912031D01*
X7540468Y-12912031D02*
X7530944Y-12883460D01*
X7530944Y-12883460D02*
X7521420Y-12835841D01*
X7521420Y-12835841D02*
X7521420Y-12797746D01*
X7521420Y-12797746D02*
X7530944Y-12750127D01*
X7530944Y-12750127D02*
X7540468Y-12721555D01*
X7540468Y-12721555D02*
X7549991Y-12702508D01*
X7549991Y-12702508D02*
X7569039Y-12673936D01*
X7569039Y-12673936D02*
X7578563Y-12664412D01*
X7692848Y-12692984D02*
X7711896Y-12692984D01*
X7711896Y-12692984D02*
X7730944Y-12702508D01*
X7730944Y-12702508D02*
X7740468Y-12712031D01*
X7740468Y-12712031D02*
X7749991Y-12731079D01*
X7749991Y-12731079D02*
X7759515Y-12769174D01*
X7759515Y-12769174D02*
X7759515Y-12816793D01*
X7759515Y-12816793D02*
X7749991Y-12854888D01*
X7749991Y-12854888D02*
X7740468Y-12873936D01*
X7740468Y-12873936D02*
X7730944Y-12883460D01*
X7730944Y-12883460D02*
X7711896Y-12892984D01*
X7711896Y-12892984D02*
X7692848Y-12892984D01*
X7692848Y-12892984D02*
X7673801Y-12883460D01*
X7673801Y-12883460D02*
X7664277Y-12873936D01*
X7664277Y-12873936D02*
X7654753Y-12854888D01*
X7654753Y-12854888D02*
X7645229Y-12816793D01*
X7645229Y-12816793D02*
X7645229Y-12769174D01*
X7645229Y-12769174D02*
X7654753Y-12731079D01*
X7654753Y-12731079D02*
X7664277Y-12712031D01*
X7664277Y-12712031D02*
X7673801Y-12702508D01*
X7673801Y-12702508D02*
X7692848Y-12692984D01*
X7997610Y-12892984D02*
X7997610Y-12692984D01*
X8083325Y-12892984D02*
X8083325Y-12788222D01*
X8083325Y-12788222D02*
X8073801Y-12769174D01*
X8073801Y-12769174D02*
X8054753Y-12759650D01*
X8054753Y-12759650D02*
X8026182Y-12759650D01*
X8026182Y-12759650D02*
X8007134Y-12769174D01*
X8007134Y-12769174D02*
X7997610Y-12778698D01*
X8207134Y-12892984D02*
X8188087Y-12883460D01*
X8188087Y-12883460D02*
X8178563Y-12873936D01*
X8178563Y-12873936D02*
X8169039Y-12854888D01*
X8169039Y-12854888D02*
X8169039Y-12797746D01*
X8169039Y-12797746D02*
X8178563Y-12778698D01*
X8178563Y-12778698D02*
X8188087Y-12769174D01*
X8188087Y-12769174D02*
X8207134Y-12759650D01*
X8207134Y-12759650D02*
X8235706Y-12759650D01*
X8235706Y-12759650D02*
X8254753Y-12769174D01*
X8254753Y-12769174D02*
X8264277Y-12778698D01*
X8264277Y-12778698D02*
X8273801Y-12797746D01*
X8273801Y-12797746D02*
X8273801Y-12854888D01*
X8273801Y-12854888D02*
X8264277Y-12873936D01*
X8264277Y-12873936D02*
X8254753Y-12883460D01*
X8254753Y-12883460D02*
X8235706Y-12892984D01*
X8235706Y-12892984D02*
X8207134Y-12892984D01*
X8388087Y-12892984D02*
X8369039Y-12883460D01*
X8369039Y-12883460D02*
X8359515Y-12864412D01*
X8359515Y-12864412D02*
X8359515Y-12692984D01*
X8540468Y-12883460D02*
X8521420Y-12892984D01*
X8521420Y-12892984D02*
X8483325Y-12892984D01*
X8483325Y-12892984D02*
X8464277Y-12883460D01*
X8464277Y-12883460D02*
X8454753Y-12864412D01*
X8454753Y-12864412D02*
X8454753Y-12788222D01*
X8454753Y-12788222D02*
X8464277Y-12769174D01*
X8464277Y-12769174D02*
X8483325Y-12759650D01*
X8483325Y-12759650D02*
X8521420Y-12759650D01*
X8521420Y-12759650D02*
X8540468Y-12769174D01*
X8540468Y-12769174D02*
X8549992Y-12788222D01*
X8549992Y-12788222D02*
X8549992Y-12807269D01*
X8549992Y-12807269D02*
X8454753Y-12826317D01*
X8626182Y-12883460D02*
X8645230Y-12892984D01*
X8645230Y-12892984D02*
X8683325Y-12892984D01*
X8683325Y-12892984D02*
X8702373Y-12883460D01*
X8702373Y-12883460D02*
X8711896Y-12864412D01*
X8711896Y-12864412D02*
X8711896Y-12854888D01*
X8711896Y-12854888D02*
X8702373Y-12835841D01*
X8702373Y-12835841D02*
X8683325Y-12826317D01*
X8683325Y-12826317D02*
X8654753Y-12826317D01*
X8654753Y-12826317D02*
X8635706Y-12816793D01*
X8635706Y-12816793D02*
X8626182Y-12797746D01*
X8626182Y-12797746D02*
X8626182Y-12788222D01*
X8626182Y-12788222D02*
X8635706Y-12769174D01*
X8635706Y-12769174D02*
X8654753Y-12759650D01*
X8654753Y-12759650D02*
X8683325Y-12759650D01*
X8683325Y-12759650D02*
X8702373Y-12769174D01*
X8949992Y-12816793D02*
X9102373Y-12816793D01*
X9026182Y-12892984D02*
X9026182Y-12740603D01*
X9340468Y-12712031D02*
X9349992Y-12702508D01*
X9349992Y-12702508D02*
X9369039Y-12692984D01*
X9369039Y-12692984D02*
X9416658Y-12692984D01*
X9416658Y-12692984D02*
X9435706Y-12702508D01*
X9435706Y-12702508D02*
X9445230Y-12712031D01*
X9445230Y-12712031D02*
X9454754Y-12731079D01*
X9454754Y-12731079D02*
X9454754Y-12750127D01*
X9454754Y-12750127D02*
X9445230Y-12778698D01*
X9445230Y-12778698D02*
X9330944Y-12892984D01*
X9330944Y-12892984D02*
X9454754Y-12892984D01*
X9683325Y-12883460D02*
X9702373Y-12892984D01*
X9702373Y-12892984D02*
X9740468Y-12892984D01*
X9740468Y-12892984D02*
X9759516Y-12883460D01*
X9759516Y-12883460D02*
X9769039Y-12864412D01*
X9769039Y-12864412D02*
X9769039Y-12854888D01*
X9769039Y-12854888D02*
X9759516Y-12835841D01*
X9759516Y-12835841D02*
X9740468Y-12826317D01*
X9740468Y-12826317D02*
X9711896Y-12826317D01*
X9711896Y-12826317D02*
X9692849Y-12816793D01*
X9692849Y-12816793D02*
X9683325Y-12797746D01*
X9683325Y-12797746D02*
X9683325Y-12788222D01*
X9683325Y-12788222D02*
X9692849Y-12769174D01*
X9692849Y-12769174D02*
X9711896Y-12759650D01*
X9711896Y-12759650D02*
X9740468Y-12759650D01*
X9740468Y-12759650D02*
X9759516Y-12769174D01*
X9883325Y-12892984D02*
X9864277Y-12883460D01*
X9864277Y-12883460D02*
X9854754Y-12864412D01*
X9854754Y-12864412D02*
X9854754Y-12692984D01*
X9988087Y-12892984D02*
X9969039Y-12883460D01*
X9969039Y-12883460D02*
X9959516Y-12873936D01*
X9959516Y-12873936D02*
X9949992Y-12854888D01*
X9949992Y-12854888D02*
X9949992Y-12797746D01*
X9949992Y-12797746D02*
X9959516Y-12778698D01*
X9959516Y-12778698D02*
X9969039Y-12769174D01*
X9969039Y-12769174D02*
X9988087Y-12759650D01*
X9988087Y-12759650D02*
X10016658Y-12759650D01*
X10016658Y-12759650D02*
X10035706Y-12769174D01*
X10035706Y-12769174D02*
X10045230Y-12778698D01*
X10045230Y-12778698D02*
X10054754Y-12797746D01*
X10054754Y-12797746D02*
X10054754Y-12854888D01*
X10054754Y-12854888D02*
X10045230Y-12873936D01*
X10045230Y-12873936D02*
X10035706Y-12883460D01*
X10035706Y-12883460D02*
X10016658Y-12892984D01*
X10016658Y-12892984D02*
X9988087Y-12892984D01*
X10111897Y-12759650D02*
X10188087Y-12759650D01*
X10140468Y-12692984D02*
X10140468Y-12864412D01*
X10140468Y-12864412D02*
X10149992Y-12883460D01*
X10149992Y-12883460D02*
X10169039Y-12892984D01*
X10169039Y-12892984D02*
X10188087Y-12892984D01*
X10245230Y-12883460D02*
X10264277Y-12892984D01*
X10264277Y-12892984D02*
X10302373Y-12892984D01*
X10302373Y-12892984D02*
X10321420Y-12883460D01*
X10321420Y-12883460D02*
X10330944Y-12864412D01*
X10330944Y-12864412D02*
X10330944Y-12854888D01*
X10330944Y-12854888D02*
X10321420Y-12835841D01*
X10321420Y-12835841D02*
X10302373Y-12826317D01*
X10302373Y-12826317D02*
X10273801Y-12826317D01*
X10273801Y-12826317D02*
X10254754Y-12816793D01*
X10254754Y-12816793D02*
X10245230Y-12797746D01*
X10245230Y-12797746D02*
X10245230Y-12788222D01*
X10245230Y-12788222D02*
X10254754Y-12769174D01*
X10254754Y-12769174D02*
X10273801Y-12759650D01*
X10273801Y-12759650D02*
X10302373Y-12759650D01*
X10302373Y-12759650D02*
X10321420Y-12769174D01*
X10397611Y-12969174D02*
X10407135Y-12959650D01*
X10407135Y-12959650D02*
X10426182Y-12931079D01*
X10426182Y-12931079D02*
X10435706Y-12912031D01*
X10435706Y-12912031D02*
X10445230Y-12883460D01*
X10445230Y-12883460D02*
X10454754Y-12835841D01*
X10454754Y-12835841D02*
X10454754Y-12797746D01*
X10454754Y-12797746D02*
X10445230Y-12750127D01*
X10445230Y-12750127D02*
X10435706Y-12721555D01*
X10435706Y-12721555D02*
X10426182Y-12702508D01*
X10426182Y-12702508D02*
X10407135Y-12673936D01*
X10407135Y-12673936D02*
X10397611Y-12664412D01*
D12*
X3973500Y-13035500D02*
X3973500Y-13095500D01*
X3943500Y-13065500D02*
X4003500Y-13065500D01*
D11*
X4302372Y-12956984D02*
X4321420Y-12956984D01*
X4321420Y-12956984D02*
X4340467Y-12966508D01*
X4340467Y-12966508D02*
X4349991Y-12976031D01*
X4349991Y-12976031D02*
X4359515Y-12995079D01*
X4359515Y-12995079D02*
X4369039Y-13033174D01*
X4369039Y-13033174D02*
X4369039Y-13080793D01*
X4369039Y-13080793D02*
X4359515Y-13118888D01*
X4359515Y-13118888D02*
X4349991Y-13137936D01*
X4349991Y-13137936D02*
X4340467Y-13147460D01*
X4340467Y-13147460D02*
X4321420Y-13156984D01*
X4321420Y-13156984D02*
X4302372Y-13156984D01*
X4302372Y-13156984D02*
X4283324Y-13147460D01*
X4283324Y-13147460D02*
X4273801Y-13137936D01*
X4273801Y-13137936D02*
X4264277Y-13118888D01*
X4264277Y-13118888D02*
X4254753Y-13080793D01*
X4254753Y-13080793D02*
X4254753Y-13033174D01*
X4254753Y-13033174D02*
X4264277Y-12995079D01*
X4264277Y-12995079D02*
X4273801Y-12976031D01*
X4273801Y-12976031D02*
X4283324Y-12966508D01*
X4283324Y-12966508D02*
X4302372Y-12956984D01*
X4454753Y-13137936D02*
X4464277Y-13147460D01*
X4464277Y-13147460D02*
X4454753Y-13156984D01*
X4454753Y-13156984D02*
X4445229Y-13147460D01*
X4445229Y-13147460D02*
X4454753Y-13137936D01*
X4454753Y-13137936D02*
X4454753Y-13156984D01*
X4635705Y-12956984D02*
X4597610Y-12956984D01*
X4597610Y-12956984D02*
X4578563Y-12966508D01*
X4578563Y-12966508D02*
X4569039Y-12976031D01*
X4569039Y-12976031D02*
X4549991Y-13004603D01*
X4549991Y-13004603D02*
X4540467Y-13042698D01*
X4540467Y-13042698D02*
X4540467Y-13118888D01*
X4540467Y-13118888D02*
X4549991Y-13137936D01*
X4549991Y-13137936D02*
X4559515Y-13147460D01*
X4559515Y-13147460D02*
X4578563Y-13156984D01*
X4578563Y-13156984D02*
X4616658Y-13156984D01*
X4616658Y-13156984D02*
X4635705Y-13147460D01*
X4635705Y-13147460D02*
X4645229Y-13137936D01*
X4645229Y-13137936D02*
X4654753Y-13118888D01*
X4654753Y-13118888D02*
X4654753Y-13071269D01*
X4654753Y-13071269D02*
X4645229Y-13052222D01*
X4645229Y-13052222D02*
X4635705Y-13042698D01*
X4635705Y-13042698D02*
X4616658Y-13033174D01*
X4616658Y-13033174D02*
X4578563Y-13033174D01*
X4578563Y-13033174D02*
X4559515Y-13042698D01*
X4559515Y-13042698D02*
X4549991Y-13052222D01*
X4549991Y-13052222D02*
X4540467Y-13071269D01*
X4778563Y-12956984D02*
X4797610Y-12956984D01*
X4797610Y-12956984D02*
X4816658Y-12966508D01*
X4816658Y-12966508D02*
X4826182Y-12976031D01*
X4826182Y-12976031D02*
X4835705Y-12995079D01*
X4835705Y-12995079D02*
X4845229Y-13033174D01*
X4845229Y-13033174D02*
X4845229Y-13080793D01*
X4845229Y-13080793D02*
X4835705Y-13118888D01*
X4835705Y-13118888D02*
X4826182Y-13137936D01*
X4826182Y-13137936D02*
X4816658Y-13147460D01*
X4816658Y-13147460D02*
X4797610Y-13156984D01*
X4797610Y-13156984D02*
X4778563Y-13156984D01*
X4778563Y-13156984D02*
X4759515Y-13147460D01*
X4759515Y-13147460D02*
X4749991Y-13137936D01*
X4749991Y-13137936D02*
X4740467Y-13118888D01*
X4740467Y-13118888D02*
X4730944Y-13080793D01*
X4730944Y-13080793D02*
X4730944Y-13033174D01*
X4730944Y-13033174D02*
X4740467Y-12995079D01*
X4740467Y-12995079D02*
X4749991Y-12976031D01*
X4749991Y-12976031D02*
X4759515Y-12966508D01*
X4759515Y-12966508D02*
X4778563Y-12956984D01*
X4969039Y-12956984D02*
X4988086Y-12956984D01*
X4988086Y-12956984D02*
X5007134Y-12966508D01*
X5007134Y-12966508D02*
X5016658Y-12976031D01*
X5016658Y-12976031D02*
X5026182Y-12995079D01*
X5026182Y-12995079D02*
X5035705Y-13033174D01*
X5035705Y-13033174D02*
X5035705Y-13080793D01*
X5035705Y-13080793D02*
X5026182Y-13118888D01*
X5026182Y-13118888D02*
X5016658Y-13137936D01*
X5016658Y-13137936D02*
X5007134Y-13147460D01*
X5007134Y-13147460D02*
X4988086Y-13156984D01*
X4988086Y-13156984D02*
X4969039Y-13156984D01*
X4969039Y-13156984D02*
X4949991Y-13147460D01*
X4949991Y-13147460D02*
X4940467Y-13137936D01*
X4940467Y-13137936D02*
X4930944Y-13118888D01*
X4930944Y-13118888D02*
X4921420Y-13080793D01*
X4921420Y-13080793D02*
X4921420Y-13033174D01*
X4921420Y-13033174D02*
X4930944Y-12995079D01*
X4930944Y-12995079D02*
X4940467Y-12976031D01*
X4940467Y-12976031D02*
X4949991Y-12966508D01*
X4949991Y-12966508D02*
X4969039Y-12956984D01*
X5121420Y-13156984D02*
X5121420Y-13023650D01*
X5121420Y-13042698D02*
X5130944Y-13033174D01*
X5130944Y-13033174D02*
X5149991Y-13023650D01*
X5149991Y-13023650D02*
X5178563Y-13023650D01*
X5178563Y-13023650D02*
X5197610Y-13033174D01*
X5197610Y-13033174D02*
X5207134Y-13052222D01*
X5207134Y-13052222D02*
X5207134Y-13156984D01*
X5207134Y-13052222D02*
X5216658Y-13033174D01*
X5216658Y-13033174D02*
X5235705Y-13023650D01*
X5235705Y-13023650D02*
X5264277Y-13023650D01*
X5264277Y-13023650D02*
X5283325Y-13033174D01*
X5283325Y-13033174D02*
X5292848Y-13052222D01*
X5292848Y-13052222D02*
X5292848Y-13156984D01*
X5388086Y-13156984D02*
X5388086Y-13023650D01*
X5388086Y-13042698D02*
X5397610Y-13033174D01*
X5397610Y-13033174D02*
X5416658Y-13023650D01*
X5416658Y-13023650D02*
X5445229Y-13023650D01*
X5445229Y-13023650D02*
X5464277Y-13033174D01*
X5464277Y-13033174D02*
X5473801Y-13052222D01*
X5473801Y-13052222D02*
X5473801Y-13156984D01*
X5473801Y-13052222D02*
X5483325Y-13033174D01*
X5483325Y-13033174D02*
X5502372Y-13023650D01*
X5502372Y-13023650D02*
X5530944Y-13023650D01*
X5530944Y-13023650D02*
X5549991Y-13033174D01*
X5549991Y-13033174D02*
X5559515Y-13052222D01*
X5559515Y-13052222D02*
X5559515Y-13156984D01*
X5949991Y-12947460D02*
X5778563Y-13204603D01*
X6207134Y-12956984D02*
X6226182Y-12956984D01*
X6226182Y-12956984D02*
X6245229Y-12966508D01*
X6245229Y-12966508D02*
X6254753Y-12976031D01*
X6254753Y-12976031D02*
X6264277Y-12995079D01*
X6264277Y-12995079D02*
X6273801Y-13033174D01*
X6273801Y-13033174D02*
X6273801Y-13080793D01*
X6273801Y-13080793D02*
X6264277Y-13118888D01*
X6264277Y-13118888D02*
X6254753Y-13137936D01*
X6254753Y-13137936D02*
X6245229Y-13147460D01*
X6245229Y-13147460D02*
X6226182Y-13156984D01*
X6226182Y-13156984D02*
X6207134Y-13156984D01*
X6207134Y-13156984D02*
X6188086Y-13147460D01*
X6188086Y-13147460D02*
X6178563Y-13137936D01*
X6178563Y-13137936D02*
X6169039Y-13118888D01*
X6169039Y-13118888D02*
X6159515Y-13080793D01*
X6159515Y-13080793D02*
X6159515Y-13033174D01*
X6159515Y-13033174D02*
X6169039Y-12995079D01*
X6169039Y-12995079D02*
X6178563Y-12976031D01*
X6178563Y-12976031D02*
X6188086Y-12966508D01*
X6188086Y-12966508D02*
X6207134Y-12956984D01*
X6359515Y-13137936D02*
X6369039Y-13147460D01*
X6369039Y-13147460D02*
X6359515Y-13156984D01*
X6359515Y-13156984D02*
X6349991Y-13147460D01*
X6349991Y-13147460D02*
X6359515Y-13137936D01*
X6359515Y-13137936D02*
X6359515Y-13156984D01*
X6492848Y-12956984D02*
X6511896Y-12956984D01*
X6511896Y-12956984D02*
X6530944Y-12966508D01*
X6530944Y-12966508D02*
X6540467Y-12976031D01*
X6540467Y-12976031D02*
X6549991Y-12995079D01*
X6549991Y-12995079D02*
X6559515Y-13033174D01*
X6559515Y-13033174D02*
X6559515Y-13080793D01*
X6559515Y-13080793D02*
X6549991Y-13118888D01*
X6549991Y-13118888D02*
X6540467Y-13137936D01*
X6540467Y-13137936D02*
X6530944Y-13147460D01*
X6530944Y-13147460D02*
X6511896Y-13156984D01*
X6511896Y-13156984D02*
X6492848Y-13156984D01*
X6492848Y-13156984D02*
X6473801Y-13147460D01*
X6473801Y-13147460D02*
X6464277Y-13137936D01*
X6464277Y-13137936D02*
X6454753Y-13118888D01*
X6454753Y-13118888D02*
X6445229Y-13080793D01*
X6445229Y-13080793D02*
X6445229Y-13033174D01*
X6445229Y-13033174D02*
X6454753Y-12995079D01*
X6454753Y-12995079D02*
X6464277Y-12976031D01*
X6464277Y-12976031D02*
X6473801Y-12966508D01*
X6473801Y-12966508D02*
X6492848Y-12956984D01*
X6635706Y-12976031D02*
X6645229Y-12966508D01*
X6645229Y-12966508D02*
X6664277Y-12956984D01*
X6664277Y-12956984D02*
X6711896Y-12956984D01*
X6711896Y-12956984D02*
X6730944Y-12966508D01*
X6730944Y-12966508D02*
X6740467Y-12976031D01*
X6740467Y-12976031D02*
X6749991Y-12995079D01*
X6749991Y-12995079D02*
X6749991Y-13014127D01*
X6749991Y-13014127D02*
X6740467Y-13042698D01*
X6740467Y-13042698D02*
X6626182Y-13156984D01*
X6626182Y-13156984D02*
X6749991Y-13156984D01*
X6816658Y-12956984D02*
X6940467Y-12956984D01*
X6940467Y-12956984D02*
X6873801Y-13033174D01*
X6873801Y-13033174D02*
X6902372Y-13033174D01*
X6902372Y-13033174D02*
X6921420Y-13042698D01*
X6921420Y-13042698D02*
X6930944Y-13052222D01*
X6930944Y-13052222D02*
X6940467Y-13071269D01*
X6940467Y-13071269D02*
X6940467Y-13118888D01*
X6940467Y-13118888D02*
X6930944Y-13137936D01*
X6930944Y-13137936D02*
X6921420Y-13147460D01*
X6921420Y-13147460D02*
X6902372Y-13156984D01*
X6902372Y-13156984D02*
X6845229Y-13156984D01*
X6845229Y-13156984D02*
X6826182Y-13147460D01*
X6826182Y-13147460D02*
X6816658Y-13137936D01*
X7111896Y-12956984D02*
X7073801Y-12956984D01*
X7073801Y-12956984D02*
X7054753Y-12966508D01*
X7054753Y-12966508D02*
X7045229Y-12976031D01*
X7045229Y-12976031D02*
X7026182Y-13004603D01*
X7026182Y-13004603D02*
X7016658Y-13042698D01*
X7016658Y-13042698D02*
X7016658Y-13118888D01*
X7016658Y-13118888D02*
X7026182Y-13137936D01*
X7026182Y-13137936D02*
X7035706Y-13147460D01*
X7035706Y-13147460D02*
X7054753Y-13156984D01*
X7054753Y-13156984D02*
X7092848Y-13156984D01*
X7092848Y-13156984D02*
X7111896Y-13147460D01*
X7111896Y-13147460D02*
X7121420Y-13137936D01*
X7121420Y-13137936D02*
X7130944Y-13118888D01*
X7130944Y-13118888D02*
X7130944Y-13071269D01*
X7130944Y-13071269D02*
X7121420Y-13052222D01*
X7121420Y-13052222D02*
X7111896Y-13042698D01*
X7111896Y-13042698D02*
X7092848Y-13033174D01*
X7092848Y-13033174D02*
X7054753Y-13033174D01*
X7054753Y-13033174D02*
X7035706Y-13042698D01*
X7035706Y-13042698D02*
X7026182Y-13052222D01*
X7026182Y-13052222D02*
X7016658Y-13071269D01*
X7207134Y-12956984D02*
X7207134Y-12995079D01*
X7283325Y-12956984D02*
X7283325Y-12995079D01*
X7578563Y-13233174D02*
X7569039Y-13223650D01*
X7569039Y-13223650D02*
X7549991Y-13195079D01*
X7549991Y-13195079D02*
X7540468Y-13176031D01*
X7540468Y-13176031D02*
X7530944Y-13147460D01*
X7530944Y-13147460D02*
X7521420Y-13099841D01*
X7521420Y-13099841D02*
X7521420Y-13061746D01*
X7521420Y-13061746D02*
X7530944Y-13014127D01*
X7530944Y-13014127D02*
X7540468Y-12985555D01*
X7540468Y-12985555D02*
X7549991Y-12966508D01*
X7549991Y-12966508D02*
X7569039Y-12937936D01*
X7569039Y-12937936D02*
X7578563Y-12928412D01*
X7664277Y-13156984D02*
X7702372Y-13156984D01*
X7702372Y-13156984D02*
X7721420Y-13147460D01*
X7721420Y-13147460D02*
X7730944Y-13137936D01*
X7730944Y-13137936D02*
X7749991Y-13109365D01*
X7749991Y-13109365D02*
X7759515Y-13071269D01*
X7759515Y-13071269D02*
X7759515Y-12995079D01*
X7759515Y-12995079D02*
X7749991Y-12976031D01*
X7749991Y-12976031D02*
X7740468Y-12966508D01*
X7740468Y-12966508D02*
X7721420Y-12956984D01*
X7721420Y-12956984D02*
X7683325Y-12956984D01*
X7683325Y-12956984D02*
X7664277Y-12966508D01*
X7664277Y-12966508D02*
X7654753Y-12976031D01*
X7654753Y-12976031D02*
X7645229Y-12995079D01*
X7645229Y-12995079D02*
X7645229Y-13042698D01*
X7645229Y-13042698D02*
X7654753Y-13061746D01*
X7654753Y-13061746D02*
X7664277Y-13071269D01*
X7664277Y-13071269D02*
X7683325Y-13080793D01*
X7683325Y-13080793D02*
X7721420Y-13080793D01*
X7721420Y-13080793D02*
X7740468Y-13071269D01*
X7740468Y-13071269D02*
X7749991Y-13061746D01*
X7749991Y-13061746D02*
X7759515Y-13042698D01*
X7997610Y-13156984D02*
X7997610Y-12956984D01*
X8083325Y-13156984D02*
X8083325Y-13052222D01*
X8083325Y-13052222D02*
X8073801Y-13033174D01*
X8073801Y-13033174D02*
X8054753Y-13023650D01*
X8054753Y-13023650D02*
X8026182Y-13023650D01*
X8026182Y-13023650D02*
X8007134Y-13033174D01*
X8007134Y-13033174D02*
X7997610Y-13042698D01*
X8207134Y-13156984D02*
X8188087Y-13147460D01*
X8188087Y-13147460D02*
X8178563Y-13137936D01*
X8178563Y-13137936D02*
X8169039Y-13118888D01*
X8169039Y-13118888D02*
X8169039Y-13061746D01*
X8169039Y-13061746D02*
X8178563Y-13042698D01*
X8178563Y-13042698D02*
X8188087Y-13033174D01*
X8188087Y-13033174D02*
X8207134Y-13023650D01*
X8207134Y-13023650D02*
X8235706Y-13023650D01*
X8235706Y-13023650D02*
X8254753Y-13033174D01*
X8254753Y-13033174D02*
X8264277Y-13042698D01*
X8264277Y-13042698D02*
X8273801Y-13061746D01*
X8273801Y-13061746D02*
X8273801Y-13118888D01*
X8273801Y-13118888D02*
X8264277Y-13137936D01*
X8264277Y-13137936D02*
X8254753Y-13147460D01*
X8254753Y-13147460D02*
X8235706Y-13156984D01*
X8235706Y-13156984D02*
X8207134Y-13156984D01*
X8388087Y-13156984D02*
X8369039Y-13147460D01*
X8369039Y-13147460D02*
X8359515Y-13128412D01*
X8359515Y-13128412D02*
X8359515Y-12956984D01*
X8540468Y-13147460D02*
X8521420Y-13156984D01*
X8521420Y-13156984D02*
X8483325Y-13156984D01*
X8483325Y-13156984D02*
X8464277Y-13147460D01*
X8464277Y-13147460D02*
X8454753Y-13128412D01*
X8454753Y-13128412D02*
X8454753Y-13052222D01*
X8454753Y-13052222D02*
X8464277Y-13033174D01*
X8464277Y-13033174D02*
X8483325Y-13023650D01*
X8483325Y-13023650D02*
X8521420Y-13023650D01*
X8521420Y-13023650D02*
X8540468Y-13033174D01*
X8540468Y-13033174D02*
X8549992Y-13052222D01*
X8549992Y-13052222D02*
X8549992Y-13071269D01*
X8549992Y-13071269D02*
X8454753Y-13090317D01*
X8626182Y-13147460D02*
X8645230Y-13156984D01*
X8645230Y-13156984D02*
X8683325Y-13156984D01*
X8683325Y-13156984D02*
X8702373Y-13147460D01*
X8702373Y-13147460D02*
X8711896Y-13128412D01*
X8711896Y-13128412D02*
X8711896Y-13118888D01*
X8711896Y-13118888D02*
X8702373Y-13099841D01*
X8702373Y-13099841D02*
X8683325Y-13090317D01*
X8683325Y-13090317D02*
X8654753Y-13090317D01*
X8654753Y-13090317D02*
X8635706Y-13080793D01*
X8635706Y-13080793D02*
X8626182Y-13061746D01*
X8626182Y-13061746D02*
X8626182Y-13052222D01*
X8626182Y-13052222D02*
X8635706Y-13033174D01*
X8635706Y-13033174D02*
X8654753Y-13023650D01*
X8654753Y-13023650D02*
X8683325Y-13023650D01*
X8683325Y-13023650D02*
X8702373Y-13033174D01*
X8778563Y-13233174D02*
X8788087Y-13223650D01*
X8788087Y-13223650D02*
X8807134Y-13195079D01*
X8807134Y-13195079D02*
X8816658Y-13176031D01*
X8816658Y-13176031D02*
X8826182Y-13147460D01*
X8826182Y-13147460D02*
X8835706Y-13099841D01*
X8835706Y-13099841D02*
X8835706Y-13061746D01*
X8835706Y-13061746D02*
X8826182Y-13014127D01*
X8826182Y-13014127D02*
X8816658Y-12985555D01*
X8816658Y-12985555D02*
X8807134Y-12966508D01*
X8807134Y-12966508D02*
X8788087Y-12937936D01*
X8788087Y-12937936D02*
X8778563Y-12928412D01*
D12*
X3993981Y-13352481D02*
X3993981Y-13306519D01*
X3948019Y-13306519D01*
X3948019Y-13352481D01*
X3993981Y-13352481D01*
D11*
X4302372Y-13220984D02*
X4321420Y-13220984D01*
X4321420Y-13220984D02*
X4340467Y-13230508D01*
X4340467Y-13230508D02*
X4349991Y-13240031D01*
X4349991Y-13240031D02*
X4359515Y-13259079D01*
X4359515Y-13259079D02*
X4369039Y-13297174D01*
X4369039Y-13297174D02*
X4369039Y-13344793D01*
X4369039Y-13344793D02*
X4359515Y-13382888D01*
X4359515Y-13382888D02*
X4349991Y-13401936D01*
X4349991Y-13401936D02*
X4340467Y-13411460D01*
X4340467Y-13411460D02*
X4321420Y-13420984D01*
X4321420Y-13420984D02*
X4302372Y-13420984D01*
X4302372Y-13420984D02*
X4283324Y-13411460D01*
X4283324Y-13411460D02*
X4273801Y-13401936D01*
X4273801Y-13401936D02*
X4264277Y-13382888D01*
X4264277Y-13382888D02*
X4254753Y-13344793D01*
X4254753Y-13344793D02*
X4254753Y-13297174D01*
X4254753Y-13297174D02*
X4264277Y-13259079D01*
X4264277Y-13259079D02*
X4273801Y-13240031D01*
X4273801Y-13240031D02*
X4283324Y-13230508D01*
X4283324Y-13230508D02*
X4302372Y-13220984D01*
X4454753Y-13401936D02*
X4464277Y-13411460D01*
X4464277Y-13411460D02*
X4454753Y-13420984D01*
X4454753Y-13420984D02*
X4445229Y-13411460D01*
X4445229Y-13411460D02*
X4454753Y-13401936D01*
X4454753Y-13401936D02*
X4454753Y-13420984D01*
X4635705Y-13220984D02*
X4597610Y-13220984D01*
X4597610Y-13220984D02*
X4578563Y-13230508D01*
X4578563Y-13230508D02*
X4569039Y-13240031D01*
X4569039Y-13240031D02*
X4549991Y-13268603D01*
X4549991Y-13268603D02*
X4540467Y-13306698D01*
X4540467Y-13306698D02*
X4540467Y-13382888D01*
X4540467Y-13382888D02*
X4549991Y-13401936D01*
X4549991Y-13401936D02*
X4559515Y-13411460D01*
X4559515Y-13411460D02*
X4578563Y-13420984D01*
X4578563Y-13420984D02*
X4616658Y-13420984D01*
X4616658Y-13420984D02*
X4635705Y-13411460D01*
X4635705Y-13411460D02*
X4645229Y-13401936D01*
X4645229Y-13401936D02*
X4654753Y-13382888D01*
X4654753Y-13382888D02*
X4654753Y-13335269D01*
X4654753Y-13335269D02*
X4645229Y-13316222D01*
X4645229Y-13316222D02*
X4635705Y-13306698D01*
X4635705Y-13306698D02*
X4616658Y-13297174D01*
X4616658Y-13297174D02*
X4578563Y-13297174D01*
X4578563Y-13297174D02*
X4559515Y-13306698D01*
X4559515Y-13306698D02*
X4549991Y-13316222D01*
X4549991Y-13316222D02*
X4540467Y-13335269D01*
X4835705Y-13220984D02*
X4740467Y-13220984D01*
X4740467Y-13220984D02*
X4730944Y-13316222D01*
X4730944Y-13316222D02*
X4740467Y-13306698D01*
X4740467Y-13306698D02*
X4759515Y-13297174D01*
X4759515Y-13297174D02*
X4807134Y-13297174D01*
X4807134Y-13297174D02*
X4826182Y-13306698D01*
X4826182Y-13306698D02*
X4835705Y-13316222D01*
X4835705Y-13316222D02*
X4845229Y-13335269D01*
X4845229Y-13335269D02*
X4845229Y-13382888D01*
X4845229Y-13382888D02*
X4835705Y-13401936D01*
X4835705Y-13401936D02*
X4826182Y-13411460D01*
X4826182Y-13411460D02*
X4807134Y-13420984D01*
X4807134Y-13420984D02*
X4759515Y-13420984D01*
X4759515Y-13420984D02*
X4740467Y-13411460D01*
X4740467Y-13411460D02*
X4730944Y-13401936D01*
X4969039Y-13220984D02*
X4988086Y-13220984D01*
X4988086Y-13220984D02*
X5007134Y-13230508D01*
X5007134Y-13230508D02*
X5016658Y-13240031D01*
X5016658Y-13240031D02*
X5026182Y-13259079D01*
X5026182Y-13259079D02*
X5035705Y-13297174D01*
X5035705Y-13297174D02*
X5035705Y-13344793D01*
X5035705Y-13344793D02*
X5026182Y-13382888D01*
X5026182Y-13382888D02*
X5016658Y-13401936D01*
X5016658Y-13401936D02*
X5007134Y-13411460D01*
X5007134Y-13411460D02*
X4988086Y-13420984D01*
X4988086Y-13420984D02*
X4969039Y-13420984D01*
X4969039Y-13420984D02*
X4949991Y-13411460D01*
X4949991Y-13411460D02*
X4940467Y-13401936D01*
X4940467Y-13401936D02*
X4930944Y-13382888D01*
X4930944Y-13382888D02*
X4921420Y-13344793D01*
X4921420Y-13344793D02*
X4921420Y-13297174D01*
X4921420Y-13297174D02*
X4930944Y-13259079D01*
X4930944Y-13259079D02*
X4940467Y-13240031D01*
X4940467Y-13240031D02*
X4949991Y-13230508D01*
X4949991Y-13230508D02*
X4969039Y-13220984D01*
X5121420Y-13420984D02*
X5121420Y-13287650D01*
X5121420Y-13306698D02*
X5130944Y-13297174D01*
X5130944Y-13297174D02*
X5149991Y-13287650D01*
X5149991Y-13287650D02*
X5178563Y-13287650D01*
X5178563Y-13287650D02*
X5197610Y-13297174D01*
X5197610Y-13297174D02*
X5207134Y-13316222D01*
X5207134Y-13316222D02*
X5207134Y-13420984D01*
X5207134Y-13316222D02*
X5216658Y-13297174D01*
X5216658Y-13297174D02*
X5235705Y-13287650D01*
X5235705Y-13287650D02*
X5264277Y-13287650D01*
X5264277Y-13287650D02*
X5283325Y-13297174D01*
X5283325Y-13297174D02*
X5292848Y-13316222D01*
X5292848Y-13316222D02*
X5292848Y-13420984D01*
X5388086Y-13420984D02*
X5388086Y-13287650D01*
X5388086Y-13306698D02*
X5397610Y-13297174D01*
X5397610Y-13297174D02*
X5416658Y-13287650D01*
X5416658Y-13287650D02*
X5445229Y-13287650D01*
X5445229Y-13287650D02*
X5464277Y-13297174D01*
X5464277Y-13297174D02*
X5473801Y-13316222D01*
X5473801Y-13316222D02*
X5473801Y-13420984D01*
X5473801Y-13316222D02*
X5483325Y-13297174D01*
X5483325Y-13297174D02*
X5502372Y-13287650D01*
X5502372Y-13287650D02*
X5530944Y-13287650D01*
X5530944Y-13287650D02*
X5549991Y-13297174D01*
X5549991Y-13297174D02*
X5559515Y-13316222D01*
X5559515Y-13316222D02*
X5559515Y-13420984D01*
X5949991Y-13211460D02*
X5778563Y-13468603D01*
X6207134Y-13220984D02*
X6226182Y-13220984D01*
X6226182Y-13220984D02*
X6245229Y-13230508D01*
X6245229Y-13230508D02*
X6254753Y-13240031D01*
X6254753Y-13240031D02*
X6264277Y-13259079D01*
X6264277Y-13259079D02*
X6273801Y-13297174D01*
X6273801Y-13297174D02*
X6273801Y-13344793D01*
X6273801Y-13344793D02*
X6264277Y-13382888D01*
X6264277Y-13382888D02*
X6254753Y-13401936D01*
X6254753Y-13401936D02*
X6245229Y-13411460D01*
X6245229Y-13411460D02*
X6226182Y-13420984D01*
X6226182Y-13420984D02*
X6207134Y-13420984D01*
X6207134Y-13420984D02*
X6188086Y-13411460D01*
X6188086Y-13411460D02*
X6178563Y-13401936D01*
X6178563Y-13401936D02*
X6169039Y-13382888D01*
X6169039Y-13382888D02*
X6159515Y-13344793D01*
X6159515Y-13344793D02*
X6159515Y-13297174D01*
X6159515Y-13297174D02*
X6169039Y-13259079D01*
X6169039Y-13259079D02*
X6178563Y-13240031D01*
X6178563Y-13240031D02*
X6188086Y-13230508D01*
X6188086Y-13230508D02*
X6207134Y-13220984D01*
X6359515Y-13401936D02*
X6369039Y-13411460D01*
X6369039Y-13411460D02*
X6359515Y-13420984D01*
X6359515Y-13420984D02*
X6349991Y-13411460D01*
X6349991Y-13411460D02*
X6359515Y-13401936D01*
X6359515Y-13401936D02*
X6359515Y-13420984D01*
X6492848Y-13220984D02*
X6511896Y-13220984D01*
X6511896Y-13220984D02*
X6530944Y-13230508D01*
X6530944Y-13230508D02*
X6540467Y-13240031D01*
X6540467Y-13240031D02*
X6549991Y-13259079D01*
X6549991Y-13259079D02*
X6559515Y-13297174D01*
X6559515Y-13297174D02*
X6559515Y-13344793D01*
X6559515Y-13344793D02*
X6549991Y-13382888D01*
X6549991Y-13382888D02*
X6540467Y-13401936D01*
X6540467Y-13401936D02*
X6530944Y-13411460D01*
X6530944Y-13411460D02*
X6511896Y-13420984D01*
X6511896Y-13420984D02*
X6492848Y-13420984D01*
X6492848Y-13420984D02*
X6473801Y-13411460D01*
X6473801Y-13411460D02*
X6464277Y-13401936D01*
X6464277Y-13401936D02*
X6454753Y-13382888D01*
X6454753Y-13382888D02*
X6445229Y-13344793D01*
X6445229Y-13344793D02*
X6445229Y-13297174D01*
X6445229Y-13297174D02*
X6454753Y-13259079D01*
X6454753Y-13259079D02*
X6464277Y-13240031D01*
X6464277Y-13240031D02*
X6473801Y-13230508D01*
X6473801Y-13230508D02*
X6492848Y-13220984D01*
X6635706Y-13240031D02*
X6645229Y-13230508D01*
X6645229Y-13230508D02*
X6664277Y-13220984D01*
X6664277Y-13220984D02*
X6711896Y-13220984D01*
X6711896Y-13220984D02*
X6730944Y-13230508D01*
X6730944Y-13230508D02*
X6740467Y-13240031D01*
X6740467Y-13240031D02*
X6749991Y-13259079D01*
X6749991Y-13259079D02*
X6749991Y-13278127D01*
X6749991Y-13278127D02*
X6740467Y-13306698D01*
X6740467Y-13306698D02*
X6626182Y-13420984D01*
X6626182Y-13420984D02*
X6749991Y-13420984D01*
X6930944Y-13220984D02*
X6835706Y-13220984D01*
X6835706Y-13220984D02*
X6826182Y-13316222D01*
X6826182Y-13316222D02*
X6835706Y-13306698D01*
X6835706Y-13306698D02*
X6854753Y-13297174D01*
X6854753Y-13297174D02*
X6902372Y-13297174D01*
X6902372Y-13297174D02*
X6921420Y-13306698D01*
X6921420Y-13306698D02*
X6930944Y-13316222D01*
X6930944Y-13316222D02*
X6940467Y-13335269D01*
X6940467Y-13335269D02*
X6940467Y-13382888D01*
X6940467Y-13382888D02*
X6930944Y-13401936D01*
X6930944Y-13401936D02*
X6921420Y-13411460D01*
X6921420Y-13411460D02*
X6902372Y-13420984D01*
X6902372Y-13420984D02*
X6854753Y-13420984D01*
X6854753Y-13420984D02*
X6835706Y-13411460D01*
X6835706Y-13411460D02*
X6826182Y-13401936D01*
X7111896Y-13220984D02*
X7073801Y-13220984D01*
X7073801Y-13220984D02*
X7054753Y-13230508D01*
X7054753Y-13230508D02*
X7045229Y-13240031D01*
X7045229Y-13240031D02*
X7026182Y-13268603D01*
X7026182Y-13268603D02*
X7016658Y-13306698D01*
X7016658Y-13306698D02*
X7016658Y-13382888D01*
X7016658Y-13382888D02*
X7026182Y-13401936D01*
X7026182Y-13401936D02*
X7035706Y-13411460D01*
X7035706Y-13411460D02*
X7054753Y-13420984D01*
X7054753Y-13420984D02*
X7092848Y-13420984D01*
X7092848Y-13420984D02*
X7111896Y-13411460D01*
X7111896Y-13411460D02*
X7121420Y-13401936D01*
X7121420Y-13401936D02*
X7130944Y-13382888D01*
X7130944Y-13382888D02*
X7130944Y-13335269D01*
X7130944Y-13335269D02*
X7121420Y-13316222D01*
X7121420Y-13316222D02*
X7111896Y-13306698D01*
X7111896Y-13306698D02*
X7092848Y-13297174D01*
X7092848Y-13297174D02*
X7054753Y-13297174D01*
X7054753Y-13297174D02*
X7035706Y-13306698D01*
X7035706Y-13306698D02*
X7026182Y-13316222D01*
X7026182Y-13316222D02*
X7016658Y-13335269D01*
X7207134Y-13220984D02*
X7207134Y-13259079D01*
X7283325Y-13220984D02*
X7283325Y-13259079D01*
X7578563Y-13497174D02*
X7569039Y-13487650D01*
X7569039Y-13487650D02*
X7549991Y-13459079D01*
X7549991Y-13459079D02*
X7540468Y-13440031D01*
X7540468Y-13440031D02*
X7530944Y-13411460D01*
X7530944Y-13411460D02*
X7521420Y-13363841D01*
X7521420Y-13363841D02*
X7521420Y-13325746D01*
X7521420Y-13325746D02*
X7530944Y-13278127D01*
X7530944Y-13278127D02*
X7540468Y-13249555D01*
X7540468Y-13249555D02*
X7549991Y-13230508D01*
X7549991Y-13230508D02*
X7569039Y-13201936D01*
X7569039Y-13201936D02*
X7578563Y-13192412D01*
X7740468Y-13220984D02*
X7702372Y-13220984D01*
X7702372Y-13220984D02*
X7683325Y-13230508D01*
X7683325Y-13230508D02*
X7673801Y-13240031D01*
X7673801Y-13240031D02*
X7654753Y-13268603D01*
X7654753Y-13268603D02*
X7645229Y-13306698D01*
X7645229Y-13306698D02*
X7645229Y-13382888D01*
X7645229Y-13382888D02*
X7654753Y-13401936D01*
X7654753Y-13401936D02*
X7664277Y-13411460D01*
X7664277Y-13411460D02*
X7683325Y-13420984D01*
X7683325Y-13420984D02*
X7721420Y-13420984D01*
X7721420Y-13420984D02*
X7740468Y-13411460D01*
X7740468Y-13411460D02*
X7749991Y-13401936D01*
X7749991Y-13401936D02*
X7759515Y-13382888D01*
X7759515Y-13382888D02*
X7759515Y-13335269D01*
X7759515Y-13335269D02*
X7749991Y-13316222D01*
X7749991Y-13316222D02*
X7740468Y-13306698D01*
X7740468Y-13306698D02*
X7721420Y-13297174D01*
X7721420Y-13297174D02*
X7683325Y-13297174D01*
X7683325Y-13297174D02*
X7664277Y-13306698D01*
X7664277Y-13306698D02*
X7654753Y-13316222D01*
X7654753Y-13316222D02*
X7645229Y-13335269D01*
X7997610Y-13420984D02*
X7997610Y-13220984D01*
X8083325Y-13420984D02*
X8083325Y-13316222D01*
X8083325Y-13316222D02*
X8073801Y-13297174D01*
X8073801Y-13297174D02*
X8054753Y-13287650D01*
X8054753Y-13287650D02*
X8026182Y-13287650D01*
X8026182Y-13287650D02*
X8007134Y-13297174D01*
X8007134Y-13297174D02*
X7997610Y-13306698D01*
X8207134Y-13420984D02*
X8188087Y-13411460D01*
X8188087Y-13411460D02*
X8178563Y-13401936D01*
X8178563Y-13401936D02*
X8169039Y-13382888D01*
X8169039Y-13382888D02*
X8169039Y-13325746D01*
X8169039Y-13325746D02*
X8178563Y-13306698D01*
X8178563Y-13306698D02*
X8188087Y-13297174D01*
X8188087Y-13297174D02*
X8207134Y-13287650D01*
X8207134Y-13287650D02*
X8235706Y-13287650D01*
X8235706Y-13287650D02*
X8254753Y-13297174D01*
X8254753Y-13297174D02*
X8264277Y-13306698D01*
X8264277Y-13306698D02*
X8273801Y-13325746D01*
X8273801Y-13325746D02*
X8273801Y-13382888D01*
X8273801Y-13382888D02*
X8264277Y-13401936D01*
X8264277Y-13401936D02*
X8254753Y-13411460D01*
X8254753Y-13411460D02*
X8235706Y-13420984D01*
X8235706Y-13420984D02*
X8207134Y-13420984D01*
X8388087Y-13420984D02*
X8369039Y-13411460D01*
X8369039Y-13411460D02*
X8359515Y-13392412D01*
X8359515Y-13392412D02*
X8359515Y-13220984D01*
X8540468Y-13411460D02*
X8521420Y-13420984D01*
X8521420Y-13420984D02*
X8483325Y-13420984D01*
X8483325Y-13420984D02*
X8464277Y-13411460D01*
X8464277Y-13411460D02*
X8454753Y-13392412D01*
X8454753Y-13392412D02*
X8454753Y-13316222D01*
X8454753Y-13316222D02*
X8464277Y-13297174D01*
X8464277Y-13297174D02*
X8483325Y-13287650D01*
X8483325Y-13287650D02*
X8521420Y-13287650D01*
X8521420Y-13287650D02*
X8540468Y-13297174D01*
X8540468Y-13297174D02*
X8549992Y-13316222D01*
X8549992Y-13316222D02*
X8549992Y-13335269D01*
X8549992Y-13335269D02*
X8454753Y-13354317D01*
X8626182Y-13411460D02*
X8645230Y-13420984D01*
X8645230Y-13420984D02*
X8683325Y-13420984D01*
X8683325Y-13420984D02*
X8702373Y-13411460D01*
X8702373Y-13411460D02*
X8711896Y-13392412D01*
X8711896Y-13392412D02*
X8711896Y-13382888D01*
X8711896Y-13382888D02*
X8702373Y-13363841D01*
X8702373Y-13363841D02*
X8683325Y-13354317D01*
X8683325Y-13354317D02*
X8654753Y-13354317D01*
X8654753Y-13354317D02*
X8635706Y-13344793D01*
X8635706Y-13344793D02*
X8626182Y-13325746D01*
X8626182Y-13325746D02*
X8626182Y-13316222D01*
X8626182Y-13316222D02*
X8635706Y-13297174D01*
X8635706Y-13297174D02*
X8654753Y-13287650D01*
X8654753Y-13287650D02*
X8683325Y-13287650D01*
X8683325Y-13287650D02*
X8702373Y-13297174D01*
X8778563Y-13497174D02*
X8788087Y-13487650D01*
X8788087Y-13487650D02*
X8807134Y-13459079D01*
X8807134Y-13459079D02*
X8816658Y-13440031D01*
X8816658Y-13440031D02*
X8826182Y-13411460D01*
X8826182Y-13411460D02*
X8835706Y-13363841D01*
X8835706Y-13363841D02*
X8835706Y-13325746D01*
X8835706Y-13325746D02*
X8826182Y-13278127D01*
X8826182Y-13278127D02*
X8816658Y-13249555D01*
X8816658Y-13249555D02*
X8807134Y-13230508D01*
X8807134Y-13230508D02*
X8788087Y-13201936D01*
X8788087Y-13201936D02*
X8778563Y-13192412D01*
D12*
X3963500Y-13633500D02*
X4003500Y-13593500D01*
X3963500Y-13553500D01*
X3923500Y-13593500D01*
X3963500Y-13633500D01*
D11*
X4302372Y-13484984D02*
X4321420Y-13484984D01*
X4321420Y-13484984D02*
X4340467Y-13494508D01*
X4340467Y-13494508D02*
X4349991Y-13504031D01*
X4349991Y-13504031D02*
X4359515Y-13523079D01*
X4359515Y-13523079D02*
X4369039Y-13561174D01*
X4369039Y-13561174D02*
X4369039Y-13608793D01*
X4369039Y-13608793D02*
X4359515Y-13646888D01*
X4359515Y-13646888D02*
X4349991Y-13665936D01*
X4349991Y-13665936D02*
X4340467Y-13675460D01*
X4340467Y-13675460D02*
X4321420Y-13684984D01*
X4321420Y-13684984D02*
X4302372Y-13684984D01*
X4302372Y-13684984D02*
X4283324Y-13675460D01*
X4283324Y-13675460D02*
X4273801Y-13665936D01*
X4273801Y-13665936D02*
X4264277Y-13646888D01*
X4264277Y-13646888D02*
X4254753Y-13608793D01*
X4254753Y-13608793D02*
X4254753Y-13561174D01*
X4254753Y-13561174D02*
X4264277Y-13523079D01*
X4264277Y-13523079D02*
X4273801Y-13504031D01*
X4273801Y-13504031D02*
X4283324Y-13494508D01*
X4283324Y-13494508D02*
X4302372Y-13484984D01*
X4454753Y-13665936D02*
X4464277Y-13675460D01*
X4464277Y-13675460D02*
X4454753Y-13684984D01*
X4454753Y-13684984D02*
X4445229Y-13675460D01*
X4445229Y-13675460D02*
X4454753Y-13665936D01*
X4454753Y-13665936D02*
X4454753Y-13684984D01*
X4578563Y-13570698D02*
X4559515Y-13561174D01*
X4559515Y-13561174D02*
X4549991Y-13551650D01*
X4549991Y-13551650D02*
X4540467Y-13532603D01*
X4540467Y-13532603D02*
X4540467Y-13523079D01*
X4540467Y-13523079D02*
X4549991Y-13504031D01*
X4549991Y-13504031D02*
X4559515Y-13494508D01*
X4559515Y-13494508D02*
X4578563Y-13484984D01*
X4578563Y-13484984D02*
X4616658Y-13484984D01*
X4616658Y-13484984D02*
X4635705Y-13494508D01*
X4635705Y-13494508D02*
X4645229Y-13504031D01*
X4645229Y-13504031D02*
X4654753Y-13523079D01*
X4654753Y-13523079D02*
X4654753Y-13532603D01*
X4654753Y-13532603D02*
X4645229Y-13551650D01*
X4645229Y-13551650D02*
X4635705Y-13561174D01*
X4635705Y-13561174D02*
X4616658Y-13570698D01*
X4616658Y-13570698D02*
X4578563Y-13570698D01*
X4578563Y-13570698D02*
X4559515Y-13580222D01*
X4559515Y-13580222D02*
X4549991Y-13589746D01*
X4549991Y-13589746D02*
X4540467Y-13608793D01*
X4540467Y-13608793D02*
X4540467Y-13646888D01*
X4540467Y-13646888D02*
X4549991Y-13665936D01*
X4549991Y-13665936D02*
X4559515Y-13675460D01*
X4559515Y-13675460D02*
X4578563Y-13684984D01*
X4578563Y-13684984D02*
X4616658Y-13684984D01*
X4616658Y-13684984D02*
X4635705Y-13675460D01*
X4635705Y-13675460D02*
X4645229Y-13665936D01*
X4645229Y-13665936D02*
X4654753Y-13646888D01*
X4654753Y-13646888D02*
X4654753Y-13608793D01*
X4654753Y-13608793D02*
X4645229Y-13589746D01*
X4645229Y-13589746D02*
X4635705Y-13580222D01*
X4635705Y-13580222D02*
X4616658Y-13570698D01*
X4778563Y-13484984D02*
X4797610Y-13484984D01*
X4797610Y-13484984D02*
X4816658Y-13494508D01*
X4816658Y-13494508D02*
X4826182Y-13504031D01*
X4826182Y-13504031D02*
X4835705Y-13523079D01*
X4835705Y-13523079D02*
X4845229Y-13561174D01*
X4845229Y-13561174D02*
X4845229Y-13608793D01*
X4845229Y-13608793D02*
X4835705Y-13646888D01*
X4835705Y-13646888D02*
X4826182Y-13665936D01*
X4826182Y-13665936D02*
X4816658Y-13675460D01*
X4816658Y-13675460D02*
X4797610Y-13684984D01*
X4797610Y-13684984D02*
X4778563Y-13684984D01*
X4778563Y-13684984D02*
X4759515Y-13675460D01*
X4759515Y-13675460D02*
X4749991Y-13665936D01*
X4749991Y-13665936D02*
X4740467Y-13646888D01*
X4740467Y-13646888D02*
X4730944Y-13608793D01*
X4730944Y-13608793D02*
X4730944Y-13561174D01*
X4730944Y-13561174D02*
X4740467Y-13523079D01*
X4740467Y-13523079D02*
X4749991Y-13504031D01*
X4749991Y-13504031D02*
X4759515Y-13494508D01*
X4759515Y-13494508D02*
X4778563Y-13484984D01*
X4969039Y-13484984D02*
X4988086Y-13484984D01*
X4988086Y-13484984D02*
X5007134Y-13494508D01*
X5007134Y-13494508D02*
X5016658Y-13504031D01*
X5016658Y-13504031D02*
X5026182Y-13523079D01*
X5026182Y-13523079D02*
X5035705Y-13561174D01*
X5035705Y-13561174D02*
X5035705Y-13608793D01*
X5035705Y-13608793D02*
X5026182Y-13646888D01*
X5026182Y-13646888D02*
X5016658Y-13665936D01*
X5016658Y-13665936D02*
X5007134Y-13675460D01*
X5007134Y-13675460D02*
X4988086Y-13684984D01*
X4988086Y-13684984D02*
X4969039Y-13684984D01*
X4969039Y-13684984D02*
X4949991Y-13675460D01*
X4949991Y-13675460D02*
X4940467Y-13665936D01*
X4940467Y-13665936D02*
X4930944Y-13646888D01*
X4930944Y-13646888D02*
X4921420Y-13608793D01*
X4921420Y-13608793D02*
X4921420Y-13561174D01*
X4921420Y-13561174D02*
X4930944Y-13523079D01*
X4930944Y-13523079D02*
X4940467Y-13504031D01*
X4940467Y-13504031D02*
X4949991Y-13494508D01*
X4949991Y-13494508D02*
X4969039Y-13484984D01*
X5121420Y-13684984D02*
X5121420Y-13551650D01*
X5121420Y-13570698D02*
X5130944Y-13561174D01*
X5130944Y-13561174D02*
X5149991Y-13551650D01*
X5149991Y-13551650D02*
X5178563Y-13551650D01*
X5178563Y-13551650D02*
X5197610Y-13561174D01*
X5197610Y-13561174D02*
X5207134Y-13580222D01*
X5207134Y-13580222D02*
X5207134Y-13684984D01*
X5207134Y-13580222D02*
X5216658Y-13561174D01*
X5216658Y-13561174D02*
X5235705Y-13551650D01*
X5235705Y-13551650D02*
X5264277Y-13551650D01*
X5264277Y-13551650D02*
X5283325Y-13561174D01*
X5283325Y-13561174D02*
X5292848Y-13580222D01*
X5292848Y-13580222D02*
X5292848Y-13684984D01*
X5388086Y-13684984D02*
X5388086Y-13551650D01*
X5388086Y-13570698D02*
X5397610Y-13561174D01*
X5397610Y-13561174D02*
X5416658Y-13551650D01*
X5416658Y-13551650D02*
X5445229Y-13551650D01*
X5445229Y-13551650D02*
X5464277Y-13561174D01*
X5464277Y-13561174D02*
X5473801Y-13580222D01*
X5473801Y-13580222D02*
X5473801Y-13684984D01*
X5473801Y-13580222D02*
X5483325Y-13561174D01*
X5483325Y-13561174D02*
X5502372Y-13551650D01*
X5502372Y-13551650D02*
X5530944Y-13551650D01*
X5530944Y-13551650D02*
X5549991Y-13561174D01*
X5549991Y-13561174D02*
X5559515Y-13580222D01*
X5559515Y-13580222D02*
X5559515Y-13684984D01*
X5949991Y-13475460D02*
X5778563Y-13732603D01*
X6207134Y-13484984D02*
X6226182Y-13484984D01*
X6226182Y-13484984D02*
X6245229Y-13494508D01*
X6245229Y-13494508D02*
X6254753Y-13504031D01*
X6254753Y-13504031D02*
X6264277Y-13523079D01*
X6264277Y-13523079D02*
X6273801Y-13561174D01*
X6273801Y-13561174D02*
X6273801Y-13608793D01*
X6273801Y-13608793D02*
X6264277Y-13646888D01*
X6264277Y-13646888D02*
X6254753Y-13665936D01*
X6254753Y-13665936D02*
X6245229Y-13675460D01*
X6245229Y-13675460D02*
X6226182Y-13684984D01*
X6226182Y-13684984D02*
X6207134Y-13684984D01*
X6207134Y-13684984D02*
X6188086Y-13675460D01*
X6188086Y-13675460D02*
X6178563Y-13665936D01*
X6178563Y-13665936D02*
X6169039Y-13646888D01*
X6169039Y-13646888D02*
X6159515Y-13608793D01*
X6159515Y-13608793D02*
X6159515Y-13561174D01*
X6159515Y-13561174D02*
X6169039Y-13523079D01*
X6169039Y-13523079D02*
X6178563Y-13504031D01*
X6178563Y-13504031D02*
X6188086Y-13494508D01*
X6188086Y-13494508D02*
X6207134Y-13484984D01*
X6359515Y-13665936D02*
X6369039Y-13675460D01*
X6369039Y-13675460D02*
X6359515Y-13684984D01*
X6359515Y-13684984D02*
X6349991Y-13675460D01*
X6349991Y-13675460D02*
X6359515Y-13665936D01*
X6359515Y-13665936D02*
X6359515Y-13684984D01*
X6492848Y-13484984D02*
X6511896Y-13484984D01*
X6511896Y-13484984D02*
X6530944Y-13494508D01*
X6530944Y-13494508D02*
X6540467Y-13504031D01*
X6540467Y-13504031D02*
X6549991Y-13523079D01*
X6549991Y-13523079D02*
X6559515Y-13561174D01*
X6559515Y-13561174D02*
X6559515Y-13608793D01*
X6559515Y-13608793D02*
X6549991Y-13646888D01*
X6549991Y-13646888D02*
X6540467Y-13665936D01*
X6540467Y-13665936D02*
X6530944Y-13675460D01*
X6530944Y-13675460D02*
X6511896Y-13684984D01*
X6511896Y-13684984D02*
X6492848Y-13684984D01*
X6492848Y-13684984D02*
X6473801Y-13675460D01*
X6473801Y-13675460D02*
X6464277Y-13665936D01*
X6464277Y-13665936D02*
X6454753Y-13646888D01*
X6454753Y-13646888D02*
X6445229Y-13608793D01*
X6445229Y-13608793D02*
X6445229Y-13561174D01*
X6445229Y-13561174D02*
X6454753Y-13523079D01*
X6454753Y-13523079D02*
X6464277Y-13504031D01*
X6464277Y-13504031D02*
X6473801Y-13494508D01*
X6473801Y-13494508D02*
X6492848Y-13484984D01*
X6626182Y-13484984D02*
X6749991Y-13484984D01*
X6749991Y-13484984D02*
X6683325Y-13561174D01*
X6683325Y-13561174D02*
X6711896Y-13561174D01*
X6711896Y-13561174D02*
X6730944Y-13570698D01*
X6730944Y-13570698D02*
X6740467Y-13580222D01*
X6740467Y-13580222D02*
X6749991Y-13599269D01*
X6749991Y-13599269D02*
X6749991Y-13646888D01*
X6749991Y-13646888D02*
X6740467Y-13665936D01*
X6740467Y-13665936D02*
X6730944Y-13675460D01*
X6730944Y-13675460D02*
X6711896Y-13684984D01*
X6711896Y-13684984D02*
X6654753Y-13684984D01*
X6654753Y-13684984D02*
X6635706Y-13675460D01*
X6635706Y-13675460D02*
X6626182Y-13665936D01*
X6940467Y-13684984D02*
X6826182Y-13684984D01*
X6883325Y-13684984D02*
X6883325Y-13484984D01*
X6883325Y-13484984D02*
X6864277Y-13513555D01*
X6864277Y-13513555D02*
X6845229Y-13532603D01*
X6845229Y-13532603D02*
X6826182Y-13542127D01*
X7121420Y-13484984D02*
X7026182Y-13484984D01*
X7026182Y-13484984D02*
X7016658Y-13580222D01*
X7016658Y-13580222D02*
X7026182Y-13570698D01*
X7026182Y-13570698D02*
X7045229Y-13561174D01*
X7045229Y-13561174D02*
X7092848Y-13561174D01*
X7092848Y-13561174D02*
X7111896Y-13570698D01*
X7111896Y-13570698D02*
X7121420Y-13580222D01*
X7121420Y-13580222D02*
X7130944Y-13599269D01*
X7130944Y-13599269D02*
X7130944Y-13646888D01*
X7130944Y-13646888D02*
X7121420Y-13665936D01*
X7121420Y-13665936D02*
X7111896Y-13675460D01*
X7111896Y-13675460D02*
X7092848Y-13684984D01*
X7092848Y-13684984D02*
X7045229Y-13684984D01*
X7045229Y-13684984D02*
X7026182Y-13675460D01*
X7026182Y-13675460D02*
X7016658Y-13665936D01*
X7207134Y-13484984D02*
X7207134Y-13523079D01*
X7283325Y-13484984D02*
X7283325Y-13523079D01*
X7578563Y-13761174D02*
X7569039Y-13751650D01*
X7569039Y-13751650D02*
X7549991Y-13723079D01*
X7549991Y-13723079D02*
X7540468Y-13704031D01*
X7540468Y-13704031D02*
X7530944Y-13675460D01*
X7530944Y-13675460D02*
X7521420Y-13627841D01*
X7521420Y-13627841D02*
X7521420Y-13589746D01*
X7521420Y-13589746D02*
X7530944Y-13542127D01*
X7530944Y-13542127D02*
X7540468Y-13513555D01*
X7540468Y-13513555D02*
X7549991Y-13494508D01*
X7549991Y-13494508D02*
X7569039Y-13465936D01*
X7569039Y-13465936D02*
X7578563Y-13456412D01*
X7759515Y-13684984D02*
X7645229Y-13684984D01*
X7702372Y-13684984D02*
X7702372Y-13484984D01*
X7702372Y-13484984D02*
X7683325Y-13513555D01*
X7683325Y-13513555D02*
X7664277Y-13532603D01*
X7664277Y-13532603D02*
X7645229Y-13542127D01*
X7930944Y-13551650D02*
X7930944Y-13684984D01*
X7883325Y-13475460D02*
X7835706Y-13618317D01*
X7835706Y-13618317D02*
X7959515Y-13618317D01*
X8188087Y-13684984D02*
X8188087Y-13484984D01*
X8273801Y-13684984D02*
X8273801Y-13580222D01*
X8273801Y-13580222D02*
X8264277Y-13561174D01*
X8264277Y-13561174D02*
X8245230Y-13551650D01*
X8245230Y-13551650D02*
X8216658Y-13551650D01*
X8216658Y-13551650D02*
X8197610Y-13561174D01*
X8197610Y-13561174D02*
X8188087Y-13570698D01*
X8397611Y-13684984D02*
X8378563Y-13675460D01*
X8378563Y-13675460D02*
X8369039Y-13665936D01*
X8369039Y-13665936D02*
X8359515Y-13646888D01*
X8359515Y-13646888D02*
X8359515Y-13589746D01*
X8359515Y-13589746D02*
X8369039Y-13570698D01*
X8369039Y-13570698D02*
X8378563Y-13561174D01*
X8378563Y-13561174D02*
X8397611Y-13551650D01*
X8397611Y-13551650D02*
X8426182Y-13551650D01*
X8426182Y-13551650D02*
X8445230Y-13561174D01*
X8445230Y-13561174D02*
X8454753Y-13570698D01*
X8454753Y-13570698D02*
X8464277Y-13589746D01*
X8464277Y-13589746D02*
X8464277Y-13646888D01*
X8464277Y-13646888D02*
X8454753Y-13665936D01*
X8454753Y-13665936D02*
X8445230Y-13675460D01*
X8445230Y-13675460D02*
X8426182Y-13684984D01*
X8426182Y-13684984D02*
X8397611Y-13684984D01*
X8578563Y-13684984D02*
X8559515Y-13675460D01*
X8559515Y-13675460D02*
X8549992Y-13656412D01*
X8549992Y-13656412D02*
X8549992Y-13484984D01*
X8730944Y-13675460D02*
X8711896Y-13684984D01*
X8711896Y-13684984D02*
X8673801Y-13684984D01*
X8673801Y-13684984D02*
X8654753Y-13675460D01*
X8654753Y-13675460D02*
X8645230Y-13656412D01*
X8645230Y-13656412D02*
X8645230Y-13580222D01*
X8645230Y-13580222D02*
X8654753Y-13561174D01*
X8654753Y-13561174D02*
X8673801Y-13551650D01*
X8673801Y-13551650D02*
X8711896Y-13551650D01*
X8711896Y-13551650D02*
X8730944Y-13561174D01*
X8730944Y-13561174D02*
X8740468Y-13580222D01*
X8740468Y-13580222D02*
X8740468Y-13599269D01*
X8740468Y-13599269D02*
X8645230Y-13618317D01*
X8816658Y-13675460D02*
X8835706Y-13684984D01*
X8835706Y-13684984D02*
X8873801Y-13684984D01*
X8873801Y-13684984D02*
X8892849Y-13675460D01*
X8892849Y-13675460D02*
X8902373Y-13656412D01*
X8902373Y-13656412D02*
X8902373Y-13646888D01*
X8902373Y-13646888D02*
X8892849Y-13627841D01*
X8892849Y-13627841D02*
X8873801Y-13618317D01*
X8873801Y-13618317D02*
X8845230Y-13618317D01*
X8845230Y-13618317D02*
X8826182Y-13608793D01*
X8826182Y-13608793D02*
X8816658Y-13589746D01*
X8816658Y-13589746D02*
X8816658Y-13580222D01*
X8816658Y-13580222D02*
X8826182Y-13561174D01*
X8826182Y-13561174D02*
X8845230Y-13551650D01*
X8845230Y-13551650D02*
X8873801Y-13551650D01*
X8873801Y-13551650D02*
X8892849Y-13561174D01*
X8969039Y-13761174D02*
X8978563Y-13751650D01*
X8978563Y-13751650D02*
X8997611Y-13723079D01*
X8997611Y-13723079D02*
X9007134Y-13704031D01*
X9007134Y-13704031D02*
X9016658Y-13675460D01*
X9016658Y-13675460D02*
X9026182Y-13627841D01*
X9026182Y-13627841D02*
X9026182Y-13589746D01*
X9026182Y-13589746D02*
X9016658Y-13542127D01*
X9016658Y-13542127D02*
X9007134Y-13513555D01*
X9007134Y-13513555D02*
X8997611Y-13494508D01*
X8997611Y-13494508D02*
X8978563Y-13465936D01*
X8978563Y-13465936D02*
X8969039Y-13456412D01*
D12*
X3908500Y-13810000D02*
X4003500Y-13905000D01*
X4003500Y-13810000D02*
X3908500Y-13905000D01*
X4003500Y-13857500D02*
G75*
G02*
X3908500Y-13857500I-47500J0D01*
G01*
X3908500Y-13857500D02*
G75*
G02*
X4003500Y-13857500I47500J0D01*
G01*
D11*
X4302372Y-13748984D02*
X4321420Y-13748984D01*
X4321420Y-13748984D02*
X4340467Y-13758508D01*
X4340467Y-13758508D02*
X4349991Y-13768031D01*
X4349991Y-13768031D02*
X4359515Y-13787079D01*
X4359515Y-13787079D02*
X4369039Y-13825174D01*
X4369039Y-13825174D02*
X4369039Y-13872793D01*
X4369039Y-13872793D02*
X4359515Y-13910888D01*
X4359515Y-13910888D02*
X4349991Y-13929936D01*
X4349991Y-13929936D02*
X4340467Y-13939460D01*
X4340467Y-13939460D02*
X4321420Y-13948984D01*
X4321420Y-13948984D02*
X4302372Y-13948984D01*
X4302372Y-13948984D02*
X4283324Y-13939460D01*
X4283324Y-13939460D02*
X4273801Y-13929936D01*
X4273801Y-13929936D02*
X4264277Y-13910888D01*
X4264277Y-13910888D02*
X4254753Y-13872793D01*
X4254753Y-13872793D02*
X4254753Y-13825174D01*
X4254753Y-13825174D02*
X4264277Y-13787079D01*
X4264277Y-13787079D02*
X4273801Y-13768031D01*
X4273801Y-13768031D02*
X4283324Y-13758508D01*
X4283324Y-13758508D02*
X4302372Y-13748984D01*
X4454753Y-13929936D02*
X4464277Y-13939460D01*
X4464277Y-13939460D02*
X4454753Y-13948984D01*
X4454753Y-13948984D02*
X4445229Y-13939460D01*
X4445229Y-13939460D02*
X4454753Y-13929936D01*
X4454753Y-13929936D02*
X4454753Y-13948984D01*
X4559515Y-13948984D02*
X4597610Y-13948984D01*
X4597610Y-13948984D02*
X4616658Y-13939460D01*
X4616658Y-13939460D02*
X4626182Y-13929936D01*
X4626182Y-13929936D02*
X4645229Y-13901365D01*
X4645229Y-13901365D02*
X4654753Y-13863269D01*
X4654753Y-13863269D02*
X4654753Y-13787079D01*
X4654753Y-13787079D02*
X4645229Y-13768031D01*
X4645229Y-13768031D02*
X4635705Y-13758508D01*
X4635705Y-13758508D02*
X4616658Y-13748984D01*
X4616658Y-13748984D02*
X4578563Y-13748984D01*
X4578563Y-13748984D02*
X4559515Y-13758508D01*
X4559515Y-13758508D02*
X4549991Y-13768031D01*
X4549991Y-13768031D02*
X4540467Y-13787079D01*
X4540467Y-13787079D02*
X4540467Y-13834698D01*
X4540467Y-13834698D02*
X4549991Y-13853746D01*
X4549991Y-13853746D02*
X4559515Y-13863269D01*
X4559515Y-13863269D02*
X4578563Y-13872793D01*
X4578563Y-13872793D02*
X4616658Y-13872793D01*
X4616658Y-13872793D02*
X4635705Y-13863269D01*
X4635705Y-13863269D02*
X4645229Y-13853746D01*
X4645229Y-13853746D02*
X4654753Y-13834698D01*
X4835705Y-13748984D02*
X4740467Y-13748984D01*
X4740467Y-13748984D02*
X4730944Y-13844222D01*
X4730944Y-13844222D02*
X4740467Y-13834698D01*
X4740467Y-13834698D02*
X4759515Y-13825174D01*
X4759515Y-13825174D02*
X4807134Y-13825174D01*
X4807134Y-13825174D02*
X4826182Y-13834698D01*
X4826182Y-13834698D02*
X4835705Y-13844222D01*
X4835705Y-13844222D02*
X4845229Y-13863269D01*
X4845229Y-13863269D02*
X4845229Y-13910888D01*
X4845229Y-13910888D02*
X4835705Y-13929936D01*
X4835705Y-13929936D02*
X4826182Y-13939460D01*
X4826182Y-13939460D02*
X4807134Y-13948984D01*
X4807134Y-13948984D02*
X4759515Y-13948984D01*
X4759515Y-13948984D02*
X4740467Y-13939460D01*
X4740467Y-13939460D02*
X4730944Y-13929936D01*
X4969039Y-13748984D02*
X4988086Y-13748984D01*
X4988086Y-13748984D02*
X5007134Y-13758508D01*
X5007134Y-13758508D02*
X5016658Y-13768031D01*
X5016658Y-13768031D02*
X5026182Y-13787079D01*
X5026182Y-13787079D02*
X5035705Y-13825174D01*
X5035705Y-13825174D02*
X5035705Y-13872793D01*
X5035705Y-13872793D02*
X5026182Y-13910888D01*
X5026182Y-13910888D02*
X5016658Y-13929936D01*
X5016658Y-13929936D02*
X5007134Y-13939460D01*
X5007134Y-13939460D02*
X4988086Y-13948984D01*
X4988086Y-13948984D02*
X4969039Y-13948984D01*
X4969039Y-13948984D02*
X4949991Y-13939460D01*
X4949991Y-13939460D02*
X4940467Y-13929936D01*
X4940467Y-13929936D02*
X4930944Y-13910888D01*
X4930944Y-13910888D02*
X4921420Y-13872793D01*
X4921420Y-13872793D02*
X4921420Y-13825174D01*
X4921420Y-13825174D02*
X4930944Y-13787079D01*
X4930944Y-13787079D02*
X4940467Y-13768031D01*
X4940467Y-13768031D02*
X4949991Y-13758508D01*
X4949991Y-13758508D02*
X4969039Y-13748984D01*
X5121420Y-13948984D02*
X5121420Y-13815650D01*
X5121420Y-13834698D02*
X5130944Y-13825174D01*
X5130944Y-13825174D02*
X5149991Y-13815650D01*
X5149991Y-13815650D02*
X5178563Y-13815650D01*
X5178563Y-13815650D02*
X5197610Y-13825174D01*
X5197610Y-13825174D02*
X5207134Y-13844222D01*
X5207134Y-13844222D02*
X5207134Y-13948984D01*
X5207134Y-13844222D02*
X5216658Y-13825174D01*
X5216658Y-13825174D02*
X5235705Y-13815650D01*
X5235705Y-13815650D02*
X5264277Y-13815650D01*
X5264277Y-13815650D02*
X5283325Y-13825174D01*
X5283325Y-13825174D02*
X5292848Y-13844222D01*
X5292848Y-13844222D02*
X5292848Y-13948984D01*
X5388086Y-13948984D02*
X5388086Y-13815650D01*
X5388086Y-13834698D02*
X5397610Y-13825174D01*
X5397610Y-13825174D02*
X5416658Y-13815650D01*
X5416658Y-13815650D02*
X5445229Y-13815650D01*
X5445229Y-13815650D02*
X5464277Y-13825174D01*
X5464277Y-13825174D02*
X5473801Y-13844222D01*
X5473801Y-13844222D02*
X5473801Y-13948984D01*
X5473801Y-13844222D02*
X5483325Y-13825174D01*
X5483325Y-13825174D02*
X5502372Y-13815650D01*
X5502372Y-13815650D02*
X5530944Y-13815650D01*
X5530944Y-13815650D02*
X5549991Y-13825174D01*
X5549991Y-13825174D02*
X5559515Y-13844222D01*
X5559515Y-13844222D02*
X5559515Y-13948984D01*
X5949991Y-13739460D02*
X5778563Y-13996603D01*
X6207134Y-13748984D02*
X6226182Y-13748984D01*
X6226182Y-13748984D02*
X6245229Y-13758508D01*
X6245229Y-13758508D02*
X6254753Y-13768031D01*
X6254753Y-13768031D02*
X6264277Y-13787079D01*
X6264277Y-13787079D02*
X6273801Y-13825174D01*
X6273801Y-13825174D02*
X6273801Y-13872793D01*
X6273801Y-13872793D02*
X6264277Y-13910888D01*
X6264277Y-13910888D02*
X6254753Y-13929936D01*
X6254753Y-13929936D02*
X6245229Y-13939460D01*
X6245229Y-13939460D02*
X6226182Y-13948984D01*
X6226182Y-13948984D02*
X6207134Y-13948984D01*
X6207134Y-13948984D02*
X6188086Y-13939460D01*
X6188086Y-13939460D02*
X6178563Y-13929936D01*
X6178563Y-13929936D02*
X6169039Y-13910888D01*
X6169039Y-13910888D02*
X6159515Y-13872793D01*
X6159515Y-13872793D02*
X6159515Y-13825174D01*
X6159515Y-13825174D02*
X6169039Y-13787079D01*
X6169039Y-13787079D02*
X6178563Y-13768031D01*
X6178563Y-13768031D02*
X6188086Y-13758508D01*
X6188086Y-13758508D02*
X6207134Y-13748984D01*
X6359515Y-13929936D02*
X6369039Y-13939460D01*
X6369039Y-13939460D02*
X6359515Y-13948984D01*
X6359515Y-13948984D02*
X6349991Y-13939460D01*
X6349991Y-13939460D02*
X6359515Y-13929936D01*
X6359515Y-13929936D02*
X6359515Y-13948984D01*
X6492848Y-13748984D02*
X6511896Y-13748984D01*
X6511896Y-13748984D02*
X6530944Y-13758508D01*
X6530944Y-13758508D02*
X6540467Y-13768031D01*
X6540467Y-13768031D02*
X6549991Y-13787079D01*
X6549991Y-13787079D02*
X6559515Y-13825174D01*
X6559515Y-13825174D02*
X6559515Y-13872793D01*
X6559515Y-13872793D02*
X6549991Y-13910888D01*
X6549991Y-13910888D02*
X6540467Y-13929936D01*
X6540467Y-13929936D02*
X6530944Y-13939460D01*
X6530944Y-13939460D02*
X6511896Y-13948984D01*
X6511896Y-13948984D02*
X6492848Y-13948984D01*
X6492848Y-13948984D02*
X6473801Y-13939460D01*
X6473801Y-13939460D02*
X6464277Y-13929936D01*
X6464277Y-13929936D02*
X6454753Y-13910888D01*
X6454753Y-13910888D02*
X6445229Y-13872793D01*
X6445229Y-13872793D02*
X6445229Y-13825174D01*
X6445229Y-13825174D02*
X6454753Y-13787079D01*
X6454753Y-13787079D02*
X6464277Y-13768031D01*
X6464277Y-13768031D02*
X6473801Y-13758508D01*
X6473801Y-13758508D02*
X6492848Y-13748984D01*
X6626182Y-13748984D02*
X6749991Y-13748984D01*
X6749991Y-13748984D02*
X6683325Y-13825174D01*
X6683325Y-13825174D02*
X6711896Y-13825174D01*
X6711896Y-13825174D02*
X6730944Y-13834698D01*
X6730944Y-13834698D02*
X6740467Y-13844222D01*
X6740467Y-13844222D02*
X6749991Y-13863269D01*
X6749991Y-13863269D02*
X6749991Y-13910888D01*
X6749991Y-13910888D02*
X6740467Y-13929936D01*
X6740467Y-13929936D02*
X6730944Y-13939460D01*
X6730944Y-13939460D02*
X6711896Y-13948984D01*
X6711896Y-13948984D02*
X6654753Y-13948984D01*
X6654753Y-13948984D02*
X6635706Y-13939460D01*
X6635706Y-13939460D02*
X6626182Y-13929936D01*
X6816658Y-13748984D02*
X6949991Y-13748984D01*
X6949991Y-13748984D02*
X6864277Y-13948984D01*
X7111896Y-13815650D02*
X7111896Y-13948984D01*
X7064277Y-13739460D02*
X7016658Y-13882317D01*
X7016658Y-13882317D02*
X7140467Y-13882317D01*
X7207134Y-13748984D02*
X7207134Y-13787079D01*
X7283325Y-13748984D02*
X7283325Y-13787079D01*
X7578563Y-14025174D02*
X7569039Y-14015650D01*
X7569039Y-14015650D02*
X7549991Y-13987079D01*
X7549991Y-13987079D02*
X7540468Y-13968031D01*
X7540468Y-13968031D02*
X7530944Y-13939460D01*
X7530944Y-13939460D02*
X7521420Y-13891841D01*
X7521420Y-13891841D02*
X7521420Y-13853746D01*
X7521420Y-13853746D02*
X7530944Y-13806127D01*
X7530944Y-13806127D02*
X7540468Y-13777555D01*
X7540468Y-13777555D02*
X7549991Y-13758508D01*
X7549991Y-13758508D02*
X7569039Y-13729936D01*
X7569039Y-13729936D02*
X7578563Y-13720412D01*
X7740468Y-13815650D02*
X7740468Y-13948984D01*
X7692848Y-13739460D02*
X7645229Y-13882317D01*
X7645229Y-13882317D02*
X7769039Y-13882317D01*
X7997610Y-13948984D02*
X7997610Y-13748984D01*
X8083325Y-13948984D02*
X8083325Y-13844222D01*
X8083325Y-13844222D02*
X8073801Y-13825174D01*
X8073801Y-13825174D02*
X8054753Y-13815650D01*
X8054753Y-13815650D02*
X8026182Y-13815650D01*
X8026182Y-13815650D02*
X8007134Y-13825174D01*
X8007134Y-13825174D02*
X7997610Y-13834698D01*
X8207134Y-13948984D02*
X8188087Y-13939460D01*
X8188087Y-13939460D02*
X8178563Y-13929936D01*
X8178563Y-13929936D02*
X8169039Y-13910888D01*
X8169039Y-13910888D02*
X8169039Y-13853746D01*
X8169039Y-13853746D02*
X8178563Y-13834698D01*
X8178563Y-13834698D02*
X8188087Y-13825174D01*
X8188087Y-13825174D02*
X8207134Y-13815650D01*
X8207134Y-13815650D02*
X8235706Y-13815650D01*
X8235706Y-13815650D02*
X8254753Y-13825174D01*
X8254753Y-13825174D02*
X8264277Y-13834698D01*
X8264277Y-13834698D02*
X8273801Y-13853746D01*
X8273801Y-13853746D02*
X8273801Y-13910888D01*
X8273801Y-13910888D02*
X8264277Y-13929936D01*
X8264277Y-13929936D02*
X8254753Y-13939460D01*
X8254753Y-13939460D02*
X8235706Y-13948984D01*
X8235706Y-13948984D02*
X8207134Y-13948984D01*
X8388087Y-13948984D02*
X8369039Y-13939460D01*
X8369039Y-13939460D02*
X8359515Y-13920412D01*
X8359515Y-13920412D02*
X8359515Y-13748984D01*
X8540468Y-13939460D02*
X8521420Y-13948984D01*
X8521420Y-13948984D02*
X8483325Y-13948984D01*
X8483325Y-13948984D02*
X8464277Y-13939460D01*
X8464277Y-13939460D02*
X8454753Y-13920412D01*
X8454753Y-13920412D02*
X8454753Y-13844222D01*
X8454753Y-13844222D02*
X8464277Y-13825174D01*
X8464277Y-13825174D02*
X8483325Y-13815650D01*
X8483325Y-13815650D02*
X8521420Y-13815650D01*
X8521420Y-13815650D02*
X8540468Y-13825174D01*
X8540468Y-13825174D02*
X8549992Y-13844222D01*
X8549992Y-13844222D02*
X8549992Y-13863269D01*
X8549992Y-13863269D02*
X8454753Y-13882317D01*
X8626182Y-13939460D02*
X8645230Y-13948984D01*
X8645230Y-13948984D02*
X8683325Y-13948984D01*
X8683325Y-13948984D02*
X8702373Y-13939460D01*
X8702373Y-13939460D02*
X8711896Y-13920412D01*
X8711896Y-13920412D02*
X8711896Y-13910888D01*
X8711896Y-13910888D02*
X8702373Y-13891841D01*
X8702373Y-13891841D02*
X8683325Y-13882317D01*
X8683325Y-13882317D02*
X8654753Y-13882317D01*
X8654753Y-13882317D02*
X8635706Y-13872793D01*
X8635706Y-13872793D02*
X8626182Y-13853746D01*
X8626182Y-13853746D02*
X8626182Y-13844222D01*
X8626182Y-13844222D02*
X8635706Y-13825174D01*
X8635706Y-13825174D02*
X8654753Y-13815650D01*
X8654753Y-13815650D02*
X8683325Y-13815650D01*
X8683325Y-13815650D02*
X8702373Y-13825174D01*
X8778563Y-14025174D02*
X8788087Y-14015650D01*
X8788087Y-14015650D02*
X8807134Y-13987079D01*
X8807134Y-13987079D02*
X8816658Y-13968031D01*
X8816658Y-13968031D02*
X8826182Y-13939460D01*
X8826182Y-13939460D02*
X8835706Y-13891841D01*
X8835706Y-13891841D02*
X8835706Y-13853746D01*
X8835706Y-13853746D02*
X8826182Y-13806127D01*
X8826182Y-13806127D02*
X8816658Y-13777555D01*
X8816658Y-13777555D02*
X8807134Y-13758508D01*
X8807134Y-13758508D02*
X8788087Y-13729936D01*
X8788087Y-13729936D02*
X8778563Y-13720412D01*
D12*
X3903500Y-14071500D02*
X4003500Y-14171500D01*
X4003500Y-14071500D02*
X3903500Y-14171500D01*
X3953500Y-14071500D02*
X3953500Y-14171500D01*
X3903500Y-14121500D02*
X4003500Y-14121500D01*
D11*
X4369039Y-14212984D02*
X4254753Y-14212984D01*
X4311896Y-14212984D02*
X4311896Y-14012984D01*
X4311896Y-14012984D02*
X4292848Y-14041555D01*
X4292848Y-14041555D02*
X4273801Y-14060603D01*
X4273801Y-14060603D02*
X4254753Y-14070127D01*
X4454753Y-14193936D02*
X4464277Y-14203460D01*
X4464277Y-14203460D02*
X4454753Y-14212984D01*
X4454753Y-14212984D02*
X4445229Y-14203460D01*
X4445229Y-14203460D02*
X4454753Y-14193936D01*
X4454753Y-14193936D02*
X4454753Y-14212984D01*
X4588086Y-14012984D02*
X4607134Y-14012984D01*
X4607134Y-14012984D02*
X4626182Y-14022508D01*
X4626182Y-14022508D02*
X4635705Y-14032031D01*
X4635705Y-14032031D02*
X4645229Y-14051079D01*
X4645229Y-14051079D02*
X4654753Y-14089174D01*
X4654753Y-14089174D02*
X4654753Y-14136793D01*
X4654753Y-14136793D02*
X4645229Y-14174888D01*
X4645229Y-14174888D02*
X4635705Y-14193936D01*
X4635705Y-14193936D02*
X4626182Y-14203460D01*
X4626182Y-14203460D02*
X4607134Y-14212984D01*
X4607134Y-14212984D02*
X4588086Y-14212984D01*
X4588086Y-14212984D02*
X4569039Y-14203460D01*
X4569039Y-14203460D02*
X4559515Y-14193936D01*
X4559515Y-14193936D02*
X4549991Y-14174888D01*
X4549991Y-14174888D02*
X4540467Y-14136793D01*
X4540467Y-14136793D02*
X4540467Y-14089174D01*
X4540467Y-14089174D02*
X4549991Y-14051079D01*
X4549991Y-14051079D02*
X4559515Y-14032031D01*
X4559515Y-14032031D02*
X4569039Y-14022508D01*
X4569039Y-14022508D02*
X4588086Y-14012984D01*
X4778563Y-14012984D02*
X4797610Y-14012984D01*
X4797610Y-14012984D02*
X4816658Y-14022508D01*
X4816658Y-14022508D02*
X4826182Y-14032031D01*
X4826182Y-14032031D02*
X4835705Y-14051079D01*
X4835705Y-14051079D02*
X4845229Y-14089174D01*
X4845229Y-14089174D02*
X4845229Y-14136793D01*
X4845229Y-14136793D02*
X4835705Y-14174888D01*
X4835705Y-14174888D02*
X4826182Y-14193936D01*
X4826182Y-14193936D02*
X4816658Y-14203460D01*
X4816658Y-14203460D02*
X4797610Y-14212984D01*
X4797610Y-14212984D02*
X4778563Y-14212984D01*
X4778563Y-14212984D02*
X4759515Y-14203460D01*
X4759515Y-14203460D02*
X4749991Y-14193936D01*
X4749991Y-14193936D02*
X4740467Y-14174888D01*
X4740467Y-14174888D02*
X4730944Y-14136793D01*
X4730944Y-14136793D02*
X4730944Y-14089174D01*
X4730944Y-14089174D02*
X4740467Y-14051079D01*
X4740467Y-14051079D02*
X4749991Y-14032031D01*
X4749991Y-14032031D02*
X4759515Y-14022508D01*
X4759515Y-14022508D02*
X4778563Y-14012984D01*
X4969039Y-14012984D02*
X4988086Y-14012984D01*
X4988086Y-14012984D02*
X5007134Y-14022508D01*
X5007134Y-14022508D02*
X5016658Y-14032031D01*
X5016658Y-14032031D02*
X5026182Y-14051079D01*
X5026182Y-14051079D02*
X5035705Y-14089174D01*
X5035705Y-14089174D02*
X5035705Y-14136793D01*
X5035705Y-14136793D02*
X5026182Y-14174888D01*
X5026182Y-14174888D02*
X5016658Y-14193936D01*
X5016658Y-14193936D02*
X5007134Y-14203460D01*
X5007134Y-14203460D02*
X4988086Y-14212984D01*
X4988086Y-14212984D02*
X4969039Y-14212984D01*
X4969039Y-14212984D02*
X4949991Y-14203460D01*
X4949991Y-14203460D02*
X4940467Y-14193936D01*
X4940467Y-14193936D02*
X4930944Y-14174888D01*
X4930944Y-14174888D02*
X4921420Y-14136793D01*
X4921420Y-14136793D02*
X4921420Y-14089174D01*
X4921420Y-14089174D02*
X4930944Y-14051079D01*
X4930944Y-14051079D02*
X4940467Y-14032031D01*
X4940467Y-14032031D02*
X4949991Y-14022508D01*
X4949991Y-14022508D02*
X4969039Y-14012984D01*
X5121420Y-14212984D02*
X5121420Y-14079650D01*
X5121420Y-14098698D02*
X5130944Y-14089174D01*
X5130944Y-14089174D02*
X5149991Y-14079650D01*
X5149991Y-14079650D02*
X5178563Y-14079650D01*
X5178563Y-14079650D02*
X5197610Y-14089174D01*
X5197610Y-14089174D02*
X5207134Y-14108222D01*
X5207134Y-14108222D02*
X5207134Y-14212984D01*
X5207134Y-14108222D02*
X5216658Y-14089174D01*
X5216658Y-14089174D02*
X5235705Y-14079650D01*
X5235705Y-14079650D02*
X5264277Y-14079650D01*
X5264277Y-14079650D02*
X5283325Y-14089174D01*
X5283325Y-14089174D02*
X5292848Y-14108222D01*
X5292848Y-14108222D02*
X5292848Y-14212984D01*
X5388086Y-14212984D02*
X5388086Y-14079650D01*
X5388086Y-14098698D02*
X5397610Y-14089174D01*
X5397610Y-14089174D02*
X5416658Y-14079650D01*
X5416658Y-14079650D02*
X5445229Y-14079650D01*
X5445229Y-14079650D02*
X5464277Y-14089174D01*
X5464277Y-14089174D02*
X5473801Y-14108222D01*
X5473801Y-14108222D02*
X5473801Y-14212984D01*
X5473801Y-14108222D02*
X5483325Y-14089174D01*
X5483325Y-14089174D02*
X5502372Y-14079650D01*
X5502372Y-14079650D02*
X5530944Y-14079650D01*
X5530944Y-14079650D02*
X5549991Y-14089174D01*
X5549991Y-14089174D02*
X5559515Y-14108222D01*
X5559515Y-14108222D02*
X5559515Y-14212984D01*
X5949991Y-14003460D02*
X5778563Y-14260603D01*
X6207134Y-14012984D02*
X6226182Y-14012984D01*
X6226182Y-14012984D02*
X6245229Y-14022508D01*
X6245229Y-14022508D02*
X6254753Y-14032031D01*
X6254753Y-14032031D02*
X6264277Y-14051079D01*
X6264277Y-14051079D02*
X6273801Y-14089174D01*
X6273801Y-14089174D02*
X6273801Y-14136793D01*
X6273801Y-14136793D02*
X6264277Y-14174888D01*
X6264277Y-14174888D02*
X6254753Y-14193936D01*
X6254753Y-14193936D02*
X6245229Y-14203460D01*
X6245229Y-14203460D02*
X6226182Y-14212984D01*
X6226182Y-14212984D02*
X6207134Y-14212984D01*
X6207134Y-14212984D02*
X6188086Y-14203460D01*
X6188086Y-14203460D02*
X6178563Y-14193936D01*
X6178563Y-14193936D02*
X6169039Y-14174888D01*
X6169039Y-14174888D02*
X6159515Y-14136793D01*
X6159515Y-14136793D02*
X6159515Y-14089174D01*
X6159515Y-14089174D02*
X6169039Y-14051079D01*
X6169039Y-14051079D02*
X6178563Y-14032031D01*
X6178563Y-14032031D02*
X6188086Y-14022508D01*
X6188086Y-14022508D02*
X6207134Y-14012984D01*
X6359515Y-14193936D02*
X6369039Y-14203460D01*
X6369039Y-14203460D02*
X6359515Y-14212984D01*
X6359515Y-14212984D02*
X6349991Y-14203460D01*
X6349991Y-14203460D02*
X6359515Y-14193936D01*
X6359515Y-14193936D02*
X6359515Y-14212984D01*
X6492848Y-14012984D02*
X6511896Y-14012984D01*
X6511896Y-14012984D02*
X6530944Y-14022508D01*
X6530944Y-14022508D02*
X6540467Y-14032031D01*
X6540467Y-14032031D02*
X6549991Y-14051079D01*
X6549991Y-14051079D02*
X6559515Y-14089174D01*
X6559515Y-14089174D02*
X6559515Y-14136793D01*
X6559515Y-14136793D02*
X6549991Y-14174888D01*
X6549991Y-14174888D02*
X6540467Y-14193936D01*
X6540467Y-14193936D02*
X6530944Y-14203460D01*
X6530944Y-14203460D02*
X6511896Y-14212984D01*
X6511896Y-14212984D02*
X6492848Y-14212984D01*
X6492848Y-14212984D02*
X6473801Y-14203460D01*
X6473801Y-14203460D02*
X6464277Y-14193936D01*
X6464277Y-14193936D02*
X6454753Y-14174888D01*
X6454753Y-14174888D02*
X6445229Y-14136793D01*
X6445229Y-14136793D02*
X6445229Y-14089174D01*
X6445229Y-14089174D02*
X6454753Y-14051079D01*
X6454753Y-14051079D02*
X6464277Y-14032031D01*
X6464277Y-14032031D02*
X6473801Y-14022508D01*
X6473801Y-14022508D02*
X6492848Y-14012984D01*
X6626182Y-14012984D02*
X6749991Y-14012984D01*
X6749991Y-14012984D02*
X6683325Y-14089174D01*
X6683325Y-14089174D02*
X6711896Y-14089174D01*
X6711896Y-14089174D02*
X6730944Y-14098698D01*
X6730944Y-14098698D02*
X6740467Y-14108222D01*
X6740467Y-14108222D02*
X6749991Y-14127269D01*
X6749991Y-14127269D02*
X6749991Y-14174888D01*
X6749991Y-14174888D02*
X6740467Y-14193936D01*
X6740467Y-14193936D02*
X6730944Y-14203460D01*
X6730944Y-14203460D02*
X6711896Y-14212984D01*
X6711896Y-14212984D02*
X6654753Y-14212984D01*
X6654753Y-14212984D02*
X6635706Y-14203460D01*
X6635706Y-14203460D02*
X6626182Y-14193936D01*
X6845229Y-14212984D02*
X6883325Y-14212984D01*
X6883325Y-14212984D02*
X6902372Y-14203460D01*
X6902372Y-14203460D02*
X6911896Y-14193936D01*
X6911896Y-14193936D02*
X6930944Y-14165365D01*
X6930944Y-14165365D02*
X6940467Y-14127269D01*
X6940467Y-14127269D02*
X6940467Y-14051079D01*
X6940467Y-14051079D02*
X6930944Y-14032031D01*
X6930944Y-14032031D02*
X6921420Y-14022508D01*
X6921420Y-14022508D02*
X6902372Y-14012984D01*
X6902372Y-14012984D02*
X6864277Y-14012984D01*
X6864277Y-14012984D02*
X6845229Y-14022508D01*
X6845229Y-14022508D02*
X6835706Y-14032031D01*
X6835706Y-14032031D02*
X6826182Y-14051079D01*
X6826182Y-14051079D02*
X6826182Y-14098698D01*
X6826182Y-14098698D02*
X6835706Y-14117746D01*
X6835706Y-14117746D02*
X6845229Y-14127269D01*
X6845229Y-14127269D02*
X6864277Y-14136793D01*
X6864277Y-14136793D02*
X6902372Y-14136793D01*
X6902372Y-14136793D02*
X6921420Y-14127269D01*
X6921420Y-14127269D02*
X6930944Y-14117746D01*
X6930944Y-14117746D02*
X6940467Y-14098698D01*
X7111896Y-14079650D02*
X7111896Y-14212984D01*
X7064277Y-14003460D02*
X7016658Y-14146317D01*
X7016658Y-14146317D02*
X7140467Y-14146317D01*
X7207134Y-14012984D02*
X7207134Y-14051079D01*
X7283325Y-14012984D02*
X7283325Y-14051079D01*
X7578563Y-14289174D02*
X7569039Y-14279650D01*
X7569039Y-14279650D02*
X7549991Y-14251079D01*
X7549991Y-14251079D02*
X7540468Y-14232031D01*
X7540468Y-14232031D02*
X7530944Y-14203460D01*
X7530944Y-14203460D02*
X7521420Y-14155841D01*
X7521420Y-14155841D02*
X7521420Y-14117746D01*
X7521420Y-14117746D02*
X7530944Y-14070127D01*
X7530944Y-14070127D02*
X7540468Y-14041555D01*
X7540468Y-14041555D02*
X7549991Y-14022508D01*
X7549991Y-14022508D02*
X7569039Y-13993936D01*
X7569039Y-13993936D02*
X7578563Y-13984412D01*
X7635706Y-14012984D02*
X7769039Y-14012984D01*
X7769039Y-14012984D02*
X7683325Y-14212984D01*
X7835706Y-14032031D02*
X7845229Y-14022508D01*
X7845229Y-14022508D02*
X7864277Y-14012984D01*
X7864277Y-14012984D02*
X7911896Y-14012984D01*
X7911896Y-14012984D02*
X7930944Y-14022508D01*
X7930944Y-14022508D02*
X7940468Y-14032031D01*
X7940468Y-14032031D02*
X7949991Y-14051079D01*
X7949991Y-14051079D02*
X7949991Y-14070127D01*
X7949991Y-14070127D02*
X7940468Y-14098698D01*
X7940468Y-14098698D02*
X7826182Y-14212984D01*
X7826182Y-14212984D02*
X7949991Y-14212984D01*
X8188087Y-14212984D02*
X8188087Y-14012984D01*
X8273801Y-14212984D02*
X8273801Y-14108222D01*
X8273801Y-14108222D02*
X8264277Y-14089174D01*
X8264277Y-14089174D02*
X8245230Y-14079650D01*
X8245230Y-14079650D02*
X8216658Y-14079650D01*
X8216658Y-14079650D02*
X8197610Y-14089174D01*
X8197610Y-14089174D02*
X8188087Y-14098698D01*
X8397611Y-14212984D02*
X8378563Y-14203460D01*
X8378563Y-14203460D02*
X8369039Y-14193936D01*
X8369039Y-14193936D02*
X8359515Y-14174888D01*
X8359515Y-14174888D02*
X8359515Y-14117746D01*
X8359515Y-14117746D02*
X8369039Y-14098698D01*
X8369039Y-14098698D02*
X8378563Y-14089174D01*
X8378563Y-14089174D02*
X8397611Y-14079650D01*
X8397611Y-14079650D02*
X8426182Y-14079650D01*
X8426182Y-14079650D02*
X8445230Y-14089174D01*
X8445230Y-14089174D02*
X8454753Y-14098698D01*
X8454753Y-14098698D02*
X8464277Y-14117746D01*
X8464277Y-14117746D02*
X8464277Y-14174888D01*
X8464277Y-14174888D02*
X8454753Y-14193936D01*
X8454753Y-14193936D02*
X8445230Y-14203460D01*
X8445230Y-14203460D02*
X8426182Y-14212984D01*
X8426182Y-14212984D02*
X8397611Y-14212984D01*
X8578563Y-14212984D02*
X8559515Y-14203460D01*
X8559515Y-14203460D02*
X8549992Y-14184412D01*
X8549992Y-14184412D02*
X8549992Y-14012984D01*
X8730944Y-14203460D02*
X8711896Y-14212984D01*
X8711896Y-14212984D02*
X8673801Y-14212984D01*
X8673801Y-14212984D02*
X8654753Y-14203460D01*
X8654753Y-14203460D02*
X8645230Y-14184412D01*
X8645230Y-14184412D02*
X8645230Y-14108222D01*
X8645230Y-14108222D02*
X8654753Y-14089174D01*
X8654753Y-14089174D02*
X8673801Y-14079650D01*
X8673801Y-14079650D02*
X8711896Y-14079650D01*
X8711896Y-14079650D02*
X8730944Y-14089174D01*
X8730944Y-14089174D02*
X8740468Y-14108222D01*
X8740468Y-14108222D02*
X8740468Y-14127269D01*
X8740468Y-14127269D02*
X8645230Y-14146317D01*
X8816658Y-14203460D02*
X8835706Y-14212984D01*
X8835706Y-14212984D02*
X8873801Y-14212984D01*
X8873801Y-14212984D02*
X8892849Y-14203460D01*
X8892849Y-14203460D02*
X8902373Y-14184412D01*
X8902373Y-14184412D02*
X8902373Y-14174888D01*
X8902373Y-14174888D02*
X8892849Y-14155841D01*
X8892849Y-14155841D02*
X8873801Y-14146317D01*
X8873801Y-14146317D02*
X8845230Y-14146317D01*
X8845230Y-14146317D02*
X8826182Y-14136793D01*
X8826182Y-14136793D02*
X8816658Y-14117746D01*
X8816658Y-14117746D02*
X8816658Y-14108222D01*
X8816658Y-14108222D02*
X8826182Y-14089174D01*
X8826182Y-14089174D02*
X8845230Y-14079650D01*
X8845230Y-14079650D02*
X8873801Y-14079650D01*
X8873801Y-14079650D02*
X8892849Y-14089174D01*
X8969039Y-14289174D02*
X8978563Y-14279650D01*
X8978563Y-14279650D02*
X8997611Y-14251079D01*
X8997611Y-14251079D02*
X9007134Y-14232031D01*
X9007134Y-14232031D02*
X9016658Y-14203460D01*
X9016658Y-14203460D02*
X9026182Y-14155841D01*
X9026182Y-14155841D02*
X9026182Y-14117746D01*
X9026182Y-14117746D02*
X9016658Y-14070127D01*
X9016658Y-14070127D02*
X9007134Y-14041555D01*
X9007134Y-14041555D02*
X8997611Y-14022508D01*
X8997611Y-14022508D02*
X8978563Y-13993936D01*
X8978563Y-13993936D02*
X8969039Y-13984412D01*
D12*
X3903500Y-14335500D02*
X4003500Y-14435500D01*
X4003500Y-14335500D02*
X3903500Y-14435500D01*
X3988856Y-14420856D02*
X3988856Y-14350144D01*
X3918144Y-14350144D01*
X3918144Y-14420856D01*
X3988856Y-14420856D01*
D11*
X4369039Y-14476984D02*
X4254753Y-14476984D01*
X4311896Y-14476984D02*
X4311896Y-14276984D01*
X4311896Y-14276984D02*
X4292848Y-14305555D01*
X4292848Y-14305555D02*
X4273801Y-14324603D01*
X4273801Y-14324603D02*
X4254753Y-14334127D01*
X4454753Y-14457936D02*
X4464277Y-14467460D01*
X4464277Y-14467460D02*
X4454753Y-14476984D01*
X4454753Y-14476984D02*
X4445229Y-14467460D01*
X4445229Y-14467460D02*
X4454753Y-14457936D01*
X4454753Y-14457936D02*
X4454753Y-14476984D01*
X4588086Y-14276984D02*
X4607134Y-14276984D01*
X4607134Y-14276984D02*
X4626182Y-14286508D01*
X4626182Y-14286508D02*
X4635705Y-14296031D01*
X4635705Y-14296031D02*
X4645229Y-14315079D01*
X4645229Y-14315079D02*
X4654753Y-14353174D01*
X4654753Y-14353174D02*
X4654753Y-14400793D01*
X4654753Y-14400793D02*
X4645229Y-14438888D01*
X4645229Y-14438888D02*
X4635705Y-14457936D01*
X4635705Y-14457936D02*
X4626182Y-14467460D01*
X4626182Y-14467460D02*
X4607134Y-14476984D01*
X4607134Y-14476984D02*
X4588086Y-14476984D01*
X4588086Y-14476984D02*
X4569039Y-14467460D01*
X4569039Y-14467460D02*
X4559515Y-14457936D01*
X4559515Y-14457936D02*
X4549991Y-14438888D01*
X4549991Y-14438888D02*
X4540467Y-14400793D01*
X4540467Y-14400793D02*
X4540467Y-14353174D01*
X4540467Y-14353174D02*
X4549991Y-14315079D01*
X4549991Y-14315079D02*
X4559515Y-14296031D01*
X4559515Y-14296031D02*
X4569039Y-14286508D01*
X4569039Y-14286508D02*
X4588086Y-14276984D01*
X4778563Y-14276984D02*
X4797610Y-14276984D01*
X4797610Y-14276984D02*
X4816658Y-14286508D01*
X4816658Y-14286508D02*
X4826182Y-14296031D01*
X4826182Y-14296031D02*
X4835705Y-14315079D01*
X4835705Y-14315079D02*
X4845229Y-14353174D01*
X4845229Y-14353174D02*
X4845229Y-14400793D01*
X4845229Y-14400793D02*
X4835705Y-14438888D01*
X4835705Y-14438888D02*
X4826182Y-14457936D01*
X4826182Y-14457936D02*
X4816658Y-14467460D01*
X4816658Y-14467460D02*
X4797610Y-14476984D01*
X4797610Y-14476984D02*
X4778563Y-14476984D01*
X4778563Y-14476984D02*
X4759515Y-14467460D01*
X4759515Y-14467460D02*
X4749991Y-14457936D01*
X4749991Y-14457936D02*
X4740467Y-14438888D01*
X4740467Y-14438888D02*
X4730944Y-14400793D01*
X4730944Y-14400793D02*
X4730944Y-14353174D01*
X4730944Y-14353174D02*
X4740467Y-14315079D01*
X4740467Y-14315079D02*
X4749991Y-14296031D01*
X4749991Y-14296031D02*
X4759515Y-14286508D01*
X4759515Y-14286508D02*
X4778563Y-14276984D01*
X4969039Y-14276984D02*
X4988086Y-14276984D01*
X4988086Y-14276984D02*
X5007134Y-14286508D01*
X5007134Y-14286508D02*
X5016658Y-14296031D01*
X5016658Y-14296031D02*
X5026182Y-14315079D01*
X5026182Y-14315079D02*
X5035705Y-14353174D01*
X5035705Y-14353174D02*
X5035705Y-14400793D01*
X5035705Y-14400793D02*
X5026182Y-14438888D01*
X5026182Y-14438888D02*
X5016658Y-14457936D01*
X5016658Y-14457936D02*
X5007134Y-14467460D01*
X5007134Y-14467460D02*
X4988086Y-14476984D01*
X4988086Y-14476984D02*
X4969039Y-14476984D01*
X4969039Y-14476984D02*
X4949991Y-14467460D01*
X4949991Y-14467460D02*
X4940467Y-14457936D01*
X4940467Y-14457936D02*
X4930944Y-14438888D01*
X4930944Y-14438888D02*
X4921420Y-14400793D01*
X4921420Y-14400793D02*
X4921420Y-14353174D01*
X4921420Y-14353174D02*
X4930944Y-14315079D01*
X4930944Y-14315079D02*
X4940467Y-14296031D01*
X4940467Y-14296031D02*
X4949991Y-14286508D01*
X4949991Y-14286508D02*
X4969039Y-14276984D01*
X5121420Y-14476984D02*
X5121420Y-14343650D01*
X5121420Y-14362698D02*
X5130944Y-14353174D01*
X5130944Y-14353174D02*
X5149991Y-14343650D01*
X5149991Y-14343650D02*
X5178563Y-14343650D01*
X5178563Y-14343650D02*
X5197610Y-14353174D01*
X5197610Y-14353174D02*
X5207134Y-14372222D01*
X5207134Y-14372222D02*
X5207134Y-14476984D01*
X5207134Y-14372222D02*
X5216658Y-14353174D01*
X5216658Y-14353174D02*
X5235705Y-14343650D01*
X5235705Y-14343650D02*
X5264277Y-14343650D01*
X5264277Y-14343650D02*
X5283325Y-14353174D01*
X5283325Y-14353174D02*
X5292848Y-14372222D01*
X5292848Y-14372222D02*
X5292848Y-14476984D01*
X5388086Y-14476984D02*
X5388086Y-14343650D01*
X5388086Y-14362698D02*
X5397610Y-14353174D01*
X5397610Y-14353174D02*
X5416658Y-14343650D01*
X5416658Y-14343650D02*
X5445229Y-14343650D01*
X5445229Y-14343650D02*
X5464277Y-14353174D01*
X5464277Y-14353174D02*
X5473801Y-14372222D01*
X5473801Y-14372222D02*
X5473801Y-14476984D01*
X5473801Y-14372222D02*
X5483325Y-14353174D01*
X5483325Y-14353174D02*
X5502372Y-14343650D01*
X5502372Y-14343650D02*
X5530944Y-14343650D01*
X5530944Y-14343650D02*
X5549991Y-14353174D01*
X5549991Y-14353174D02*
X5559515Y-14372222D01*
X5559515Y-14372222D02*
X5559515Y-14476984D01*
X5949991Y-14267460D02*
X5778563Y-14524603D01*
X6207134Y-14276984D02*
X6226182Y-14276984D01*
X6226182Y-14276984D02*
X6245229Y-14286508D01*
X6245229Y-14286508D02*
X6254753Y-14296031D01*
X6254753Y-14296031D02*
X6264277Y-14315079D01*
X6264277Y-14315079D02*
X6273801Y-14353174D01*
X6273801Y-14353174D02*
X6273801Y-14400793D01*
X6273801Y-14400793D02*
X6264277Y-14438888D01*
X6264277Y-14438888D02*
X6254753Y-14457936D01*
X6254753Y-14457936D02*
X6245229Y-14467460D01*
X6245229Y-14467460D02*
X6226182Y-14476984D01*
X6226182Y-14476984D02*
X6207134Y-14476984D01*
X6207134Y-14476984D02*
X6188086Y-14467460D01*
X6188086Y-14467460D02*
X6178563Y-14457936D01*
X6178563Y-14457936D02*
X6169039Y-14438888D01*
X6169039Y-14438888D02*
X6159515Y-14400793D01*
X6159515Y-14400793D02*
X6159515Y-14353174D01*
X6159515Y-14353174D02*
X6169039Y-14315079D01*
X6169039Y-14315079D02*
X6178563Y-14296031D01*
X6178563Y-14296031D02*
X6188086Y-14286508D01*
X6188086Y-14286508D02*
X6207134Y-14276984D01*
X6359515Y-14457936D02*
X6369039Y-14467460D01*
X6369039Y-14467460D02*
X6359515Y-14476984D01*
X6359515Y-14476984D02*
X6349991Y-14467460D01*
X6349991Y-14467460D02*
X6359515Y-14457936D01*
X6359515Y-14457936D02*
X6359515Y-14476984D01*
X6492848Y-14276984D02*
X6511896Y-14276984D01*
X6511896Y-14276984D02*
X6530944Y-14286508D01*
X6530944Y-14286508D02*
X6540467Y-14296031D01*
X6540467Y-14296031D02*
X6549991Y-14315079D01*
X6549991Y-14315079D02*
X6559515Y-14353174D01*
X6559515Y-14353174D02*
X6559515Y-14400793D01*
X6559515Y-14400793D02*
X6549991Y-14438888D01*
X6549991Y-14438888D02*
X6540467Y-14457936D01*
X6540467Y-14457936D02*
X6530944Y-14467460D01*
X6530944Y-14467460D02*
X6511896Y-14476984D01*
X6511896Y-14476984D02*
X6492848Y-14476984D01*
X6492848Y-14476984D02*
X6473801Y-14467460D01*
X6473801Y-14467460D02*
X6464277Y-14457936D01*
X6464277Y-14457936D02*
X6454753Y-14438888D01*
X6454753Y-14438888D02*
X6445229Y-14400793D01*
X6445229Y-14400793D02*
X6445229Y-14353174D01*
X6445229Y-14353174D02*
X6454753Y-14315079D01*
X6454753Y-14315079D02*
X6464277Y-14296031D01*
X6464277Y-14296031D02*
X6473801Y-14286508D01*
X6473801Y-14286508D02*
X6492848Y-14276984D01*
X6626182Y-14276984D02*
X6749991Y-14276984D01*
X6749991Y-14276984D02*
X6683325Y-14353174D01*
X6683325Y-14353174D02*
X6711896Y-14353174D01*
X6711896Y-14353174D02*
X6730944Y-14362698D01*
X6730944Y-14362698D02*
X6740467Y-14372222D01*
X6740467Y-14372222D02*
X6749991Y-14391269D01*
X6749991Y-14391269D02*
X6749991Y-14438888D01*
X6749991Y-14438888D02*
X6740467Y-14457936D01*
X6740467Y-14457936D02*
X6730944Y-14467460D01*
X6730944Y-14467460D02*
X6711896Y-14476984D01*
X6711896Y-14476984D02*
X6654753Y-14476984D01*
X6654753Y-14476984D02*
X6635706Y-14467460D01*
X6635706Y-14467460D02*
X6626182Y-14457936D01*
X6845229Y-14476984D02*
X6883325Y-14476984D01*
X6883325Y-14476984D02*
X6902372Y-14467460D01*
X6902372Y-14467460D02*
X6911896Y-14457936D01*
X6911896Y-14457936D02*
X6930944Y-14429365D01*
X6930944Y-14429365D02*
X6940467Y-14391269D01*
X6940467Y-14391269D02*
X6940467Y-14315079D01*
X6940467Y-14315079D02*
X6930944Y-14296031D01*
X6930944Y-14296031D02*
X6921420Y-14286508D01*
X6921420Y-14286508D02*
X6902372Y-14276984D01*
X6902372Y-14276984D02*
X6864277Y-14276984D01*
X6864277Y-14276984D02*
X6845229Y-14286508D01*
X6845229Y-14286508D02*
X6835706Y-14296031D01*
X6835706Y-14296031D02*
X6826182Y-14315079D01*
X6826182Y-14315079D02*
X6826182Y-14362698D01*
X6826182Y-14362698D02*
X6835706Y-14381746D01*
X6835706Y-14381746D02*
X6845229Y-14391269D01*
X6845229Y-14391269D02*
X6864277Y-14400793D01*
X6864277Y-14400793D02*
X6902372Y-14400793D01*
X6902372Y-14400793D02*
X6921420Y-14391269D01*
X6921420Y-14391269D02*
X6930944Y-14381746D01*
X6930944Y-14381746D02*
X6940467Y-14362698D01*
X7111896Y-14343650D02*
X7111896Y-14476984D01*
X7064277Y-14267460D02*
X7016658Y-14410317D01*
X7016658Y-14410317D02*
X7140467Y-14410317D01*
X7207134Y-14276984D02*
X7207134Y-14315079D01*
X7283325Y-14276984D02*
X7283325Y-14315079D01*
X7578563Y-14553174D02*
X7569039Y-14543650D01*
X7569039Y-14543650D02*
X7549991Y-14515079D01*
X7549991Y-14515079D02*
X7540468Y-14496031D01*
X7540468Y-14496031D02*
X7530944Y-14467460D01*
X7530944Y-14467460D02*
X7521420Y-14419841D01*
X7521420Y-14419841D02*
X7521420Y-14381746D01*
X7521420Y-14381746D02*
X7530944Y-14334127D01*
X7530944Y-14334127D02*
X7540468Y-14305555D01*
X7540468Y-14305555D02*
X7549991Y-14286508D01*
X7549991Y-14286508D02*
X7569039Y-14257936D01*
X7569039Y-14257936D02*
X7578563Y-14248412D01*
X7635706Y-14276984D02*
X7759515Y-14276984D01*
X7759515Y-14276984D02*
X7692848Y-14353174D01*
X7692848Y-14353174D02*
X7721420Y-14353174D01*
X7721420Y-14353174D02*
X7740468Y-14362698D01*
X7740468Y-14362698D02*
X7749991Y-14372222D01*
X7749991Y-14372222D02*
X7759515Y-14391269D01*
X7759515Y-14391269D02*
X7759515Y-14438888D01*
X7759515Y-14438888D02*
X7749991Y-14457936D01*
X7749991Y-14457936D02*
X7740468Y-14467460D01*
X7740468Y-14467460D02*
X7721420Y-14476984D01*
X7721420Y-14476984D02*
X7664277Y-14476984D01*
X7664277Y-14476984D02*
X7645229Y-14467460D01*
X7645229Y-14467460D02*
X7635706Y-14457936D01*
X7835706Y-14296031D02*
X7845229Y-14286508D01*
X7845229Y-14286508D02*
X7864277Y-14276984D01*
X7864277Y-14276984D02*
X7911896Y-14276984D01*
X7911896Y-14276984D02*
X7930944Y-14286508D01*
X7930944Y-14286508D02*
X7940468Y-14296031D01*
X7940468Y-14296031D02*
X7949991Y-14315079D01*
X7949991Y-14315079D02*
X7949991Y-14334127D01*
X7949991Y-14334127D02*
X7940468Y-14362698D01*
X7940468Y-14362698D02*
X7826182Y-14476984D01*
X7826182Y-14476984D02*
X7949991Y-14476984D01*
X8188087Y-14476984D02*
X8188087Y-14276984D01*
X8273801Y-14476984D02*
X8273801Y-14372222D01*
X8273801Y-14372222D02*
X8264277Y-14353174D01*
X8264277Y-14353174D02*
X8245230Y-14343650D01*
X8245230Y-14343650D02*
X8216658Y-14343650D01*
X8216658Y-14343650D02*
X8197610Y-14353174D01*
X8197610Y-14353174D02*
X8188087Y-14362698D01*
X8397611Y-14476984D02*
X8378563Y-14467460D01*
X8378563Y-14467460D02*
X8369039Y-14457936D01*
X8369039Y-14457936D02*
X8359515Y-14438888D01*
X8359515Y-14438888D02*
X8359515Y-14381746D01*
X8359515Y-14381746D02*
X8369039Y-14362698D01*
X8369039Y-14362698D02*
X8378563Y-14353174D01*
X8378563Y-14353174D02*
X8397611Y-14343650D01*
X8397611Y-14343650D02*
X8426182Y-14343650D01*
X8426182Y-14343650D02*
X8445230Y-14353174D01*
X8445230Y-14353174D02*
X8454753Y-14362698D01*
X8454753Y-14362698D02*
X8464277Y-14381746D01*
X8464277Y-14381746D02*
X8464277Y-14438888D01*
X8464277Y-14438888D02*
X8454753Y-14457936D01*
X8454753Y-14457936D02*
X8445230Y-14467460D01*
X8445230Y-14467460D02*
X8426182Y-14476984D01*
X8426182Y-14476984D02*
X8397611Y-14476984D01*
X8578563Y-14476984D02*
X8559515Y-14467460D01*
X8559515Y-14467460D02*
X8549992Y-14448412D01*
X8549992Y-14448412D02*
X8549992Y-14276984D01*
X8730944Y-14467460D02*
X8711896Y-14476984D01*
X8711896Y-14476984D02*
X8673801Y-14476984D01*
X8673801Y-14476984D02*
X8654753Y-14467460D01*
X8654753Y-14467460D02*
X8645230Y-14448412D01*
X8645230Y-14448412D02*
X8645230Y-14372222D01*
X8645230Y-14372222D02*
X8654753Y-14353174D01*
X8654753Y-14353174D02*
X8673801Y-14343650D01*
X8673801Y-14343650D02*
X8711896Y-14343650D01*
X8711896Y-14343650D02*
X8730944Y-14353174D01*
X8730944Y-14353174D02*
X8740468Y-14372222D01*
X8740468Y-14372222D02*
X8740468Y-14391269D01*
X8740468Y-14391269D02*
X8645230Y-14410317D01*
X8816658Y-14467460D02*
X8835706Y-14476984D01*
X8835706Y-14476984D02*
X8873801Y-14476984D01*
X8873801Y-14476984D02*
X8892849Y-14467460D01*
X8892849Y-14467460D02*
X8902373Y-14448412D01*
X8902373Y-14448412D02*
X8902373Y-14438888D01*
X8902373Y-14438888D02*
X8892849Y-14419841D01*
X8892849Y-14419841D02*
X8873801Y-14410317D01*
X8873801Y-14410317D02*
X8845230Y-14410317D01*
X8845230Y-14410317D02*
X8826182Y-14400793D01*
X8826182Y-14400793D02*
X8816658Y-14381746D01*
X8816658Y-14381746D02*
X8816658Y-14372222D01*
X8816658Y-14372222D02*
X8826182Y-14353174D01*
X8826182Y-14353174D02*
X8845230Y-14343650D01*
X8845230Y-14343650D02*
X8873801Y-14343650D01*
X8873801Y-14343650D02*
X8892849Y-14353174D01*
X8969039Y-14553174D02*
X8978563Y-14543650D01*
X8978563Y-14543650D02*
X8997611Y-14515079D01*
X8997611Y-14515079D02*
X9007134Y-14496031D01*
X9007134Y-14496031D02*
X9016658Y-14467460D01*
X9016658Y-14467460D02*
X9026182Y-14419841D01*
X9026182Y-14419841D02*
X9026182Y-14381746D01*
X9026182Y-14381746D02*
X9016658Y-14334127D01*
X9016658Y-14334127D02*
X9007134Y-14305555D01*
X9007134Y-14305555D02*
X8997611Y-14286508D01*
X8997611Y-14286508D02*
X8978563Y-14257936D01*
X8978563Y-14257936D02*
X8969039Y-14248412D01*
D13*
X3893500Y-14594500D02*
X4003500Y-14704500D01*
X4003500Y-14594500D02*
X3893500Y-14704500D01*
X3948500Y-14704500D02*
X4003500Y-14649500D01*
X3948500Y-14594500D01*
X3893500Y-14649500D01*
X3948500Y-14704500D01*
D11*
X4369039Y-14740984D02*
X4254753Y-14740984D01*
X4311896Y-14740984D02*
X4311896Y-14540984D01*
X4311896Y-14540984D02*
X4292848Y-14569555D01*
X4292848Y-14569555D02*
X4273801Y-14588603D01*
X4273801Y-14588603D02*
X4254753Y-14598127D01*
X4454753Y-14721936D02*
X4464277Y-14731460D01*
X4464277Y-14731460D02*
X4454753Y-14740984D01*
X4454753Y-14740984D02*
X4445229Y-14731460D01*
X4445229Y-14731460D02*
X4454753Y-14721936D01*
X4454753Y-14721936D02*
X4454753Y-14740984D01*
X4654753Y-14740984D02*
X4540467Y-14740984D01*
X4597610Y-14740984D02*
X4597610Y-14540984D01*
X4597610Y-14540984D02*
X4578563Y-14569555D01*
X4578563Y-14569555D02*
X4559515Y-14588603D01*
X4559515Y-14588603D02*
X4540467Y-14598127D01*
X4778563Y-14540984D02*
X4797610Y-14540984D01*
X4797610Y-14540984D02*
X4816658Y-14550508D01*
X4816658Y-14550508D02*
X4826182Y-14560031D01*
X4826182Y-14560031D02*
X4835705Y-14579079D01*
X4835705Y-14579079D02*
X4845229Y-14617174D01*
X4845229Y-14617174D02*
X4845229Y-14664793D01*
X4845229Y-14664793D02*
X4835705Y-14702888D01*
X4835705Y-14702888D02*
X4826182Y-14721936D01*
X4826182Y-14721936D02*
X4816658Y-14731460D01*
X4816658Y-14731460D02*
X4797610Y-14740984D01*
X4797610Y-14740984D02*
X4778563Y-14740984D01*
X4778563Y-14740984D02*
X4759515Y-14731460D01*
X4759515Y-14731460D02*
X4749991Y-14721936D01*
X4749991Y-14721936D02*
X4740467Y-14702888D01*
X4740467Y-14702888D02*
X4730944Y-14664793D01*
X4730944Y-14664793D02*
X4730944Y-14617174D01*
X4730944Y-14617174D02*
X4740467Y-14579079D01*
X4740467Y-14579079D02*
X4749991Y-14560031D01*
X4749991Y-14560031D02*
X4759515Y-14550508D01*
X4759515Y-14550508D02*
X4778563Y-14540984D01*
X4969039Y-14540984D02*
X4988086Y-14540984D01*
X4988086Y-14540984D02*
X5007134Y-14550508D01*
X5007134Y-14550508D02*
X5016658Y-14560031D01*
X5016658Y-14560031D02*
X5026182Y-14579079D01*
X5026182Y-14579079D02*
X5035705Y-14617174D01*
X5035705Y-14617174D02*
X5035705Y-14664793D01*
X5035705Y-14664793D02*
X5026182Y-14702888D01*
X5026182Y-14702888D02*
X5016658Y-14721936D01*
X5016658Y-14721936D02*
X5007134Y-14731460D01*
X5007134Y-14731460D02*
X4988086Y-14740984D01*
X4988086Y-14740984D02*
X4969039Y-14740984D01*
X4969039Y-14740984D02*
X4949991Y-14731460D01*
X4949991Y-14731460D02*
X4940467Y-14721936D01*
X4940467Y-14721936D02*
X4930944Y-14702888D01*
X4930944Y-14702888D02*
X4921420Y-14664793D01*
X4921420Y-14664793D02*
X4921420Y-14617174D01*
X4921420Y-14617174D02*
X4930944Y-14579079D01*
X4930944Y-14579079D02*
X4940467Y-14560031D01*
X4940467Y-14560031D02*
X4949991Y-14550508D01*
X4949991Y-14550508D02*
X4969039Y-14540984D01*
X5121420Y-14740984D02*
X5121420Y-14607650D01*
X5121420Y-14626698D02*
X5130944Y-14617174D01*
X5130944Y-14617174D02*
X5149991Y-14607650D01*
X5149991Y-14607650D02*
X5178563Y-14607650D01*
X5178563Y-14607650D02*
X5197610Y-14617174D01*
X5197610Y-14617174D02*
X5207134Y-14636222D01*
X5207134Y-14636222D02*
X5207134Y-14740984D01*
X5207134Y-14636222D02*
X5216658Y-14617174D01*
X5216658Y-14617174D02*
X5235705Y-14607650D01*
X5235705Y-14607650D02*
X5264277Y-14607650D01*
X5264277Y-14607650D02*
X5283325Y-14617174D01*
X5283325Y-14617174D02*
X5292848Y-14636222D01*
X5292848Y-14636222D02*
X5292848Y-14740984D01*
X5388086Y-14740984D02*
X5388086Y-14607650D01*
X5388086Y-14626698D02*
X5397610Y-14617174D01*
X5397610Y-14617174D02*
X5416658Y-14607650D01*
X5416658Y-14607650D02*
X5445229Y-14607650D01*
X5445229Y-14607650D02*
X5464277Y-14617174D01*
X5464277Y-14617174D02*
X5473801Y-14636222D01*
X5473801Y-14636222D02*
X5473801Y-14740984D01*
X5473801Y-14636222D02*
X5483325Y-14617174D01*
X5483325Y-14617174D02*
X5502372Y-14607650D01*
X5502372Y-14607650D02*
X5530944Y-14607650D01*
X5530944Y-14607650D02*
X5549991Y-14617174D01*
X5549991Y-14617174D02*
X5559515Y-14636222D01*
X5559515Y-14636222D02*
X5559515Y-14740984D01*
X5949991Y-14531460D02*
X5778563Y-14788603D01*
X6207134Y-14540984D02*
X6226182Y-14540984D01*
X6226182Y-14540984D02*
X6245229Y-14550508D01*
X6245229Y-14550508D02*
X6254753Y-14560031D01*
X6254753Y-14560031D02*
X6264277Y-14579079D01*
X6264277Y-14579079D02*
X6273801Y-14617174D01*
X6273801Y-14617174D02*
X6273801Y-14664793D01*
X6273801Y-14664793D02*
X6264277Y-14702888D01*
X6264277Y-14702888D02*
X6254753Y-14721936D01*
X6254753Y-14721936D02*
X6245229Y-14731460D01*
X6245229Y-14731460D02*
X6226182Y-14740984D01*
X6226182Y-14740984D02*
X6207134Y-14740984D01*
X6207134Y-14740984D02*
X6188086Y-14731460D01*
X6188086Y-14731460D02*
X6178563Y-14721936D01*
X6178563Y-14721936D02*
X6169039Y-14702888D01*
X6169039Y-14702888D02*
X6159515Y-14664793D01*
X6159515Y-14664793D02*
X6159515Y-14617174D01*
X6159515Y-14617174D02*
X6169039Y-14579079D01*
X6169039Y-14579079D02*
X6178563Y-14560031D01*
X6178563Y-14560031D02*
X6188086Y-14550508D01*
X6188086Y-14550508D02*
X6207134Y-14540984D01*
X6359515Y-14721936D02*
X6369039Y-14731460D01*
X6369039Y-14731460D02*
X6359515Y-14740984D01*
X6359515Y-14740984D02*
X6349991Y-14731460D01*
X6349991Y-14731460D02*
X6359515Y-14721936D01*
X6359515Y-14721936D02*
X6359515Y-14740984D01*
X6492848Y-14540984D02*
X6511896Y-14540984D01*
X6511896Y-14540984D02*
X6530944Y-14550508D01*
X6530944Y-14550508D02*
X6540467Y-14560031D01*
X6540467Y-14560031D02*
X6549991Y-14579079D01*
X6549991Y-14579079D02*
X6559515Y-14617174D01*
X6559515Y-14617174D02*
X6559515Y-14664793D01*
X6559515Y-14664793D02*
X6549991Y-14702888D01*
X6549991Y-14702888D02*
X6540467Y-14721936D01*
X6540467Y-14721936D02*
X6530944Y-14731460D01*
X6530944Y-14731460D02*
X6511896Y-14740984D01*
X6511896Y-14740984D02*
X6492848Y-14740984D01*
X6492848Y-14740984D02*
X6473801Y-14731460D01*
X6473801Y-14731460D02*
X6464277Y-14721936D01*
X6464277Y-14721936D02*
X6454753Y-14702888D01*
X6454753Y-14702888D02*
X6445229Y-14664793D01*
X6445229Y-14664793D02*
X6445229Y-14617174D01*
X6445229Y-14617174D02*
X6454753Y-14579079D01*
X6454753Y-14579079D02*
X6464277Y-14560031D01*
X6464277Y-14560031D02*
X6473801Y-14550508D01*
X6473801Y-14550508D02*
X6492848Y-14540984D01*
X6730944Y-14607650D02*
X6730944Y-14740984D01*
X6683325Y-14531460D02*
X6635706Y-14674317D01*
X6635706Y-14674317D02*
X6759515Y-14674317D01*
X6816658Y-14540984D02*
X6940467Y-14540984D01*
X6940467Y-14540984D02*
X6873801Y-14617174D01*
X6873801Y-14617174D02*
X6902372Y-14617174D01*
X6902372Y-14617174D02*
X6921420Y-14626698D01*
X6921420Y-14626698D02*
X6930944Y-14636222D01*
X6930944Y-14636222D02*
X6940467Y-14655269D01*
X6940467Y-14655269D02*
X6940467Y-14702888D01*
X6940467Y-14702888D02*
X6930944Y-14721936D01*
X6930944Y-14721936D02*
X6921420Y-14731460D01*
X6921420Y-14731460D02*
X6902372Y-14740984D01*
X6902372Y-14740984D02*
X6845229Y-14740984D01*
X6845229Y-14740984D02*
X6826182Y-14731460D01*
X6826182Y-14731460D02*
X6816658Y-14721936D01*
X7007134Y-14540984D02*
X7130944Y-14540984D01*
X7130944Y-14540984D02*
X7064277Y-14617174D01*
X7064277Y-14617174D02*
X7092848Y-14617174D01*
X7092848Y-14617174D02*
X7111896Y-14626698D01*
X7111896Y-14626698D02*
X7121420Y-14636222D01*
X7121420Y-14636222D02*
X7130944Y-14655269D01*
X7130944Y-14655269D02*
X7130944Y-14702888D01*
X7130944Y-14702888D02*
X7121420Y-14721936D01*
X7121420Y-14721936D02*
X7111896Y-14731460D01*
X7111896Y-14731460D02*
X7092848Y-14740984D01*
X7092848Y-14740984D02*
X7035706Y-14740984D01*
X7035706Y-14740984D02*
X7016658Y-14731460D01*
X7016658Y-14731460D02*
X7007134Y-14721936D01*
X7207134Y-14540984D02*
X7207134Y-14579079D01*
X7283325Y-14540984D02*
X7283325Y-14579079D01*
X7578563Y-14817174D02*
X7569039Y-14807650D01*
X7569039Y-14807650D02*
X7549991Y-14779079D01*
X7549991Y-14779079D02*
X7540468Y-14760031D01*
X7540468Y-14760031D02*
X7530944Y-14731460D01*
X7530944Y-14731460D02*
X7521420Y-14683841D01*
X7521420Y-14683841D02*
X7521420Y-14645746D01*
X7521420Y-14645746D02*
X7530944Y-14598127D01*
X7530944Y-14598127D02*
X7540468Y-14569555D01*
X7540468Y-14569555D02*
X7549991Y-14550508D01*
X7549991Y-14550508D02*
X7569039Y-14521936D01*
X7569039Y-14521936D02*
X7578563Y-14512412D01*
X7740468Y-14607650D02*
X7740468Y-14740984D01*
X7692848Y-14531460D02*
X7645229Y-14674317D01*
X7645229Y-14674317D02*
X7769039Y-14674317D01*
X7997610Y-14740984D02*
X7997610Y-14540984D01*
X8083325Y-14740984D02*
X8083325Y-14636222D01*
X8083325Y-14636222D02*
X8073801Y-14617174D01*
X8073801Y-14617174D02*
X8054753Y-14607650D01*
X8054753Y-14607650D02*
X8026182Y-14607650D01*
X8026182Y-14607650D02*
X8007134Y-14617174D01*
X8007134Y-14617174D02*
X7997610Y-14626698D01*
X8207134Y-14740984D02*
X8188087Y-14731460D01*
X8188087Y-14731460D02*
X8178563Y-14721936D01*
X8178563Y-14721936D02*
X8169039Y-14702888D01*
X8169039Y-14702888D02*
X8169039Y-14645746D01*
X8169039Y-14645746D02*
X8178563Y-14626698D01*
X8178563Y-14626698D02*
X8188087Y-14617174D01*
X8188087Y-14617174D02*
X8207134Y-14607650D01*
X8207134Y-14607650D02*
X8235706Y-14607650D01*
X8235706Y-14607650D02*
X8254753Y-14617174D01*
X8254753Y-14617174D02*
X8264277Y-14626698D01*
X8264277Y-14626698D02*
X8273801Y-14645746D01*
X8273801Y-14645746D02*
X8273801Y-14702888D01*
X8273801Y-14702888D02*
X8264277Y-14721936D01*
X8264277Y-14721936D02*
X8254753Y-14731460D01*
X8254753Y-14731460D02*
X8235706Y-14740984D01*
X8235706Y-14740984D02*
X8207134Y-14740984D01*
X8388087Y-14740984D02*
X8369039Y-14731460D01*
X8369039Y-14731460D02*
X8359515Y-14712412D01*
X8359515Y-14712412D02*
X8359515Y-14540984D01*
X8540468Y-14731460D02*
X8521420Y-14740984D01*
X8521420Y-14740984D02*
X8483325Y-14740984D01*
X8483325Y-14740984D02*
X8464277Y-14731460D01*
X8464277Y-14731460D02*
X8454753Y-14712412D01*
X8454753Y-14712412D02*
X8454753Y-14636222D01*
X8454753Y-14636222D02*
X8464277Y-14617174D01*
X8464277Y-14617174D02*
X8483325Y-14607650D01*
X8483325Y-14607650D02*
X8521420Y-14607650D01*
X8521420Y-14607650D02*
X8540468Y-14617174D01*
X8540468Y-14617174D02*
X8549992Y-14636222D01*
X8549992Y-14636222D02*
X8549992Y-14655269D01*
X8549992Y-14655269D02*
X8454753Y-14674317D01*
X8626182Y-14731460D02*
X8645230Y-14740984D01*
X8645230Y-14740984D02*
X8683325Y-14740984D01*
X8683325Y-14740984D02*
X8702373Y-14731460D01*
X8702373Y-14731460D02*
X8711896Y-14712412D01*
X8711896Y-14712412D02*
X8711896Y-14702888D01*
X8711896Y-14702888D02*
X8702373Y-14683841D01*
X8702373Y-14683841D02*
X8683325Y-14674317D01*
X8683325Y-14674317D02*
X8654753Y-14674317D01*
X8654753Y-14674317D02*
X8635706Y-14664793D01*
X8635706Y-14664793D02*
X8626182Y-14645746D01*
X8626182Y-14645746D02*
X8626182Y-14636222D01*
X8626182Y-14636222D02*
X8635706Y-14617174D01*
X8635706Y-14617174D02*
X8654753Y-14607650D01*
X8654753Y-14607650D02*
X8683325Y-14607650D01*
X8683325Y-14607650D02*
X8702373Y-14617174D01*
X8778563Y-14817174D02*
X8788087Y-14807650D01*
X8788087Y-14807650D02*
X8807134Y-14779079D01*
X8807134Y-14779079D02*
X8816658Y-14760031D01*
X8816658Y-14760031D02*
X8826182Y-14731460D01*
X8826182Y-14731460D02*
X8835706Y-14683841D01*
X8835706Y-14683841D02*
X8835706Y-14645746D01*
X8835706Y-14645746D02*
X8826182Y-14598127D01*
X8826182Y-14598127D02*
X8816658Y-14569555D01*
X8816658Y-14569555D02*
X8807134Y-14550508D01*
X8807134Y-14550508D02*
X8788087Y-14521936D01*
X8788087Y-14521936D02*
X8778563Y-14512412D01*
D14*
X3927500Y-14837500D02*
X3927500Y-14989500D01*
X3851500Y-14913500D02*
X4003500Y-14913500D01*
X4003500Y-14913500D02*
G75*
G02*
X3851500Y-14913500I-76000J0D01*
G01*
X3851500Y-14913500D02*
G75*
G02*
X4003500Y-14913500I76000J0D01*
G01*
D11*
X4369039Y-15004984D02*
X4254753Y-15004984D01*
X4311896Y-15004984D02*
X4311896Y-14804984D01*
X4311896Y-14804984D02*
X4292848Y-14833555D01*
X4292848Y-14833555D02*
X4273801Y-14852603D01*
X4273801Y-14852603D02*
X4254753Y-14862127D01*
X4454753Y-14985936D02*
X4464277Y-14995460D01*
X4464277Y-14995460D02*
X4454753Y-15004984D01*
X4454753Y-15004984D02*
X4445229Y-14995460D01*
X4445229Y-14995460D02*
X4454753Y-14985936D01*
X4454753Y-14985936D02*
X4454753Y-15004984D01*
X4645229Y-14804984D02*
X4549991Y-14804984D01*
X4549991Y-14804984D02*
X4540467Y-14900222D01*
X4540467Y-14900222D02*
X4549991Y-14890698D01*
X4549991Y-14890698D02*
X4569039Y-14881174D01*
X4569039Y-14881174D02*
X4616658Y-14881174D01*
X4616658Y-14881174D02*
X4635705Y-14890698D01*
X4635705Y-14890698D02*
X4645229Y-14900222D01*
X4645229Y-14900222D02*
X4654753Y-14919269D01*
X4654753Y-14919269D02*
X4654753Y-14966888D01*
X4654753Y-14966888D02*
X4645229Y-14985936D01*
X4645229Y-14985936D02*
X4635705Y-14995460D01*
X4635705Y-14995460D02*
X4616658Y-15004984D01*
X4616658Y-15004984D02*
X4569039Y-15004984D01*
X4569039Y-15004984D02*
X4549991Y-14995460D01*
X4549991Y-14995460D02*
X4540467Y-14985936D01*
X4730944Y-14824031D02*
X4740467Y-14814508D01*
X4740467Y-14814508D02*
X4759515Y-14804984D01*
X4759515Y-14804984D02*
X4807134Y-14804984D01*
X4807134Y-14804984D02*
X4826182Y-14814508D01*
X4826182Y-14814508D02*
X4835705Y-14824031D01*
X4835705Y-14824031D02*
X4845229Y-14843079D01*
X4845229Y-14843079D02*
X4845229Y-14862127D01*
X4845229Y-14862127D02*
X4835705Y-14890698D01*
X4835705Y-14890698D02*
X4721420Y-15004984D01*
X4721420Y-15004984D02*
X4845229Y-15004984D01*
X4969039Y-14804984D02*
X4988086Y-14804984D01*
X4988086Y-14804984D02*
X5007134Y-14814508D01*
X5007134Y-14814508D02*
X5016658Y-14824031D01*
X5016658Y-14824031D02*
X5026182Y-14843079D01*
X5026182Y-14843079D02*
X5035705Y-14881174D01*
X5035705Y-14881174D02*
X5035705Y-14928793D01*
X5035705Y-14928793D02*
X5026182Y-14966888D01*
X5026182Y-14966888D02*
X5016658Y-14985936D01*
X5016658Y-14985936D02*
X5007134Y-14995460D01*
X5007134Y-14995460D02*
X4988086Y-15004984D01*
X4988086Y-15004984D02*
X4969039Y-15004984D01*
X4969039Y-15004984D02*
X4949991Y-14995460D01*
X4949991Y-14995460D02*
X4940467Y-14985936D01*
X4940467Y-14985936D02*
X4930944Y-14966888D01*
X4930944Y-14966888D02*
X4921420Y-14928793D01*
X4921420Y-14928793D02*
X4921420Y-14881174D01*
X4921420Y-14881174D02*
X4930944Y-14843079D01*
X4930944Y-14843079D02*
X4940467Y-14824031D01*
X4940467Y-14824031D02*
X4949991Y-14814508D01*
X4949991Y-14814508D02*
X4969039Y-14804984D01*
X5121420Y-15004984D02*
X5121420Y-14871650D01*
X5121420Y-14890698D02*
X5130944Y-14881174D01*
X5130944Y-14881174D02*
X5149991Y-14871650D01*
X5149991Y-14871650D02*
X5178563Y-14871650D01*
X5178563Y-14871650D02*
X5197610Y-14881174D01*
X5197610Y-14881174D02*
X5207134Y-14900222D01*
X5207134Y-14900222D02*
X5207134Y-15004984D01*
X5207134Y-14900222D02*
X5216658Y-14881174D01*
X5216658Y-14881174D02*
X5235705Y-14871650D01*
X5235705Y-14871650D02*
X5264277Y-14871650D01*
X5264277Y-14871650D02*
X5283325Y-14881174D01*
X5283325Y-14881174D02*
X5292848Y-14900222D01*
X5292848Y-14900222D02*
X5292848Y-15004984D01*
X5388086Y-15004984D02*
X5388086Y-14871650D01*
X5388086Y-14890698D02*
X5397610Y-14881174D01*
X5397610Y-14881174D02*
X5416658Y-14871650D01*
X5416658Y-14871650D02*
X5445229Y-14871650D01*
X5445229Y-14871650D02*
X5464277Y-14881174D01*
X5464277Y-14881174D02*
X5473801Y-14900222D01*
X5473801Y-14900222D02*
X5473801Y-15004984D01*
X5473801Y-14900222D02*
X5483325Y-14881174D01*
X5483325Y-14881174D02*
X5502372Y-14871650D01*
X5502372Y-14871650D02*
X5530944Y-14871650D01*
X5530944Y-14871650D02*
X5549991Y-14881174D01*
X5549991Y-14881174D02*
X5559515Y-14900222D01*
X5559515Y-14900222D02*
X5559515Y-15004984D01*
X5949991Y-14795460D02*
X5778563Y-15052603D01*
X6207134Y-14804984D02*
X6226182Y-14804984D01*
X6226182Y-14804984D02*
X6245229Y-14814508D01*
X6245229Y-14814508D02*
X6254753Y-14824031D01*
X6254753Y-14824031D02*
X6264277Y-14843079D01*
X6264277Y-14843079D02*
X6273801Y-14881174D01*
X6273801Y-14881174D02*
X6273801Y-14928793D01*
X6273801Y-14928793D02*
X6264277Y-14966888D01*
X6264277Y-14966888D02*
X6254753Y-14985936D01*
X6254753Y-14985936D02*
X6245229Y-14995460D01*
X6245229Y-14995460D02*
X6226182Y-15004984D01*
X6226182Y-15004984D02*
X6207134Y-15004984D01*
X6207134Y-15004984D02*
X6188086Y-14995460D01*
X6188086Y-14995460D02*
X6178563Y-14985936D01*
X6178563Y-14985936D02*
X6169039Y-14966888D01*
X6169039Y-14966888D02*
X6159515Y-14928793D01*
X6159515Y-14928793D02*
X6159515Y-14881174D01*
X6159515Y-14881174D02*
X6169039Y-14843079D01*
X6169039Y-14843079D02*
X6178563Y-14824031D01*
X6178563Y-14824031D02*
X6188086Y-14814508D01*
X6188086Y-14814508D02*
X6207134Y-14804984D01*
X6359515Y-14985936D02*
X6369039Y-14995460D01*
X6369039Y-14995460D02*
X6359515Y-15004984D01*
X6359515Y-15004984D02*
X6349991Y-14995460D01*
X6349991Y-14995460D02*
X6359515Y-14985936D01*
X6359515Y-14985936D02*
X6359515Y-15004984D01*
X6492848Y-14804984D02*
X6511896Y-14804984D01*
X6511896Y-14804984D02*
X6530944Y-14814508D01*
X6530944Y-14814508D02*
X6540467Y-14824031D01*
X6540467Y-14824031D02*
X6549991Y-14843079D01*
X6549991Y-14843079D02*
X6559515Y-14881174D01*
X6559515Y-14881174D02*
X6559515Y-14928793D01*
X6559515Y-14928793D02*
X6549991Y-14966888D01*
X6549991Y-14966888D02*
X6540467Y-14985936D01*
X6540467Y-14985936D02*
X6530944Y-14995460D01*
X6530944Y-14995460D02*
X6511896Y-15004984D01*
X6511896Y-15004984D02*
X6492848Y-15004984D01*
X6492848Y-15004984D02*
X6473801Y-14995460D01*
X6473801Y-14995460D02*
X6464277Y-14985936D01*
X6464277Y-14985936D02*
X6454753Y-14966888D01*
X6454753Y-14966888D02*
X6445229Y-14928793D01*
X6445229Y-14928793D02*
X6445229Y-14881174D01*
X6445229Y-14881174D02*
X6454753Y-14843079D01*
X6454753Y-14843079D02*
X6464277Y-14824031D01*
X6464277Y-14824031D02*
X6473801Y-14814508D01*
X6473801Y-14814508D02*
X6492848Y-14804984D01*
X6740467Y-14804984D02*
X6645229Y-14804984D01*
X6645229Y-14804984D02*
X6635706Y-14900222D01*
X6635706Y-14900222D02*
X6645229Y-14890698D01*
X6645229Y-14890698D02*
X6664277Y-14881174D01*
X6664277Y-14881174D02*
X6711896Y-14881174D01*
X6711896Y-14881174D02*
X6730944Y-14890698D01*
X6730944Y-14890698D02*
X6740467Y-14900222D01*
X6740467Y-14900222D02*
X6749991Y-14919269D01*
X6749991Y-14919269D02*
X6749991Y-14966888D01*
X6749991Y-14966888D02*
X6740467Y-14985936D01*
X6740467Y-14985936D02*
X6730944Y-14995460D01*
X6730944Y-14995460D02*
X6711896Y-15004984D01*
X6711896Y-15004984D02*
X6664277Y-15004984D01*
X6664277Y-15004984D02*
X6645229Y-14995460D01*
X6645229Y-14995460D02*
X6635706Y-14985936D01*
X6845229Y-15004984D02*
X6883325Y-15004984D01*
X6883325Y-15004984D02*
X6902372Y-14995460D01*
X6902372Y-14995460D02*
X6911896Y-14985936D01*
X6911896Y-14985936D02*
X6930944Y-14957365D01*
X6930944Y-14957365D02*
X6940467Y-14919269D01*
X6940467Y-14919269D02*
X6940467Y-14843079D01*
X6940467Y-14843079D02*
X6930944Y-14824031D01*
X6930944Y-14824031D02*
X6921420Y-14814508D01*
X6921420Y-14814508D02*
X6902372Y-14804984D01*
X6902372Y-14804984D02*
X6864277Y-14804984D01*
X6864277Y-14804984D02*
X6845229Y-14814508D01*
X6845229Y-14814508D02*
X6835706Y-14824031D01*
X6835706Y-14824031D02*
X6826182Y-14843079D01*
X6826182Y-14843079D02*
X6826182Y-14890698D01*
X6826182Y-14890698D02*
X6835706Y-14909746D01*
X6835706Y-14909746D02*
X6845229Y-14919269D01*
X6845229Y-14919269D02*
X6864277Y-14928793D01*
X6864277Y-14928793D02*
X6902372Y-14928793D01*
X6902372Y-14928793D02*
X6921420Y-14919269D01*
X6921420Y-14919269D02*
X6930944Y-14909746D01*
X6930944Y-14909746D02*
X6940467Y-14890698D01*
X7054753Y-14890698D02*
X7035706Y-14881174D01*
X7035706Y-14881174D02*
X7026182Y-14871650D01*
X7026182Y-14871650D02*
X7016658Y-14852603D01*
X7016658Y-14852603D02*
X7016658Y-14843079D01*
X7016658Y-14843079D02*
X7026182Y-14824031D01*
X7026182Y-14824031D02*
X7035706Y-14814508D01*
X7035706Y-14814508D02*
X7054753Y-14804984D01*
X7054753Y-14804984D02*
X7092848Y-14804984D01*
X7092848Y-14804984D02*
X7111896Y-14814508D01*
X7111896Y-14814508D02*
X7121420Y-14824031D01*
X7121420Y-14824031D02*
X7130944Y-14843079D01*
X7130944Y-14843079D02*
X7130944Y-14852603D01*
X7130944Y-14852603D02*
X7121420Y-14871650D01*
X7121420Y-14871650D02*
X7111896Y-14881174D01*
X7111896Y-14881174D02*
X7092848Y-14890698D01*
X7092848Y-14890698D02*
X7054753Y-14890698D01*
X7054753Y-14890698D02*
X7035706Y-14900222D01*
X7035706Y-14900222D02*
X7026182Y-14909746D01*
X7026182Y-14909746D02*
X7016658Y-14928793D01*
X7016658Y-14928793D02*
X7016658Y-14966888D01*
X7016658Y-14966888D02*
X7026182Y-14985936D01*
X7026182Y-14985936D02*
X7035706Y-14995460D01*
X7035706Y-14995460D02*
X7054753Y-15004984D01*
X7054753Y-15004984D02*
X7092848Y-15004984D01*
X7092848Y-15004984D02*
X7111896Y-14995460D01*
X7111896Y-14995460D02*
X7121420Y-14985936D01*
X7121420Y-14985936D02*
X7130944Y-14966888D01*
X7130944Y-14966888D02*
X7130944Y-14928793D01*
X7130944Y-14928793D02*
X7121420Y-14909746D01*
X7121420Y-14909746D02*
X7111896Y-14900222D01*
X7111896Y-14900222D02*
X7092848Y-14890698D01*
X7207134Y-14804984D02*
X7207134Y-14843079D01*
X7283325Y-14804984D02*
X7283325Y-14843079D01*
X7578563Y-15081174D02*
X7569039Y-15071650D01*
X7569039Y-15071650D02*
X7549991Y-15043079D01*
X7549991Y-15043079D02*
X7540468Y-15024031D01*
X7540468Y-15024031D02*
X7530944Y-14995460D01*
X7530944Y-14995460D02*
X7521420Y-14947841D01*
X7521420Y-14947841D02*
X7521420Y-14909746D01*
X7521420Y-14909746D02*
X7530944Y-14862127D01*
X7530944Y-14862127D02*
X7540468Y-14833555D01*
X7540468Y-14833555D02*
X7549991Y-14814508D01*
X7549991Y-14814508D02*
X7569039Y-14785936D01*
X7569039Y-14785936D02*
X7578563Y-14776412D01*
X7683325Y-14890698D02*
X7664277Y-14881174D01*
X7664277Y-14881174D02*
X7654753Y-14871650D01*
X7654753Y-14871650D02*
X7645229Y-14852603D01*
X7645229Y-14852603D02*
X7645229Y-14843079D01*
X7645229Y-14843079D02*
X7654753Y-14824031D01*
X7654753Y-14824031D02*
X7664277Y-14814508D01*
X7664277Y-14814508D02*
X7683325Y-14804984D01*
X7683325Y-14804984D02*
X7721420Y-14804984D01*
X7721420Y-14804984D02*
X7740468Y-14814508D01*
X7740468Y-14814508D02*
X7749991Y-14824031D01*
X7749991Y-14824031D02*
X7759515Y-14843079D01*
X7759515Y-14843079D02*
X7759515Y-14852603D01*
X7759515Y-14852603D02*
X7749991Y-14871650D01*
X7749991Y-14871650D02*
X7740468Y-14881174D01*
X7740468Y-14881174D02*
X7721420Y-14890698D01*
X7721420Y-14890698D02*
X7683325Y-14890698D01*
X7683325Y-14890698D02*
X7664277Y-14900222D01*
X7664277Y-14900222D02*
X7654753Y-14909746D01*
X7654753Y-14909746D02*
X7645229Y-14928793D01*
X7645229Y-14928793D02*
X7645229Y-14966888D01*
X7645229Y-14966888D02*
X7654753Y-14985936D01*
X7654753Y-14985936D02*
X7664277Y-14995460D01*
X7664277Y-14995460D02*
X7683325Y-15004984D01*
X7683325Y-15004984D02*
X7721420Y-15004984D01*
X7721420Y-15004984D02*
X7740468Y-14995460D01*
X7740468Y-14995460D02*
X7749991Y-14985936D01*
X7749991Y-14985936D02*
X7759515Y-14966888D01*
X7759515Y-14966888D02*
X7759515Y-14928793D01*
X7759515Y-14928793D02*
X7749991Y-14909746D01*
X7749991Y-14909746D02*
X7740468Y-14900222D01*
X7740468Y-14900222D02*
X7721420Y-14890698D01*
X7997610Y-15004984D02*
X7997610Y-14804984D01*
X8083325Y-15004984D02*
X8083325Y-14900222D01*
X8083325Y-14900222D02*
X8073801Y-14881174D01*
X8073801Y-14881174D02*
X8054753Y-14871650D01*
X8054753Y-14871650D02*
X8026182Y-14871650D01*
X8026182Y-14871650D02*
X8007134Y-14881174D01*
X8007134Y-14881174D02*
X7997610Y-14890698D01*
X8207134Y-15004984D02*
X8188087Y-14995460D01*
X8188087Y-14995460D02*
X8178563Y-14985936D01*
X8178563Y-14985936D02*
X8169039Y-14966888D01*
X8169039Y-14966888D02*
X8169039Y-14909746D01*
X8169039Y-14909746D02*
X8178563Y-14890698D01*
X8178563Y-14890698D02*
X8188087Y-14881174D01*
X8188087Y-14881174D02*
X8207134Y-14871650D01*
X8207134Y-14871650D02*
X8235706Y-14871650D01*
X8235706Y-14871650D02*
X8254753Y-14881174D01*
X8254753Y-14881174D02*
X8264277Y-14890698D01*
X8264277Y-14890698D02*
X8273801Y-14909746D01*
X8273801Y-14909746D02*
X8273801Y-14966888D01*
X8273801Y-14966888D02*
X8264277Y-14985936D01*
X8264277Y-14985936D02*
X8254753Y-14995460D01*
X8254753Y-14995460D02*
X8235706Y-15004984D01*
X8235706Y-15004984D02*
X8207134Y-15004984D01*
X8388087Y-15004984D02*
X8369039Y-14995460D01*
X8369039Y-14995460D02*
X8359515Y-14976412D01*
X8359515Y-14976412D02*
X8359515Y-14804984D01*
X8540468Y-14995460D02*
X8521420Y-15004984D01*
X8521420Y-15004984D02*
X8483325Y-15004984D01*
X8483325Y-15004984D02*
X8464277Y-14995460D01*
X8464277Y-14995460D02*
X8454753Y-14976412D01*
X8454753Y-14976412D02*
X8454753Y-14900222D01*
X8454753Y-14900222D02*
X8464277Y-14881174D01*
X8464277Y-14881174D02*
X8483325Y-14871650D01*
X8483325Y-14871650D02*
X8521420Y-14871650D01*
X8521420Y-14871650D02*
X8540468Y-14881174D01*
X8540468Y-14881174D02*
X8549992Y-14900222D01*
X8549992Y-14900222D02*
X8549992Y-14919269D01*
X8549992Y-14919269D02*
X8454753Y-14938317D01*
X8626182Y-14995460D02*
X8645230Y-15004984D01*
X8645230Y-15004984D02*
X8683325Y-15004984D01*
X8683325Y-15004984D02*
X8702373Y-14995460D01*
X8702373Y-14995460D02*
X8711896Y-14976412D01*
X8711896Y-14976412D02*
X8711896Y-14966888D01*
X8711896Y-14966888D02*
X8702373Y-14947841D01*
X8702373Y-14947841D02*
X8683325Y-14938317D01*
X8683325Y-14938317D02*
X8654753Y-14938317D01*
X8654753Y-14938317D02*
X8635706Y-14928793D01*
X8635706Y-14928793D02*
X8626182Y-14909746D01*
X8626182Y-14909746D02*
X8626182Y-14900222D01*
X8626182Y-14900222D02*
X8635706Y-14881174D01*
X8635706Y-14881174D02*
X8654753Y-14871650D01*
X8654753Y-14871650D02*
X8683325Y-14871650D01*
X8683325Y-14871650D02*
X8702373Y-14881174D01*
X8778563Y-15081174D02*
X8788087Y-15071650D01*
X8788087Y-15071650D02*
X8807134Y-15043079D01*
X8807134Y-15043079D02*
X8816658Y-15024031D01*
X8816658Y-15024031D02*
X8826182Y-14995460D01*
X8826182Y-14995460D02*
X8835706Y-14947841D01*
X8835706Y-14947841D02*
X8835706Y-14909746D01*
X8835706Y-14909746D02*
X8826182Y-14862127D01*
X8826182Y-14862127D02*
X8816658Y-14833555D01*
X8816658Y-14833555D02*
X8807134Y-14814508D01*
X8807134Y-14814508D02*
X8788087Y-14785936D01*
X8788087Y-14785936D02*
X8778563Y-14776412D01*
M02*
