%TF.GenerationSoftware,KiCad,Pcbnew,9.0.1*%
%TF.CreationDate,2026-03-17T12:34:19+07:00*%
%TF.ProjectId,DucMinh,4475634d-696e-4682-9e6b-696361645f70,rev?*%
%TF.SameCoordinates,Original*%
%TF.FileFunction,Drillmap*%
%TF.FilePolarity,Positive*%
%FSLAX45Y45*%
G04 Gerber Fmt 4.5, Leading zero omitted, Abs format (unit mm)*
G04 Created by KiCad (PCBNEW 9.0.1) date 2026-03-17 12:34:19*
%MOMM*%
%LPD*%
G01*
G04 APERTURE LIST*
%ADD10C,0.050000*%
%ADD11C,0.200000*%
G04 APERTURE END LIST*
D10*
X4006000Y-4295000D02*
G75*
G02*
X4406000Y-3895000I400000J0D01*
G01*
X12756000Y-11495000D02*
G75*
G02*
X12456000Y-11495000I-150000J0D01*
G01*
X12456000Y-11495000D02*
G75*
G02*
X12756000Y-11495000I150000J0D01*
G01*
X13006000Y-4295000D02*
X13006000Y-11495000D01*
X4406000Y-3895000D02*
X12606000Y-3895000D01*
X4006000Y-11495000D02*
X4006000Y-4295000D01*
X4556000Y-4295000D02*
G75*
G02*
X4256000Y-4295000I-150000J0D01*
G01*
X4256000Y-4295000D02*
G75*
G02*
X4556000Y-4295000I150000J0D01*
G01*
X12606000Y-11895000D02*
X4406000Y-11895000D01*
X4556000Y-11495000D02*
G75*
G02*
X4256000Y-11495000I-150000J0D01*
G01*
X4256000Y-11495000D02*
G75*
G02*
X4556000Y-11495000I150000J0D01*
G01*
X12606000Y-3895000D02*
G75*
G02*
X13006000Y-4295000I0J-400000D01*
G01*
X4406000Y-11895000D02*
G75*
G02*
X4006000Y-11495000I0J400000D01*
G01*
X12756000Y-4295000D02*
G75*
G02*
X12456000Y-4295000I-150000J0D01*
G01*
X12456000Y-4295000D02*
G75*
G02*
X12756000Y-4295000I150000J0D01*
G01*
X13006000Y-11495000D02*
G75*
G02*
X12606000Y-11895000I-400000J0D01*
G01*
D11*
X4264277Y-12208984D02*
X4264277Y-12008984D01*
X4264277Y-12008984D02*
X4311896Y-12008984D01*
X4311896Y-12008984D02*
X4340467Y-12018508D01*
X4340467Y-12018508D02*
X4359515Y-12037555D01*
X4359515Y-12037555D02*
X4369039Y-12056603D01*
X4369039Y-12056603D02*
X4378563Y-12094698D01*
X4378563Y-12094698D02*
X4378563Y-12123269D01*
X4378563Y-12123269D02*
X4369039Y-12161365D01*
X4369039Y-12161365D02*
X4359515Y-12180412D01*
X4359515Y-12180412D02*
X4340467Y-12199460D01*
X4340467Y-12199460D02*
X4311896Y-12208984D01*
X4311896Y-12208984D02*
X4264277Y-12208984D01*
X4464277Y-12208984D02*
X4464277Y-12075650D01*
X4464277Y-12113746D02*
X4473801Y-12094698D01*
X4473801Y-12094698D02*
X4483324Y-12085174D01*
X4483324Y-12085174D02*
X4502372Y-12075650D01*
X4502372Y-12075650D02*
X4521420Y-12075650D01*
X4588086Y-12208984D02*
X4588086Y-12075650D01*
X4588086Y-12008984D02*
X4578563Y-12018508D01*
X4578563Y-12018508D02*
X4588086Y-12028031D01*
X4588086Y-12028031D02*
X4597610Y-12018508D01*
X4597610Y-12018508D02*
X4588086Y-12008984D01*
X4588086Y-12008984D02*
X4588086Y-12028031D01*
X4711896Y-12208984D02*
X4692848Y-12199460D01*
X4692848Y-12199460D02*
X4683324Y-12180412D01*
X4683324Y-12180412D02*
X4683324Y-12008984D01*
X4816658Y-12208984D02*
X4797610Y-12199460D01*
X4797610Y-12199460D02*
X4788086Y-12180412D01*
X4788086Y-12180412D02*
X4788086Y-12008984D01*
X5045229Y-12208984D02*
X5045229Y-12008984D01*
X5045229Y-12008984D02*
X5111896Y-12151841D01*
X5111896Y-12151841D02*
X5178563Y-12008984D01*
X5178563Y-12008984D02*
X5178563Y-12208984D01*
X5359515Y-12208984D02*
X5359515Y-12104222D01*
X5359515Y-12104222D02*
X5349991Y-12085174D01*
X5349991Y-12085174D02*
X5330944Y-12075650D01*
X5330944Y-12075650D02*
X5292848Y-12075650D01*
X5292848Y-12075650D02*
X5273801Y-12085174D01*
X5359515Y-12199460D02*
X5340467Y-12208984D01*
X5340467Y-12208984D02*
X5292848Y-12208984D01*
X5292848Y-12208984D02*
X5273801Y-12199460D01*
X5273801Y-12199460D02*
X5264277Y-12180412D01*
X5264277Y-12180412D02*
X5264277Y-12161365D01*
X5264277Y-12161365D02*
X5273801Y-12142317D01*
X5273801Y-12142317D02*
X5292848Y-12132793D01*
X5292848Y-12132793D02*
X5340467Y-12132793D01*
X5340467Y-12132793D02*
X5359515Y-12123269D01*
X5454753Y-12075650D02*
X5454753Y-12275650D01*
X5454753Y-12085174D02*
X5473801Y-12075650D01*
X5473801Y-12075650D02*
X5511896Y-12075650D01*
X5511896Y-12075650D02*
X5530944Y-12085174D01*
X5530944Y-12085174D02*
X5540467Y-12094698D01*
X5540467Y-12094698D02*
X5549991Y-12113746D01*
X5549991Y-12113746D02*
X5549991Y-12170888D01*
X5549991Y-12170888D02*
X5540467Y-12189936D01*
X5540467Y-12189936D02*
X5530944Y-12199460D01*
X5530944Y-12199460D02*
X5511896Y-12208984D01*
X5511896Y-12208984D02*
X5473801Y-12208984D01*
X5473801Y-12208984D02*
X5454753Y-12199460D01*
X5635705Y-12189936D02*
X5645229Y-12199460D01*
X5645229Y-12199460D02*
X5635705Y-12208984D01*
X5635705Y-12208984D02*
X5626182Y-12199460D01*
X5626182Y-12199460D02*
X5635705Y-12189936D01*
X5635705Y-12189936D02*
X5635705Y-12208984D01*
X5635705Y-12085174D02*
X5645229Y-12094698D01*
X5645229Y-12094698D02*
X5635705Y-12104222D01*
X5635705Y-12104222D02*
X5626182Y-12094698D01*
X5626182Y-12094698D02*
X5635705Y-12085174D01*
X5635705Y-12085174D02*
X5635705Y-12104222D01*
M02*
